G04 #@! TF.GenerationSoftware,KiCad,Pcbnew,(5.0.2)-1*
G04 #@! TF.CreationDate,2019-05-11T15:19:44-06:00*
G04 #@! TF.ProjectId,AndromedaV2.2,416e6472-6f6d-4656-9461-56322e322e6b,rev?*
G04 #@! TF.SameCoordinates,Original*
G04 #@! TF.FileFunction,Copper,L2,Bot*
G04 #@! TF.FilePolarity,Positive*
%FSLAX46Y46*%
G04 Gerber Fmt 4.6, Leading zero omitted, Abs format (unit mm)*
G04 Created by KiCad (PCBNEW (5.0.2)-1) date 2019-05-11 3:19:44 PM*
%MOMM*%
%LPD*%
G01*
G04 APERTURE LIST*
G04 #@! TA.AperFunction,NonConductor*
%ADD10C,0.100000*%
G04 #@! TD*
G04 #@! TA.AperFunction,ComponentPad*
%ADD11C,1.500000*%
G04 #@! TD*
G04 #@! TA.AperFunction,ComponentPad*
%ADD12R,1.700000X1.700000*%
G04 #@! TD*
G04 #@! TA.AperFunction,ComponentPad*
%ADD13O,1.700000X1.700000*%
G04 #@! TD*
G04 #@! TA.AperFunction,ComponentPad*
%ADD14C,0.909320*%
G04 #@! TD*
G04 #@! TA.AperFunction,ComponentPad*
%ADD15C,5.000000*%
G04 #@! TD*
G04 #@! TA.AperFunction,ViaPad*
%ADD16C,0.600000*%
G04 #@! TD*
G04 #@! TA.AperFunction,Conductor*
%ADD17C,0.250000*%
G04 #@! TD*
G04 #@! TA.AperFunction,Conductor*
%ADD18C,0.200000*%
G04 #@! TD*
G04 #@! TA.AperFunction,Conductor*
%ADD19C,0.400000*%
G04 #@! TD*
G04 #@! TA.AperFunction,Conductor*
%ADD20C,0.500000*%
G04 #@! TD*
G04 #@! TA.AperFunction,Conductor*
%ADD21C,0.300000*%
G04 #@! TD*
G04 #@! TA.AperFunction,Conductor*
%ADD22C,0.254000*%
G04 #@! TD*
G04 APERTURE END LIST*
D10*
X169926000Y-66548000D02*
X169926000Y-67818000D01*
X83820000Y-66548000D02*
X169926000Y-66548000D01*
X83820000Y-67818000D02*
X83820000Y-66548000D01*
X83820000Y-67818000D02*
X83820000Y-132842000D01*
X169926000Y-132842000D02*
X169926000Y-67818000D01*
X83820000Y-132842000D02*
X169926000Y-132842000D01*
D11*
G04 #@! TO.P,J21,1*
G04 #@! TO.N,PROPULSION1*
X129746000Y-123922000D03*
G04 #@! TO.P,J21,2*
G04 #@! TO.N,PROPULSION2*
X126746000Y-123922000D03*
G04 #@! TO.P,J21,4*
G04 #@! TO.N,GND*
X129746000Y-120922000D03*
G04 #@! TO.P,J21,5*
X126746000Y-120922000D03*
G04 #@! TO.P,J21,6*
X123746000Y-120922000D03*
G04 #@! TO.P,J21,3*
G04 #@! TO.N,PROPULSION3*
X123746000Y-123922000D03*
G04 #@! TD*
G04 #@! TO.P,J22,1*
G04 #@! TO.N,+5V*
X141708000Y-123922000D03*
G04 #@! TO.P,J22,2*
G04 #@! TO.N,GND*
X138708000Y-123922000D03*
G04 #@! TO.P,J22,3*
G04 #@! TO.N,Net-(J22-Pad3)*
X141708000Y-120922000D03*
G04 #@! TO.P,J22,4*
G04 #@! TO.N,Net-(J22-Pad4)*
X138708000Y-120922000D03*
G04 #@! TD*
D12*
G04 #@! TO.P,J24,1*
G04 #@! TO.N,+3V3*
X158525000Y-87950000D03*
D13*
G04 #@! TO.P,J24,2*
G04 #@! TO.N,SWCLK*
X158525000Y-90490000D03*
G04 #@! TO.P,J24,3*
G04 #@! TO.N,GND*
X158525000Y-93030000D03*
G04 #@! TO.P,J24,4*
G04 #@! TO.N,SWDIO*
X158525000Y-95570000D03*
G04 #@! TO.P,J24,5*
G04 #@! TO.N,NRST*
X158525000Y-98110000D03*
G04 #@! TO.P,J24,6*
G04 #@! TO.N,SWO*
X158525000Y-100650000D03*
G04 #@! TD*
D14*
G04 #@! TO.P,J1,*
G04 #@! TO.N,*
X105375000Y-74000000D03*
X100975720Y-74000000D03*
G04 #@! TD*
D11*
G04 #@! TO.P,J18,1*
G04 #@! TO.N,+3V3*
X155472000Y-76670000D03*
G04 #@! TO.P,J18,2*
G04 #@! TO.N,GND*
X158472000Y-76670000D03*
G04 #@! TO.P,J18,3*
G04 #@! TO.N,UART4_TX*
X155472000Y-79670000D03*
G04 #@! TO.P,J18,4*
G04 #@! TO.N,UART4_RX*
X158472000Y-79670000D03*
G04 #@! TD*
G04 #@! TO.P,J19,1*
G04 #@! TO.N,+5V*
X143534000Y-76670000D03*
G04 #@! TO.P,J19,2*
G04 #@! TO.N,GND*
X146534000Y-76670000D03*
G04 #@! TO.P,J19,3*
G04 #@! TO.N,UART1_TX*
X143534000Y-79670000D03*
G04 #@! TO.P,J19,4*
G04 #@! TO.N,UART1_RX*
X146534000Y-79670000D03*
G04 #@! TD*
G04 #@! TO.P,J20,1*
G04 #@! TO.N,GND*
X114530000Y-123668000D03*
G04 #@! TO.P,J20,2*
X111530000Y-123668000D03*
G04 #@! TO.P,J20,3*
G04 #@! TO.N,RECOVERY_2*
X114530000Y-120668000D03*
G04 #@! TO.P,J20,4*
G04 #@! TO.N,RECOVERY_1*
X111530000Y-120668000D03*
G04 #@! TD*
G04 #@! TO.P,J23,1*
G04 #@! TO.N,+5V*
X102338000Y-123668000D03*
G04 #@! TO.P,J23,2*
G04 #@! TO.N,GND*
X99338000Y-123668000D03*
G04 #@! TO.P,J23,3*
X102338000Y-120668000D03*
G04 #@! TO.P,J23,4*
G04 #@! TO.N,Net-(J23-Pad4)*
X99338000Y-120668000D03*
G04 #@! TD*
G04 #@! TO.P,J25,1*
G04 #@! TO.N,GND*
X131375000Y-76670000D03*
G04 #@! TO.P,J25,2*
X134375000Y-76670000D03*
G04 #@! TO.P,J25,3*
G04 #@! TO.N,+12V*
X131375000Y-79670000D03*
G04 #@! TO.P,J25,4*
G04 #@! TO.N,+BATT*
X134375000Y-79670000D03*
G04 #@! TD*
G04 #@! TO.P,J26,1*
G04 #@! TO.N,LAUNCH*
X115625000Y-76670000D03*
G04 #@! TO.P,J26,2*
G04 #@! TO.N,UART2_TX*
X118625000Y-76670000D03*
G04 #@! TO.P,J26,4*
G04 #@! TO.N,GND*
X115625000Y-79670000D03*
G04 #@! TO.P,J26,5*
X118625000Y-79670000D03*
G04 #@! TO.P,J26,6*
G04 #@! TO.N,+12V*
X121625000Y-79670000D03*
G04 #@! TO.P,J26,3*
G04 #@! TO.N,UART2_RX*
X121625000Y-76670000D03*
G04 #@! TD*
D15*
G04 #@! TO.P,MK2,1*
G04 #@! TO.N,N/C*
X166868000Y-69794000D03*
G04 #@! TD*
G04 #@! TO.P,MK3,1*
G04 #@! TO.N,N/C*
X166868000Y-129794000D03*
G04 #@! TD*
G04 #@! TO.P,MK4,1*
G04 #@! TO.N,N/C*
X86868000Y-69794000D03*
G04 #@! TD*
G04 #@! TO.P,MK1,1*
G04 #@! TO.N,N/C*
X86868000Y-129794000D03*
G04 #@! TD*
D16*
G04 #@! TO.N,Net-(C1-Pad1)*
X108425000Y-80350000D03*
X103975000Y-78600000D03*
G04 #@! TO.N,GND*
X103600000Y-68700000D03*
X95500000Y-68700000D03*
X86700000Y-79900000D03*
X86700000Y-89000000D03*
X86700000Y-96500000D03*
X86800000Y-108200000D03*
X86800000Y-117100000D03*
X86800000Y-123700000D03*
X95600000Y-131700000D03*
X102800000Y-131700000D03*
X113500000Y-131700000D03*
X127900000Y-131700000D03*
X141400000Y-131700000D03*
X156400000Y-131700000D03*
X162100000Y-68800000D03*
X155900000Y-68800000D03*
X149900000Y-68800000D03*
X144500000Y-68800000D03*
X135800000Y-68800000D03*
X126500000Y-68800000D03*
X118000000Y-68800000D03*
X111800000Y-68800000D03*
X138325000Y-102100000D03*
X136125000Y-102050000D03*
X129550000Y-83675000D03*
X123675000Y-83625000D03*
X121300000Y-92300000D03*
X110150000Y-87350000D03*
X100000000Y-108300000D03*
X134350000Y-85450000D03*
X134550000Y-90100000D03*
X135050000Y-92200000D03*
X131950000Y-93400000D03*
X136600000Y-99050000D03*
X144100000Y-90050000D03*
X101750000Y-104150000D03*
X102950000Y-108400000D03*
X100150000Y-101350000D03*
X100050000Y-102650000D03*
X117200000Y-97500000D03*
X161900000Y-97350000D03*
X117450000Y-106000000D03*
X112150000Y-108600000D03*
X114100000Y-106650000D03*
X124700000Y-95650000D03*
X117550000Y-100350000D03*
X102150000Y-86000000D03*
X101700000Y-92600000D03*
X106300000Y-90200000D03*
X161700000Y-89950000D03*
X153050000Y-93700000D03*
X156050000Y-93000000D03*
X109750000Y-102800000D03*
X109700000Y-103850000D03*
X142750000Y-90000000D03*
X150275000Y-88800000D03*
X148750000Y-88750000D03*
X146250000Y-88750000D03*
X139500000Y-75500000D03*
X139500000Y-79250000D03*
X140750000Y-81250000D03*
X140750000Y-83750000D03*
X106650000Y-86750000D03*
X104950000Y-84650000D03*
X107000000Y-94750000D03*
X102000000Y-94750000D03*
X136500000Y-110500000D03*
X118000000Y-111500000D03*
X128500000Y-104000000D03*
X128500000Y-106000000D03*
X93472000Y-106955001D03*
X94488000Y-105156000D03*
X147320000Y-107188000D03*
X145542000Y-101854000D03*
X157226000Y-104140000D03*
X161290000Y-102870000D03*
X160782000Y-106934000D03*
X159766000Y-108204000D03*
X162814000Y-131572000D03*
X164846000Y-126492000D03*
X168148000Y-122174000D03*
X168148000Y-115062000D03*
X168148000Y-104140000D03*
X166370000Y-101600000D03*
X164084000Y-74168000D03*
X168148000Y-79756000D03*
X168148000Y-85344000D03*
X168148000Y-92202000D03*
X168148000Y-98298000D03*
X166370000Y-100584000D03*
X89916000Y-126492000D03*
X145542000Y-116840000D03*
X143764000Y-116840000D03*
X140716000Y-116840000D03*
X136906000Y-112776000D03*
X125222000Y-103632000D03*
X121920000Y-103632000D03*
X121412000Y-104902000D03*
X120904000Y-108204000D03*
X120142000Y-108966000D03*
X123698000Y-109220000D03*
G04 #@! TO.N,Net-(C2-Pad1)*
X101150000Y-83900000D03*
X103225000Y-78300000D03*
G04 #@! TO.N,+BATT*
X137700000Y-90050000D03*
X136125000Y-80175000D03*
X137625000Y-95650000D03*
X136125000Y-79250000D03*
G04 #@! TO.N,Net-(C9-Pad2)*
X139250000Y-88550000D03*
X141425000Y-88525000D03*
X140425000Y-88550000D03*
X143825000Y-93750000D03*
X144925000Y-93750000D03*
X144925000Y-94750000D03*
X143825000Y-94750000D03*
G04 #@! TO.N,+5V*
X110744000Y-79502000D03*
X98298000Y-82084002D03*
X94234000Y-78232000D03*
G04 #@! TO.N,+3V3*
X134400000Y-100225000D03*
X133325000Y-99700000D03*
X100000000Y-109500000D03*
X98900000Y-109500000D03*
X115700000Y-93350000D03*
X118600000Y-93350000D03*
X99000000Y-112000000D03*
X100000000Y-112000000D03*
X114225000Y-111075000D03*
X114875000Y-111075000D03*
X132425000Y-109575000D03*
X97790000Y-108458000D03*
X95504000Y-106680000D03*
X140716000Y-117856000D03*
G04 #@! TO.N,SPI2_MISO*
X121158000Y-112776000D03*
X119634000Y-114300000D03*
G04 #@! TO.N,MAG_~CS*
X113250000Y-105450000D03*
X104675000Y-98325000D03*
G04 #@! TO.N,SPI1_MISO*
X113050000Y-102350000D03*
X111450000Y-103500000D03*
G04 #@! TO.N,Net-(J22-Pad4)*
X145542000Y-106680000D03*
X142494000Y-118618000D03*
G04 #@! TO.N,SWCLK*
X140200000Y-103900000D03*
X138625000Y-109175000D03*
G04 #@! TO.N,SWDIO*
X141400000Y-103800000D03*
X139375000Y-111475000D03*
G04 #@! TO.N,NRST*
X132600000Y-96700000D03*
X125250000Y-96550000D03*
X140675000Y-97225000D03*
X148675000Y-98075000D03*
G04 #@! TO.N,A/G_~CS*
X113950000Y-100250000D03*
X114000000Y-97100000D03*
G04 #@! TO.N,SPI1_SCK*
X107050000Y-98400000D03*
X108250000Y-100750000D03*
X108225000Y-102400000D03*
G04 #@! TO.N,SPI1_MOSI*
X113300000Y-103700000D03*
X111300000Y-106050000D03*
G04 #@! TO.N,SPI3_SCK*
X145796000Y-110490000D03*
X149606000Y-110811000D03*
G04 #@! TO.N,SD1_~CS*
X143764000Y-109474000D03*
X157734000Y-110490000D03*
G04 #@! TO.N,UART4_TX*
X121900000Y-100450000D03*
G04 #@! TO.N,UART4_RX*
X121050000Y-101350000D03*
G04 #@! TO.N,UART1_TX*
X153925000Y-89850000D03*
X151900000Y-87575000D03*
G04 #@! TO.N,UART1_RX*
X154450000Y-89025000D03*
X152575000Y-87100000D03*
G04 #@! TO.N,LAUNCH*
X124600000Y-98150000D03*
G04 #@! TO.N,UART2_RX*
X116600000Y-82400000D03*
G04 #@! TO.N,ADC1*
X119126000Y-112014000D03*
X96520000Y-118872000D03*
G04 #@! TO.N,Net-(R17-Pad2)*
X126238000Y-100771000D03*
X127508000Y-97282000D03*
G04 #@! TO.N,UART3_RX*
X103000000Y-89700000D03*
X117200000Y-107600000D03*
G04 #@! TO.N,UART3_TX*
X120250000Y-106950000D03*
X104900000Y-89900000D03*
G04 #@! TO.N,ADC2*
X121500000Y-106950000D03*
X137668000Y-105156000D03*
X142494000Y-105156000D03*
X144611174Y-104902000D03*
G04 #@! TO.N,Net-(R21-Pad2)*
X155702000Y-106680000D03*
X157734000Y-105664000D03*
G04 #@! TO.N,PROPULSION3*
X129032000Y-109728000D03*
G04 #@! TO.N,Net-(J22-Pad3)*
X144272000Y-106172000D03*
G04 #@! TD*
D17*
G04 #@! TO.N,Net-(C1-Pad1)*
X108425000Y-80350000D02*
X106675000Y-78600000D01*
X106675000Y-78600000D02*
X103975000Y-78600000D01*
G04 #@! TO.N,GND*
X95500000Y-68700000D02*
X103600000Y-68700000D01*
X86700000Y-89000000D02*
X86700000Y-79900000D01*
X86800000Y-108200000D02*
X86800000Y-96600000D01*
X86800000Y-96600000D02*
X86700000Y-96500000D01*
X86800000Y-123700000D02*
X86800000Y-117100000D01*
X113500000Y-131700000D02*
X102800000Y-131700000D01*
X141400000Y-131700000D02*
X127900000Y-131700000D01*
X155900000Y-68800000D02*
X162100000Y-68800000D01*
X144500000Y-68800000D02*
X149900000Y-68800000D01*
X126500000Y-68800000D02*
X135800000Y-68800000D01*
X111800000Y-68800000D02*
X118000000Y-68800000D01*
X136125000Y-102050000D02*
X136175000Y-102100000D01*
X136175000Y-102100000D02*
X138325000Y-102100000D01*
X134550000Y-90100000D02*
X134350000Y-89900000D01*
X134350000Y-89900000D02*
X134350000Y-85450000D01*
X135050000Y-92200000D02*
X133850000Y-93400000D01*
X133850000Y-93400000D02*
X131950000Y-93400000D01*
X142750000Y-90000000D02*
X144050000Y-90000000D01*
X144050000Y-90000000D02*
X144100000Y-90050000D01*
X102950000Y-108400000D02*
X103100000Y-108250000D01*
X114100000Y-106650000D02*
X112150000Y-108600000D01*
X117550000Y-100350000D02*
X117550000Y-97950000D01*
X105900000Y-86000000D02*
X106650000Y-86750000D01*
X102150000Y-86000000D02*
X105900000Y-86000000D01*
X101700000Y-92600000D02*
X102000000Y-92900000D01*
X102000000Y-92900000D02*
X102000000Y-94750000D01*
X162200000Y-97600000D02*
X162100000Y-97500000D01*
X162100000Y-97500000D02*
X162100000Y-90350000D01*
X162100000Y-90350000D02*
X161700000Y-89950000D01*
X156050000Y-93000000D02*
X155350000Y-93700000D01*
X155350000Y-93700000D02*
X153050000Y-93700000D01*
D18*
X109700000Y-103850000D02*
X109750000Y-103800000D01*
X109750000Y-103800000D02*
X109750000Y-102800000D01*
D17*
X146250000Y-88750000D02*
X148750000Y-88750000D01*
X139500000Y-79250000D02*
X139500000Y-75500000D01*
X140750000Y-83750000D02*
X140750000Y-81250000D01*
X102000000Y-94750000D02*
X107000000Y-94750000D01*
X128500000Y-104000000D02*
X128500000Y-106000000D01*
X93472000Y-106955001D02*
X93472000Y-106172000D01*
X93472000Y-106172000D02*
X94488000Y-105156000D01*
D18*
X147320000Y-107188000D02*
X145542000Y-105410000D01*
X145542000Y-105410000D02*
X145542000Y-101854000D01*
X157226000Y-104140000D02*
X158496000Y-102870000D01*
X158496000Y-102870000D02*
X161290000Y-102870000D01*
X160782000Y-106934000D02*
X160782000Y-107188000D01*
X160782000Y-107188000D02*
X159766000Y-108204000D01*
D17*
X156400000Y-131700000D02*
X162686000Y-131700000D01*
X162686000Y-131700000D02*
X162814000Y-131572000D01*
X164846000Y-126492000D02*
X167386000Y-126492000D01*
X167386000Y-126492000D02*
X168148000Y-125730000D01*
X168148000Y-125730000D02*
X168148000Y-122174000D01*
X168148000Y-115062000D02*
X168148000Y-104140000D01*
X164084000Y-74168000D02*
X167640000Y-74168000D01*
X167640000Y-74168000D02*
X167894000Y-74168000D01*
X167894000Y-74168000D02*
X168148000Y-74422000D01*
X168148000Y-74422000D02*
X168148000Y-79756000D01*
X168148000Y-85344000D02*
X168148000Y-92202000D01*
X168148000Y-98298000D02*
X168148000Y-98806000D01*
X168148000Y-98806000D02*
X166370000Y-100584000D01*
X89916000Y-126492000D02*
X90215999Y-126791999D01*
X90215999Y-126791999D02*
X91948000Y-128524000D01*
X91948000Y-128524000D02*
X91948000Y-130810000D01*
X92838000Y-131700000D02*
X91948000Y-130810000D01*
X95600000Y-131700000D02*
X92838000Y-131700000D01*
X145542000Y-116840000D02*
X143764000Y-116840000D01*
X140716000Y-116840000D02*
X136906000Y-113030000D01*
X136906000Y-113030000D02*
X136906000Y-112776000D01*
X125222000Y-103632000D02*
X121920000Y-103632000D01*
X121412000Y-104902000D02*
X120904000Y-105410000D01*
X120904000Y-105410000D02*
X120904000Y-108204000D01*
X120142000Y-108966000D02*
X123444000Y-108966000D01*
X123444000Y-108966000D02*
X123698000Y-109220000D01*
G04 #@! TO.N,Net-(C2-Pad1)*
X101150000Y-83900000D02*
X101200000Y-83850000D01*
X101200000Y-83850000D02*
X101200000Y-79650000D01*
X101200000Y-79650000D02*
X102550000Y-78300000D01*
X102550000Y-78300000D02*
X103225000Y-78300000D01*
D19*
G04 #@! TO.N,+BATT*
X137700000Y-90050000D02*
X137625000Y-90125000D01*
X137625000Y-90125000D02*
X137625000Y-95650000D01*
D17*
X136125000Y-79250000D02*
X136125000Y-80175000D01*
G04 #@! TO.N,Net-(C9-Pad2)*
X139250000Y-88550000D02*
X140425000Y-88550000D01*
X140425000Y-88550000D02*
X141400000Y-88550000D01*
X141400000Y-88550000D02*
X141425000Y-88525000D01*
X144925000Y-93750000D02*
X143825000Y-93750000D01*
X143825000Y-94750000D02*
X144925000Y-94750000D01*
D20*
G04 #@! TO.N,+5V*
X108712000Y-81534000D02*
X104552002Y-81534000D01*
X110744000Y-79502000D02*
X108712000Y-81534000D01*
X104552002Y-81534000D02*
X101486001Y-84600001D01*
X101486001Y-84600001D02*
X100813999Y-84600001D01*
X100813999Y-84600001D02*
X98298000Y-82084002D01*
X101098000Y-122428000D02*
X102338000Y-123668000D01*
X92710000Y-122428000D02*
X101098000Y-122428000D01*
X89154000Y-118872000D02*
X92710000Y-122428000D01*
X89154000Y-80264000D02*
X89154000Y-118872000D01*
X94234000Y-78232000D02*
X91186000Y-78232000D01*
X91186000Y-78232000D02*
X89154000Y-80264000D01*
G04 #@! TO.N,+3V3*
X132425000Y-111650000D02*
X132425000Y-109575000D01*
D17*
X103150000Y-109500000D02*
X105200000Y-109500000D01*
X100000000Y-109500000D02*
X103150000Y-109500000D01*
X103150000Y-109500000D02*
X104750000Y-109500000D01*
X100000000Y-109500000D02*
X98900000Y-109500000D01*
X100000000Y-109500000D02*
X100000000Y-112000000D01*
X118600000Y-93350000D02*
X115700000Y-93350000D01*
X114875000Y-111075000D02*
X114225000Y-111075000D01*
X97790000Y-108458000D02*
X97282000Y-108458000D01*
X97282000Y-108458000D02*
X95504000Y-106680000D01*
D20*
X132425000Y-111650000D02*
X132425000Y-113375000D01*
X132425000Y-113375000D02*
X136906000Y-117856000D01*
X136906000Y-117856000D02*
X140716000Y-117856000D01*
D17*
G04 #@! TO.N,SPI2_MISO*
X121158000Y-112776000D02*
X120858001Y-113075999D01*
X120858001Y-113075999D02*
X119888000Y-114046000D01*
X119888000Y-114046000D02*
X119634000Y-114300000D01*
G04 #@! TO.N,MAG_~CS*
X113250000Y-105450000D02*
X111450000Y-107250000D01*
X111450000Y-107250000D02*
X107200000Y-107250000D01*
X107200000Y-107250000D02*
X105275000Y-105325000D01*
X105275000Y-105325000D02*
X105275000Y-102800000D01*
D18*
X105275000Y-103775000D02*
X105275000Y-102800000D01*
D17*
X105275000Y-102800000D02*
X105275000Y-98925000D01*
X105275000Y-98925000D02*
X104675000Y-98325000D01*
D18*
G04 #@! TO.N,SPI1_MISO*
X111450000Y-103500000D02*
X111900000Y-103500000D01*
X111900000Y-103500000D02*
X113050000Y-102350000D01*
D17*
G04 #@! TO.N,Net-(J22-Pad4)*
X145542000Y-106680000D02*
X142494000Y-109728000D01*
X142494000Y-109728000D02*
X142494000Y-118618000D01*
G04 #@! TO.N,SWCLK*
X140200000Y-103900000D02*
X138525000Y-105575000D01*
X138525000Y-105575000D02*
X138525000Y-109075000D01*
X138525000Y-109075000D02*
X138625000Y-109175000D01*
G04 #@! TO.N,SWDIO*
X141400000Y-103800000D02*
X139325004Y-105874996D01*
X139325004Y-105874996D02*
X139325004Y-111425004D01*
X139325004Y-111425004D02*
X139375000Y-111475000D01*
G04 #@! TO.N,NRST*
X132600000Y-96700000D02*
X132500000Y-96600000D01*
X132500000Y-96600000D02*
X125300000Y-96600000D01*
X125300000Y-96600000D02*
X125250000Y-96550000D01*
X140675000Y-97225000D02*
X141525000Y-98075000D01*
X141525000Y-98075000D02*
X148675000Y-98075000D01*
G04 #@! TO.N,A/G_~CS*
X113950000Y-100250000D02*
X114000000Y-100200000D01*
X114000000Y-100200000D02*
X114000000Y-97100000D01*
G04 #@! TO.N,SPI1_SCK*
X108250000Y-100750000D02*
X108250000Y-99600000D01*
X108250000Y-99600000D02*
X107050000Y-98400000D01*
D18*
X108225000Y-100775000D02*
X108225000Y-102400000D01*
X108250000Y-100750000D02*
X108225000Y-100775000D01*
D17*
G04 #@! TO.N,SPI1_MOSI*
X111300000Y-106050000D02*
X111300000Y-105700000D01*
X111300000Y-105700000D02*
X113300000Y-103700000D01*
G04 #@! TO.N,SPI3_SCK*
X145796000Y-110490000D02*
X146117000Y-110811000D01*
X146117000Y-110811000D02*
X149606000Y-110811000D01*
G04 #@! TO.N,SD1_~CS*
X143764000Y-109474000D02*
X156718000Y-109474000D01*
X156718000Y-109474000D02*
X157734000Y-110490000D01*
G04 #@! TO.N,UART4_TX*
X155472000Y-84558000D02*
X155472000Y-79670000D01*
X154205000Y-85825000D02*
X155472000Y-84558000D01*
X138775000Y-85825000D02*
X154205000Y-85825000D01*
X121900000Y-101580000D02*
X122428000Y-102108000D01*
X122428000Y-102108000D02*
X129092000Y-102108000D01*
X129092000Y-102108000D02*
X136325000Y-94875000D01*
X136325000Y-94875000D02*
X136325000Y-88275000D01*
X121900000Y-100450000D02*
X121900000Y-101580000D01*
X136325000Y-88275000D02*
X138775000Y-85825000D01*
G04 #@! TO.N,UART4_RX*
X154375000Y-86475000D02*
X158472000Y-82378000D01*
X139375000Y-86475000D02*
X154375000Y-86475000D01*
X121050000Y-101774264D02*
X121891736Y-102616000D01*
X158472000Y-82378000D02*
X158472000Y-79670000D01*
X121050000Y-101350000D02*
X121050000Y-101774264D01*
X121891736Y-102616000D02*
X129184000Y-102616000D01*
X129184000Y-102616000D02*
X136975000Y-94825000D01*
X136975000Y-94825000D02*
X136975000Y-88875000D01*
X136975000Y-88875000D02*
X139375000Y-86475000D01*
G04 #@! TO.N,UART1_TX*
X153925000Y-89850000D02*
X153925000Y-89600000D01*
X153925000Y-89600000D02*
X151900000Y-87575000D01*
G04 #@! TO.N,UART1_RX*
X154450000Y-89025000D02*
X154450000Y-89000000D01*
X154450000Y-89000000D02*
X152575000Y-87125000D01*
X152575000Y-87125000D02*
X152575000Y-87100000D01*
G04 #@! TO.N,LAUNCH*
X124600000Y-98150000D02*
X124600000Y-97200000D01*
X124600000Y-97200000D02*
X113550000Y-86150000D01*
X113550000Y-86150000D02*
X113550000Y-78745000D01*
X113550000Y-78745000D02*
X115625000Y-76670000D01*
G04 #@! TO.N,UART2_RX*
X116600000Y-82400000D02*
X118000000Y-82400000D01*
X118000000Y-82400000D02*
X120200000Y-80200000D01*
X120200000Y-80200000D02*
X120200000Y-78095000D01*
X120200000Y-78095000D02*
X121625000Y-76670000D01*
G04 #@! TO.N,ADC1*
X119126000Y-112014000D02*
X112268000Y-118872000D01*
X112268000Y-118872000D02*
X96520000Y-118872000D01*
G04 #@! TO.N,Net-(R17-Pad2)*
X126238000Y-100771000D02*
X126813000Y-100771000D01*
X126813000Y-100771000D02*
X127508000Y-100076000D01*
X127508000Y-100076000D02*
X127508000Y-97282000D01*
G04 #@! TO.N,UART3_RX*
X117200000Y-107600000D02*
X116100000Y-107600000D01*
X116100000Y-107600000D02*
X115250000Y-106750000D01*
X110100000Y-92050000D02*
X105350000Y-92050000D01*
X115250000Y-106750000D02*
X115250000Y-97200000D01*
X105350000Y-92050000D02*
X103000000Y-89700000D01*
X115250000Y-97200000D02*
X110100000Y-92050000D01*
G04 #@! TO.N,UART3_TX*
X120250000Y-106950000D02*
X116450000Y-106950000D01*
X106600000Y-91600000D02*
X104900000Y-89900000D01*
X116450000Y-106950000D02*
X115900000Y-106400000D01*
X115900000Y-106400000D02*
X115900000Y-97100000D01*
X115900000Y-97100000D02*
X110400000Y-91600000D01*
X110400000Y-91600000D02*
X106600000Y-91600000D01*
D21*
G04 #@! TO.N,ADC2*
X121500000Y-106950000D02*
X122650000Y-106950000D01*
D17*
X128401002Y-106950000D02*
X130195002Y-105156000D01*
X122650000Y-106950000D02*
X128401002Y-106950000D01*
X130195002Y-105156000D02*
X137414000Y-105156000D01*
X137414000Y-105156000D02*
X137668000Y-105156000D01*
X144357174Y-105156000D02*
X144611174Y-104902000D01*
X142494000Y-105156000D02*
X144357174Y-105156000D01*
G04 #@! TO.N,Net-(R21-Pad2)*
X155702000Y-106680000D02*
X156718000Y-106680000D01*
X156718000Y-106680000D02*
X157734000Y-105664000D01*
G04 #@! TO.N,PROPULSION3*
X133858000Y-118364000D02*
X132842000Y-119380000D01*
X133858000Y-116400000D02*
X133858000Y-118364000D01*
X129032000Y-109728000D02*
X129032000Y-111574000D01*
X129032000Y-111574000D02*
X133858000Y-116400000D01*
X124806660Y-123922000D02*
X123746000Y-123922000D01*
X125228998Y-123922000D02*
X124806660Y-123922000D01*
X129770998Y-119380000D02*
X125228998Y-123922000D01*
X132842000Y-119380000D02*
X129770998Y-119380000D01*
G04 #@! TO.N,Net-(J22-Pad3)*
X141708000Y-108736000D02*
X141708000Y-120922000D01*
X144272000Y-106172000D02*
X141708000Y-108736000D01*
G04 #@! TD*
D22*
G04 #@! TO.N,Net-(C9-Pad2)*
G36*
X141698006Y-93151251D02*
X141708152Y-93199754D01*
X141736087Y-93240683D01*
X141777557Y-93267806D01*
X141825000Y-93277000D01*
X145398000Y-93277000D01*
X145398000Y-94948000D01*
X140902537Y-94948000D01*
X140926999Y-89150536D01*
X140917537Y-89101895D01*
X140890181Y-89060577D01*
X140849095Y-89032873D01*
X140800000Y-89023000D01*
X138924081Y-89023000D01*
X138904988Y-88202000D01*
X141649245Y-88202000D01*
X141698006Y-93151251D01*
X141698006Y-93151251D01*
G37*
X141698006Y-93151251D02*
X141708152Y-93199754D01*
X141736087Y-93240683D01*
X141777557Y-93267806D01*
X141825000Y-93277000D01*
X145398000Y-93277000D01*
X145398000Y-94948000D01*
X140902537Y-94948000D01*
X140926999Y-89150536D01*
X140917537Y-89101895D01*
X140890181Y-89060577D01*
X140849095Y-89032873D01*
X140800000Y-89023000D01*
X138924081Y-89023000D01*
X138904988Y-88202000D01*
X141649245Y-88202000D01*
X141698006Y-93151251D01*
G04 #@! TO.N,+3V3*
G36*
X100374854Y-112373000D02*
X98628881Y-112373000D01*
X98675146Y-109227000D01*
X100421119Y-109227000D01*
X100374854Y-112373000D01*
X100374854Y-112373000D01*
G37*
X100374854Y-112373000D02*
X98628881Y-112373000D01*
X98675146Y-109227000D01*
X100421119Y-109227000D01*
X100374854Y-112373000D01*
G36*
X115048000Y-112825000D02*
X115057667Y-112873601D01*
X115085197Y-112914803D01*
X115126399Y-112942333D01*
X115175000Y-112952000D01*
X117124511Y-112952000D01*
X116628511Y-113448000D01*
X114002000Y-113448000D01*
X114002000Y-110702000D01*
X115048000Y-110702000D01*
X115048000Y-112825000D01*
X115048000Y-112825000D01*
G37*
X115048000Y-112825000D02*
X115057667Y-112873601D01*
X115085197Y-112914803D01*
X115126399Y-112942333D01*
X115175000Y-112952000D01*
X117124511Y-112952000D01*
X116628511Y-113448000D01*
X114002000Y-113448000D01*
X114002000Y-110702000D01*
X115048000Y-110702000D01*
X115048000Y-112825000D01*
G36*
X134548000Y-113448000D02*
X131969487Y-113448000D01*
X131473487Y-112952000D01*
X132025000Y-112952000D01*
X132073601Y-112942333D01*
X132114803Y-112914803D01*
X132142333Y-112873601D01*
X132152000Y-112825000D01*
X132152000Y-105908000D01*
X134548000Y-105908000D01*
X134548000Y-113448000D01*
X134548000Y-113448000D01*
G37*
X134548000Y-113448000D02*
X131969487Y-113448000D01*
X131473487Y-112952000D01*
X132025000Y-112952000D01*
X132073601Y-112942333D01*
X132114803Y-112914803D01*
X132142333Y-112873601D01*
X132152000Y-112825000D01*
X132152000Y-105908000D01*
X134548000Y-105908000D01*
X134548000Y-113448000D01*
G36*
X134548000Y-104404000D02*
X132152000Y-104404000D01*
X132152000Y-100711487D01*
X134548000Y-98315488D01*
X134548000Y-104404000D01*
X134548000Y-104404000D01*
G37*
X134548000Y-104404000D02*
X132152000Y-104404000D01*
X132152000Y-100711487D01*
X134548000Y-98315488D01*
X134548000Y-104404000D01*
G04 #@! TO.N,GND*
G36*
X164217057Y-68022697D02*
X163741000Y-69172001D01*
X163741000Y-70415999D01*
X164217057Y-71565303D01*
X165096697Y-72444943D01*
X166246001Y-72921000D01*
X167489999Y-72921000D01*
X168639303Y-72444943D01*
X169249001Y-71835245D01*
X169249000Y-127752754D01*
X168639303Y-127143057D01*
X167489999Y-126667000D01*
X166246001Y-126667000D01*
X165096697Y-127143057D01*
X164217057Y-128022697D01*
X163741000Y-129172001D01*
X163741000Y-130415999D01*
X164217057Y-131565303D01*
X164816754Y-132165000D01*
X88919246Y-132165000D01*
X89518943Y-131565303D01*
X89995000Y-130415999D01*
X89995000Y-129172001D01*
X89518943Y-128022697D01*
X89061159Y-127564913D01*
X98711000Y-127564913D01*
X98711000Y-128411087D01*
X99034817Y-129192848D01*
X99633152Y-129791183D01*
X100414913Y-130115000D01*
X101261087Y-130115000D01*
X102042848Y-129791183D01*
X102641183Y-129192848D01*
X102965000Y-128411087D01*
X102965000Y-127564913D01*
X110903000Y-127564913D01*
X110903000Y-128411087D01*
X111226817Y-129192848D01*
X111825152Y-129791183D01*
X112606913Y-130115000D01*
X113453087Y-130115000D01*
X114234848Y-129791183D01*
X114833183Y-129192848D01*
X115157000Y-128411087D01*
X115157000Y-127818913D01*
X124619000Y-127818913D01*
X124619000Y-128665087D01*
X124942817Y-129446848D01*
X125541152Y-130045183D01*
X126322913Y-130369000D01*
X127169087Y-130369000D01*
X127950848Y-130045183D01*
X128549183Y-129446848D01*
X128873000Y-128665087D01*
X128873000Y-127818913D01*
X138081000Y-127818913D01*
X138081000Y-128665087D01*
X138404817Y-129446848D01*
X139003152Y-130045183D01*
X139784913Y-130369000D01*
X140631087Y-130369000D01*
X141412848Y-130045183D01*
X142011183Y-129446848D01*
X142335000Y-128665087D01*
X142335000Y-127818913D01*
X142011183Y-127037152D01*
X141412848Y-126438817D01*
X140631087Y-126115000D01*
X139784913Y-126115000D01*
X139003152Y-126438817D01*
X138404817Y-127037152D01*
X138081000Y-127818913D01*
X128873000Y-127818913D01*
X128549183Y-127037152D01*
X127950848Y-126438817D01*
X127169087Y-126115000D01*
X126322913Y-126115000D01*
X125541152Y-126438817D01*
X124942817Y-127037152D01*
X124619000Y-127818913D01*
X115157000Y-127818913D01*
X115157000Y-127564913D01*
X114833183Y-126783152D01*
X114234848Y-126184817D01*
X113453087Y-125861000D01*
X112606913Y-125861000D01*
X111825152Y-126184817D01*
X111226817Y-126783152D01*
X110903000Y-127564913D01*
X102965000Y-127564913D01*
X102641183Y-126783152D01*
X102042848Y-126184817D01*
X101261087Y-125861000D01*
X100414913Y-125861000D01*
X99633152Y-126184817D01*
X99034817Y-126783152D01*
X98711000Y-127564913D01*
X89061159Y-127564913D01*
X88639303Y-127143057D01*
X87489999Y-126667000D01*
X86246001Y-126667000D01*
X85096697Y-127143057D01*
X84497000Y-127742754D01*
X84497000Y-124639517D01*
X98546088Y-124639517D01*
X98614077Y-124880460D01*
X99133171Y-125065201D01*
X99683448Y-125037230D01*
X100061923Y-124880460D01*
X100129912Y-124639517D01*
X99338000Y-123847605D01*
X98546088Y-124639517D01*
X84497000Y-124639517D01*
X84497000Y-80264000D01*
X88259820Y-80264000D01*
X88277000Y-80350370D01*
X88277001Y-118785625D01*
X88259820Y-118872000D01*
X88327885Y-119214188D01*
X88450106Y-119397103D01*
X88521720Y-119504281D01*
X88594944Y-119553208D01*
X92028791Y-122987056D01*
X92077719Y-123060281D01*
X92150943Y-123109208D01*
X92367810Y-123254115D01*
X92367811Y-123254115D01*
X92367812Y-123254116D01*
X92623625Y-123305000D01*
X92623629Y-123305000D01*
X92709999Y-123322180D01*
X92796369Y-123305000D01*
X97997091Y-123305000D01*
X97940799Y-123463171D01*
X97968770Y-124013448D01*
X98125540Y-124391923D01*
X98366483Y-124459912D01*
X99158395Y-123668000D01*
X99144253Y-123653858D01*
X99323858Y-123474253D01*
X99338000Y-123488395D01*
X99352143Y-123474253D01*
X99531748Y-123653858D01*
X99517605Y-123668000D01*
X100309517Y-124459912D01*
X100550460Y-124391923D01*
X100735201Y-123872829D01*
X100707230Y-123322552D01*
X100699960Y-123305000D01*
X100734736Y-123305000D01*
X100961000Y-123531265D01*
X100961000Y-123941902D01*
X101170636Y-124448008D01*
X101557992Y-124835364D01*
X102064098Y-125045000D01*
X102611902Y-125045000D01*
X103118008Y-124835364D01*
X103313855Y-124639517D01*
X110738088Y-124639517D01*
X110806077Y-124880460D01*
X111325171Y-125065201D01*
X111875448Y-125037230D01*
X112253923Y-124880460D01*
X112321912Y-124639517D01*
X113738088Y-124639517D01*
X113806077Y-124880460D01*
X114325171Y-125065201D01*
X114875448Y-125037230D01*
X115253923Y-124880460D01*
X115321912Y-124639517D01*
X114530000Y-123847605D01*
X113738088Y-124639517D01*
X112321912Y-124639517D01*
X111530000Y-123847605D01*
X110738088Y-124639517D01*
X103313855Y-124639517D01*
X103505364Y-124448008D01*
X103715000Y-123941902D01*
X103715000Y-123463171D01*
X110132799Y-123463171D01*
X110160770Y-124013448D01*
X110317540Y-124391923D01*
X110558483Y-124459912D01*
X111350395Y-123668000D01*
X111709605Y-123668000D01*
X112501517Y-124459912D01*
X112742460Y-124391923D01*
X112927201Y-123872829D01*
X112906378Y-123463171D01*
X113132799Y-123463171D01*
X113160770Y-124013448D01*
X113317540Y-124391923D01*
X113558483Y-124459912D01*
X114350395Y-123668000D01*
X114709605Y-123668000D01*
X115501517Y-124459912D01*
X115742460Y-124391923D01*
X115927201Y-123872829D01*
X115899230Y-123322552D01*
X115742460Y-122944077D01*
X115501517Y-122876088D01*
X114709605Y-123668000D01*
X114350395Y-123668000D01*
X113558483Y-122876088D01*
X113317540Y-122944077D01*
X113132799Y-123463171D01*
X112906378Y-123463171D01*
X112899230Y-123322552D01*
X112742460Y-122944077D01*
X112501517Y-122876088D01*
X111709605Y-123668000D01*
X111350395Y-123668000D01*
X110558483Y-122876088D01*
X110317540Y-122944077D01*
X110132799Y-123463171D01*
X103715000Y-123463171D01*
X103715000Y-123394098D01*
X103505364Y-122887992D01*
X103313855Y-122696483D01*
X110738088Y-122696483D01*
X111530000Y-123488395D01*
X112321912Y-122696483D01*
X113738088Y-122696483D01*
X114530000Y-123488395D01*
X115321912Y-122696483D01*
X115253923Y-122455540D01*
X114734829Y-122270799D01*
X114184552Y-122298770D01*
X113806077Y-122455540D01*
X113738088Y-122696483D01*
X112321912Y-122696483D01*
X112253923Y-122455540D01*
X111734829Y-122270799D01*
X111184552Y-122298770D01*
X110806077Y-122455540D01*
X110738088Y-122696483D01*
X103313855Y-122696483D01*
X103118008Y-122500636D01*
X102611902Y-122291000D01*
X102201265Y-122291000D01*
X101888328Y-121978063D01*
X102133171Y-122065201D01*
X102683448Y-122037230D01*
X103061923Y-121880460D01*
X103129912Y-121639517D01*
X102338000Y-120847605D01*
X102323858Y-120861748D01*
X102144253Y-120682143D01*
X102158395Y-120668000D01*
X102517605Y-120668000D01*
X103309517Y-121459912D01*
X103550460Y-121391923D01*
X103735201Y-120872829D01*
X103707230Y-120322552D01*
X103550460Y-119944077D01*
X103309517Y-119876088D01*
X102517605Y-120668000D01*
X102158395Y-120668000D01*
X101366483Y-119876088D01*
X101125540Y-119944077D01*
X100940799Y-120463171D01*
X100968770Y-121013448D01*
X101125540Y-121391923D01*
X101366481Y-121459911D01*
X101260291Y-121566101D01*
X101184375Y-121551000D01*
X101184370Y-121551000D01*
X101098000Y-121533820D01*
X101011630Y-121551000D01*
X100402372Y-121551000D01*
X100505364Y-121448008D01*
X100715000Y-120941902D01*
X100715000Y-120394098D01*
X100505364Y-119887992D01*
X100241372Y-119624000D01*
X101566541Y-119624000D01*
X101546088Y-119696483D01*
X102338000Y-120488395D01*
X103129912Y-119696483D01*
X103109459Y-119624000D01*
X110626628Y-119624000D01*
X110362636Y-119887992D01*
X110153000Y-120394098D01*
X110153000Y-120941902D01*
X110362636Y-121448008D01*
X110749992Y-121835364D01*
X111256098Y-122045000D01*
X111803902Y-122045000D01*
X112310008Y-121835364D01*
X112697364Y-121448008D01*
X112907000Y-120941902D01*
X112907000Y-120394098D01*
X113153000Y-120394098D01*
X113153000Y-120941902D01*
X113362636Y-121448008D01*
X113749992Y-121835364D01*
X114256098Y-122045000D01*
X114803902Y-122045000D01*
X115169614Y-121893517D01*
X122954088Y-121893517D01*
X123022077Y-122134460D01*
X123541171Y-122319201D01*
X124091448Y-122291230D01*
X124469923Y-122134460D01*
X124537912Y-121893517D01*
X123746000Y-121101605D01*
X122954088Y-121893517D01*
X115169614Y-121893517D01*
X115310008Y-121835364D01*
X115697364Y-121448008D01*
X115907000Y-120941902D01*
X115907000Y-120717171D01*
X122348799Y-120717171D01*
X122376770Y-121267448D01*
X122533540Y-121645923D01*
X122774483Y-121713912D01*
X123566395Y-120922000D01*
X123925605Y-120922000D01*
X124717517Y-121713912D01*
X124958460Y-121645923D01*
X125143201Y-121126829D01*
X125122378Y-120717171D01*
X125348799Y-120717171D01*
X125376770Y-121267448D01*
X125533540Y-121645923D01*
X125774483Y-121713912D01*
X126566395Y-120922000D01*
X125774483Y-120130088D01*
X125533540Y-120198077D01*
X125348799Y-120717171D01*
X125122378Y-120717171D01*
X125115230Y-120576552D01*
X124958460Y-120198077D01*
X124717517Y-120130088D01*
X123925605Y-120922000D01*
X123566395Y-120922000D01*
X122774483Y-120130088D01*
X122533540Y-120198077D01*
X122348799Y-120717171D01*
X115907000Y-120717171D01*
X115907000Y-120394098D01*
X115723249Y-119950483D01*
X122954088Y-119950483D01*
X123746000Y-120742395D01*
X124537912Y-119950483D01*
X125954088Y-119950483D01*
X126746000Y-120742395D01*
X127537912Y-119950483D01*
X127469923Y-119709540D01*
X126950829Y-119524799D01*
X126400552Y-119552770D01*
X126022077Y-119709540D01*
X125954088Y-119950483D01*
X124537912Y-119950483D01*
X124469923Y-119709540D01*
X123950829Y-119524799D01*
X123400552Y-119552770D01*
X123022077Y-119709540D01*
X122954088Y-119950483D01*
X115723249Y-119950483D01*
X115697364Y-119887992D01*
X115310008Y-119500636D01*
X114803902Y-119291000D01*
X114256098Y-119291000D01*
X113749992Y-119500636D01*
X113362636Y-119887992D01*
X113153000Y-120394098D01*
X112907000Y-120394098D01*
X112697364Y-119887992D01*
X112418223Y-119608851D01*
X112561416Y-119580368D01*
X112810161Y-119414161D01*
X112852116Y-119351371D01*
X118001489Y-114202000D01*
X118707000Y-114202000D01*
X118707000Y-114484392D01*
X118848127Y-114825103D01*
X119108897Y-115085873D01*
X119449608Y-115227000D01*
X119818392Y-115227000D01*
X120159103Y-115085873D01*
X120419873Y-114825103D01*
X120561000Y-114484392D01*
X120561000Y-114436487D01*
X120795488Y-114202000D01*
X130596513Y-114202000D01*
X133106000Y-116711488D01*
X133106001Y-118052511D01*
X132530513Y-118628000D01*
X129845056Y-118628000D01*
X129770997Y-118613269D01*
X129696938Y-118628000D01*
X129696935Y-118628000D01*
X129477582Y-118671632D01*
X129228837Y-118837839D01*
X129186883Y-118900627D01*
X127904625Y-120182886D01*
X127717517Y-120130088D01*
X126925605Y-120922000D01*
X126939748Y-120936143D01*
X126760143Y-121115748D01*
X126746000Y-121101605D01*
X125954088Y-121893517D01*
X126006886Y-122080625D01*
X124922782Y-123164729D01*
X124913364Y-123141992D01*
X124526008Y-122754636D01*
X124019902Y-122545000D01*
X123472098Y-122545000D01*
X122965992Y-122754636D01*
X122578636Y-123141992D01*
X122369000Y-123648098D01*
X122369000Y-124195902D01*
X122578636Y-124702008D01*
X122965992Y-125089364D01*
X123472098Y-125299000D01*
X124019902Y-125299000D01*
X124526008Y-125089364D01*
X124913364Y-124702008D01*
X124924965Y-124674000D01*
X125154939Y-124674000D01*
X125228998Y-124688731D01*
X125303057Y-124674000D01*
X125303061Y-124674000D01*
X125522414Y-124630368D01*
X125543207Y-124616475D01*
X125578636Y-124702008D01*
X125965992Y-125089364D01*
X126472098Y-125299000D01*
X127019902Y-125299000D01*
X127526008Y-125089364D01*
X127913364Y-124702008D01*
X128123000Y-124195902D01*
X128123000Y-123648098D01*
X128369000Y-123648098D01*
X128369000Y-124195902D01*
X128578636Y-124702008D01*
X128965992Y-125089364D01*
X129472098Y-125299000D01*
X130019902Y-125299000D01*
X130526008Y-125089364D01*
X130721855Y-124893517D01*
X137916088Y-124893517D01*
X137984077Y-125134460D01*
X138503171Y-125319201D01*
X139053448Y-125291230D01*
X139431923Y-125134460D01*
X139499912Y-124893517D01*
X138708000Y-124101605D01*
X137916088Y-124893517D01*
X130721855Y-124893517D01*
X130913364Y-124702008D01*
X131123000Y-124195902D01*
X131123000Y-123717171D01*
X137310799Y-123717171D01*
X137338770Y-124267448D01*
X137495540Y-124645923D01*
X137736483Y-124713912D01*
X138528395Y-123922000D01*
X138887605Y-123922000D01*
X139679517Y-124713912D01*
X139920460Y-124645923D01*
X140105201Y-124126829D01*
X140080867Y-123648098D01*
X140331000Y-123648098D01*
X140331000Y-124195902D01*
X140540636Y-124702008D01*
X140927992Y-125089364D01*
X141434098Y-125299000D01*
X141981902Y-125299000D01*
X142488008Y-125089364D01*
X142875364Y-124702008D01*
X143085000Y-124195902D01*
X143085000Y-123648098D01*
X142875364Y-123141992D01*
X142488008Y-122754636D01*
X141981902Y-122545000D01*
X141434098Y-122545000D01*
X140927992Y-122754636D01*
X140540636Y-123141992D01*
X140331000Y-123648098D01*
X140080867Y-123648098D01*
X140077230Y-123576552D01*
X139920460Y-123198077D01*
X139679517Y-123130088D01*
X138887605Y-123922000D01*
X138528395Y-123922000D01*
X137736483Y-123130088D01*
X137495540Y-123198077D01*
X137310799Y-123717171D01*
X131123000Y-123717171D01*
X131123000Y-123648098D01*
X130913364Y-123141992D01*
X130721855Y-122950483D01*
X137916088Y-122950483D01*
X138708000Y-123742395D01*
X139499912Y-122950483D01*
X139431923Y-122709540D01*
X138912829Y-122524799D01*
X138362552Y-122552770D01*
X137984077Y-122709540D01*
X137916088Y-122950483D01*
X130721855Y-122950483D01*
X130526008Y-122754636D01*
X130019902Y-122545000D01*
X129472098Y-122545000D01*
X128965992Y-122754636D01*
X128578636Y-123141992D01*
X128369000Y-123648098D01*
X128123000Y-123648098D01*
X127913364Y-123141992D01*
X127526008Y-122754636D01*
X127479227Y-122735259D01*
X128320969Y-121893517D01*
X128954088Y-121893517D01*
X129022077Y-122134460D01*
X129541171Y-122319201D01*
X130091448Y-122291230D01*
X130469923Y-122134460D01*
X130537912Y-121893517D01*
X129746000Y-121101605D01*
X128954088Y-121893517D01*
X128320969Y-121893517D01*
X128560855Y-121653631D01*
X128774483Y-121713912D01*
X129566395Y-120922000D01*
X129552253Y-120907858D01*
X129731858Y-120728253D01*
X129746000Y-120742395D01*
X129760143Y-120728253D01*
X129939748Y-120907858D01*
X129925605Y-120922000D01*
X130717517Y-121713912D01*
X130958460Y-121645923D01*
X131143201Y-121126829D01*
X131118867Y-120648098D01*
X137331000Y-120648098D01*
X137331000Y-121195902D01*
X137540636Y-121702008D01*
X137927992Y-122089364D01*
X138434098Y-122299000D01*
X138981902Y-122299000D01*
X139488008Y-122089364D01*
X139875364Y-121702008D01*
X140085000Y-121195902D01*
X140085000Y-120648098D01*
X139875364Y-120141992D01*
X139488008Y-119754636D01*
X138981902Y-119545000D01*
X138434098Y-119545000D01*
X137927992Y-119754636D01*
X137540636Y-120141992D01*
X137331000Y-120648098D01*
X131118867Y-120648098D01*
X131115230Y-120576552D01*
X130958460Y-120198077D01*
X130724293Y-120132000D01*
X132767941Y-120132000D01*
X132842000Y-120146731D01*
X132916059Y-120132000D01*
X132916063Y-120132000D01*
X133135416Y-120088368D01*
X133384161Y-119922161D01*
X133426116Y-119859371D01*
X134337373Y-118948115D01*
X134400161Y-118906161D01*
X134566368Y-118657416D01*
X134610000Y-118438063D01*
X134610000Y-118438059D01*
X134624731Y-118364000D01*
X134610000Y-118289941D01*
X134610000Y-116800265D01*
X136224794Y-118415060D01*
X136273719Y-118488281D01*
X136346940Y-118537206D01*
X136346943Y-118537209D01*
X136482822Y-118628000D01*
X136563812Y-118682116D01*
X136819625Y-118733000D01*
X136819630Y-118733000D01*
X136906000Y-118750180D01*
X136992370Y-118733000D01*
X140410897Y-118733000D01*
X140531608Y-118783000D01*
X140900392Y-118783000D01*
X140956001Y-118759966D01*
X140956001Y-119743034D01*
X140927992Y-119754636D01*
X140540636Y-120141992D01*
X140331000Y-120648098D01*
X140331000Y-121195902D01*
X140540636Y-121702008D01*
X140927992Y-122089364D01*
X141434098Y-122299000D01*
X141981902Y-122299000D01*
X142488008Y-122089364D01*
X142875364Y-121702008D01*
X143085000Y-121195902D01*
X143085000Y-120648098D01*
X142875364Y-120141992D01*
X142488008Y-119754636D01*
X142460000Y-119743035D01*
X142460000Y-119545000D01*
X142678392Y-119545000D01*
X143019103Y-119403873D01*
X143279873Y-119143103D01*
X143421000Y-118802392D01*
X143421000Y-118433608D01*
X143279873Y-118092897D01*
X143246000Y-118059024D01*
X143246000Y-110262815D01*
X143579608Y-110401000D01*
X143948392Y-110401000D01*
X144289103Y-110259873D01*
X144322976Y-110226000D01*
X144901975Y-110226000D01*
X144869000Y-110305608D01*
X144869000Y-110674392D01*
X145010127Y-111015103D01*
X145270897Y-111275873D01*
X145611608Y-111417000D01*
X145670380Y-111417000D01*
X145823584Y-111519368D01*
X146042937Y-111563000D01*
X146042941Y-111563000D01*
X146117000Y-111577731D01*
X146191059Y-111563000D01*
X149047024Y-111563000D01*
X149080897Y-111596873D01*
X149421608Y-111738000D01*
X149790392Y-111738000D01*
X150131103Y-111596873D01*
X150391873Y-111336103D01*
X150533000Y-110995392D01*
X150533000Y-110626608D01*
X150391873Y-110285897D01*
X150331976Y-110226000D01*
X156406513Y-110226000D01*
X156807000Y-110626488D01*
X156807000Y-110674392D01*
X156948127Y-111015103D01*
X157208897Y-111275873D01*
X157549608Y-111417000D01*
X157918392Y-111417000D01*
X158259103Y-111275873D01*
X158519873Y-111015103D01*
X158661000Y-110674392D01*
X158661000Y-110305608D01*
X158519873Y-109964897D01*
X158259103Y-109704127D01*
X157918392Y-109563000D01*
X157870488Y-109563000D01*
X157302116Y-108994629D01*
X157260161Y-108931839D01*
X157011416Y-108765632D01*
X156792063Y-108722000D01*
X156792059Y-108722000D01*
X156718000Y-108707269D01*
X156643941Y-108722000D01*
X144563488Y-108722000D01*
X145678488Y-107607000D01*
X145726392Y-107607000D01*
X146067103Y-107465873D01*
X146327873Y-107205103D01*
X146469000Y-106864392D01*
X146469000Y-106495608D01*
X154775000Y-106495608D01*
X154775000Y-106864392D01*
X154916127Y-107205103D01*
X155176897Y-107465873D01*
X155517608Y-107607000D01*
X155886392Y-107607000D01*
X156227103Y-107465873D01*
X156260976Y-107432000D01*
X156643941Y-107432000D01*
X156718000Y-107446731D01*
X156792059Y-107432000D01*
X156792063Y-107432000D01*
X157011416Y-107388368D01*
X157260161Y-107222161D01*
X157302116Y-107159371D01*
X157870488Y-106591000D01*
X157918392Y-106591000D01*
X158259103Y-106449873D01*
X158519873Y-106189103D01*
X158661000Y-105848392D01*
X158661000Y-105479608D01*
X158519873Y-105138897D01*
X158259103Y-104878127D01*
X157918392Y-104737000D01*
X157549608Y-104737000D01*
X157208897Y-104878127D01*
X156948127Y-105138897D01*
X156807000Y-105479608D01*
X156807000Y-105527512D01*
X156406513Y-105928000D01*
X156260976Y-105928000D01*
X156227103Y-105894127D01*
X155886392Y-105753000D01*
X155517608Y-105753000D01*
X155176897Y-105894127D01*
X154916127Y-106154897D01*
X154775000Y-106495608D01*
X146469000Y-106495608D01*
X146327873Y-106154897D01*
X146067103Y-105894127D01*
X145726392Y-105753000D01*
X145357608Y-105753000D01*
X145139281Y-105843434D01*
X145083842Y-105709592D01*
X145136277Y-105687873D01*
X145397047Y-105427103D01*
X145538174Y-105086392D01*
X145538174Y-104717608D01*
X145397047Y-104376897D01*
X145136277Y-104116127D01*
X144795566Y-103975000D01*
X144426782Y-103975000D01*
X144086071Y-104116127D01*
X143825301Y-104376897D01*
X143814075Y-104404000D01*
X143052976Y-104404000D01*
X143019103Y-104370127D01*
X142678392Y-104229000D01*
X142309608Y-104229000D01*
X142208298Y-104270964D01*
X142327000Y-103984392D01*
X142327000Y-103615608D01*
X142185873Y-103274897D01*
X141925103Y-103014127D01*
X141584392Y-102873000D01*
X141215608Y-102873000D01*
X140874897Y-103014127D01*
X140750000Y-103139024D01*
X140725103Y-103114127D01*
X140384392Y-102973000D01*
X140015608Y-102973000D01*
X139674897Y-103114127D01*
X139414127Y-103374897D01*
X139273000Y-103715608D01*
X139273000Y-103763512D01*
X138429744Y-104606768D01*
X138193103Y-104370127D01*
X137852392Y-104229000D01*
X137483608Y-104229000D01*
X137142897Y-104370127D01*
X137109024Y-104404000D01*
X135302000Y-104404000D01*
X135302000Y-100469747D01*
X135327000Y-100409392D01*
X135327000Y-100040608D01*
X135302000Y-99980253D01*
X135302000Y-97561488D01*
X135822880Y-97040608D01*
X139748000Y-97040608D01*
X139748000Y-97409392D01*
X139889127Y-97750103D01*
X140149897Y-98010873D01*
X140490608Y-98152000D01*
X140538512Y-98152000D01*
X140940887Y-98554376D01*
X140982839Y-98617161D01*
X141045623Y-98659112D01*
X141045626Y-98659115D01*
X141216067Y-98773000D01*
X141231584Y-98783368D01*
X141450937Y-98827000D01*
X141450941Y-98827000D01*
X141525000Y-98841731D01*
X141599059Y-98827000D01*
X148116024Y-98827000D01*
X148149897Y-98860873D01*
X148490608Y-99002000D01*
X148859392Y-99002000D01*
X149200103Y-98860873D01*
X149460873Y-98600103D01*
X149602000Y-98259392D01*
X149602000Y-97890608D01*
X149460873Y-97549897D01*
X149200103Y-97289127D01*
X148859392Y-97148000D01*
X148490608Y-97148000D01*
X148149897Y-97289127D01*
X148116024Y-97323000D01*
X141836488Y-97323000D01*
X141602000Y-97088512D01*
X141602000Y-97040608D01*
X141460873Y-96699897D01*
X141200103Y-96439127D01*
X140859392Y-96298000D01*
X140490608Y-96298000D01*
X140149897Y-96439127D01*
X139889127Y-96699897D01*
X139748000Y-97040608D01*
X135822880Y-97040608D01*
X136794976Y-96068512D01*
X136839127Y-96175103D01*
X137099897Y-96435873D01*
X137440608Y-96577000D01*
X137809392Y-96577000D01*
X138150103Y-96435873D01*
X138410873Y-96175103D01*
X138552000Y-95834392D01*
X138552000Y-95465608D01*
X138452000Y-95224186D01*
X138452000Y-90608976D01*
X138485873Y-90575103D01*
X138627000Y-90234392D01*
X138627000Y-89865608D01*
X138575080Y-89740261D01*
X138800000Y-89785000D01*
X140162315Y-89785000D01*
X140140006Y-95072321D01*
X140188336Y-95318004D01*
X140325987Y-95524013D01*
X140531996Y-95661664D01*
X140775000Y-95710000D01*
X145525000Y-95710000D01*
X145768004Y-95661664D01*
X145905188Y-95570000D01*
X157019064Y-95570000D01*
X157133697Y-96146297D01*
X157460142Y-96634858D01*
X157767160Y-96840000D01*
X157460142Y-97045142D01*
X157133697Y-97533703D01*
X157019064Y-98110000D01*
X157133697Y-98686297D01*
X157460142Y-99174858D01*
X157767160Y-99380000D01*
X157460142Y-99585142D01*
X157133697Y-100073703D01*
X157019064Y-100650000D01*
X157133697Y-101226297D01*
X157460142Y-101714858D01*
X157948703Y-102041303D01*
X158379529Y-102127000D01*
X158670471Y-102127000D01*
X159101297Y-102041303D01*
X159589858Y-101714858D01*
X159916303Y-101226297D01*
X160030936Y-100650000D01*
X159916303Y-100073703D01*
X159589858Y-99585142D01*
X159282840Y-99380000D01*
X159589858Y-99174858D01*
X159916303Y-98686297D01*
X160030936Y-98110000D01*
X159916303Y-97533703D01*
X159589858Y-97045142D01*
X159282840Y-96840000D01*
X159589858Y-96634858D01*
X159916303Y-96146297D01*
X160030936Y-95570000D01*
X159916303Y-94993703D01*
X159589858Y-94505142D01*
X159268066Y-94290128D01*
X159406358Y-94225183D01*
X159796645Y-93796924D01*
X159966476Y-93386890D01*
X159845155Y-93157000D01*
X158652000Y-93157000D01*
X158652000Y-93177000D01*
X158398000Y-93177000D01*
X158398000Y-93157000D01*
X157204845Y-93157000D01*
X157083524Y-93386890D01*
X157253355Y-93796924D01*
X157643642Y-94225183D01*
X157781934Y-94290128D01*
X157460142Y-94505142D01*
X157133697Y-94993703D01*
X157019064Y-95570000D01*
X145905188Y-95570000D01*
X145974013Y-95524013D01*
X146111664Y-95318004D01*
X146160000Y-95075000D01*
X146160000Y-93150000D01*
X146111664Y-92906996D01*
X145974013Y-92700987D01*
X145768004Y-92563336D01*
X145525000Y-92515000D01*
X142453774Y-92515000D01*
X142409969Y-88068744D01*
X142361664Y-87831996D01*
X142224013Y-87625987D01*
X142018004Y-87488336D01*
X141775000Y-87440000D01*
X139473489Y-87440000D01*
X139686489Y-87227000D01*
X151040769Y-87227000D01*
X150973000Y-87390608D01*
X150973000Y-87759392D01*
X151114127Y-88100103D01*
X151374897Y-88360873D01*
X151715608Y-88502000D01*
X151763513Y-88502000D01*
X152998000Y-89736489D01*
X152998000Y-90034392D01*
X153139127Y-90375103D01*
X153399897Y-90635873D01*
X153740608Y-90777000D01*
X154109392Y-90777000D01*
X154450103Y-90635873D01*
X154595976Y-90490000D01*
X157019064Y-90490000D01*
X157133697Y-91066297D01*
X157460142Y-91554858D01*
X157781934Y-91769872D01*
X157643642Y-91834817D01*
X157253355Y-92263076D01*
X157083524Y-92673110D01*
X157204845Y-92903000D01*
X158398000Y-92903000D01*
X158398000Y-92883000D01*
X158652000Y-92883000D01*
X158652000Y-92903000D01*
X159845155Y-92903000D01*
X159966476Y-92673110D01*
X159796645Y-92263076D01*
X159406358Y-91834817D01*
X159268066Y-91769872D01*
X159589858Y-91554858D01*
X159916303Y-91066297D01*
X160030936Y-90490000D01*
X159916303Y-89913703D01*
X159589858Y-89425142D01*
X159556877Y-89403105D01*
X159619643Y-89390620D01*
X159827041Y-89252041D01*
X159965620Y-89044643D01*
X160014283Y-88800000D01*
X160014283Y-87100000D01*
X159965620Y-86855357D01*
X159827041Y-86647959D01*
X159619643Y-86509380D01*
X159375000Y-86460717D01*
X157675000Y-86460717D01*
X157430357Y-86509380D01*
X157222959Y-86647959D01*
X157084380Y-86855357D01*
X157035717Y-87100000D01*
X157035717Y-88800000D01*
X157084380Y-89044643D01*
X157222959Y-89252041D01*
X157430357Y-89390620D01*
X157493123Y-89403105D01*
X157460142Y-89425142D01*
X157133697Y-89913703D01*
X157019064Y-90490000D01*
X154595976Y-90490000D01*
X154710873Y-90375103D01*
X154852000Y-90034392D01*
X154852000Y-89861864D01*
X154975103Y-89810873D01*
X155235873Y-89550103D01*
X155377000Y-89209392D01*
X155377000Y-88840608D01*
X155235873Y-88499897D01*
X154975103Y-88239127D01*
X154634392Y-88098000D01*
X154611489Y-88098000D01*
X153740488Y-87227000D01*
X154300941Y-87227000D01*
X154375000Y-87241731D01*
X154449059Y-87227000D01*
X154449063Y-87227000D01*
X154668416Y-87183368D01*
X154917161Y-87017161D01*
X154959116Y-86954371D01*
X158951374Y-82962114D01*
X159014161Y-82920161D01*
X159180368Y-82671416D01*
X159224000Y-82452063D01*
X159224000Y-82452059D01*
X159238731Y-82378000D01*
X159224000Y-82303941D01*
X159224000Y-80848965D01*
X159252008Y-80837364D01*
X159639364Y-80450008D01*
X159849000Y-79943902D01*
X159849000Y-79396098D01*
X159639364Y-78889992D01*
X159252008Y-78502636D01*
X158745902Y-78293000D01*
X158198098Y-78293000D01*
X157691992Y-78502636D01*
X157304636Y-78889992D01*
X157095000Y-79396098D01*
X157095000Y-79943902D01*
X157304636Y-80450008D01*
X157691992Y-80837364D01*
X157720001Y-80848966D01*
X157720000Y-82066512D01*
X156224000Y-83562512D01*
X156224000Y-80848965D01*
X156252008Y-80837364D01*
X156639364Y-80450008D01*
X156849000Y-79943902D01*
X156849000Y-79396098D01*
X156639364Y-78889992D01*
X156252008Y-78502636D01*
X155745902Y-78293000D01*
X155198098Y-78293000D01*
X154691992Y-78502636D01*
X154304636Y-78889992D01*
X154095000Y-79396098D01*
X154095000Y-79943902D01*
X154304636Y-80450008D01*
X154691992Y-80837364D01*
X154720001Y-80848966D01*
X154720000Y-84246511D01*
X153893513Y-85073000D01*
X138849058Y-85073000D01*
X138774999Y-85058269D01*
X138700940Y-85073000D01*
X138700937Y-85073000D01*
X138481584Y-85116632D01*
X138295625Y-85240886D01*
X138295623Y-85240888D01*
X138232839Y-85282839D01*
X138190887Y-85345624D01*
X135845627Y-87690886D01*
X135782840Y-87732839D01*
X135740887Y-87795626D01*
X135740886Y-87795627D01*
X135616632Y-87981585D01*
X135558269Y-88275000D01*
X135573001Y-88349064D01*
X135573000Y-94563512D01*
X133938512Y-96198000D01*
X133395443Y-96198000D01*
X133385873Y-96174897D01*
X133125103Y-95914127D01*
X132784392Y-95773000D01*
X132415608Y-95773000D01*
X132234542Y-95848000D01*
X125858976Y-95848000D01*
X125775103Y-95764127D01*
X125434392Y-95623000D01*
X125065608Y-95623000D01*
X124724897Y-95764127D01*
X124476256Y-96012768D01*
X114302000Y-85838513D01*
X114302000Y-82215608D01*
X115673000Y-82215608D01*
X115673000Y-82584392D01*
X115814127Y-82925103D01*
X116074897Y-83185873D01*
X116415608Y-83327000D01*
X116784392Y-83327000D01*
X117125103Y-83185873D01*
X117158976Y-83152000D01*
X117925941Y-83152000D01*
X118000000Y-83166731D01*
X118074059Y-83152000D01*
X118074063Y-83152000D01*
X118293416Y-83108368D01*
X118542161Y-82942161D01*
X118584116Y-82879371D01*
X120679374Y-80784114D01*
X120742161Y-80742161D01*
X120745216Y-80737588D01*
X120844992Y-80837364D01*
X121351098Y-81047000D01*
X121898902Y-81047000D01*
X122405008Y-80837364D01*
X122792364Y-80450008D01*
X123002000Y-79943902D01*
X123002000Y-79396098D01*
X129998000Y-79396098D01*
X129998000Y-79943902D01*
X130207636Y-80450008D01*
X130594992Y-80837364D01*
X131101098Y-81047000D01*
X131648902Y-81047000D01*
X132155008Y-80837364D01*
X132542364Y-80450008D01*
X132752000Y-79943902D01*
X132752000Y-79396098D01*
X132998000Y-79396098D01*
X132998000Y-79943902D01*
X133207636Y-80450008D01*
X133594992Y-80837364D01*
X134101098Y-81047000D01*
X134648902Y-81047000D01*
X135155008Y-80837364D01*
X135325403Y-80666969D01*
X135339127Y-80700103D01*
X135599897Y-80960873D01*
X135940608Y-81102000D01*
X136309392Y-81102000D01*
X136650103Y-80960873D01*
X136910873Y-80700103D01*
X137052000Y-80359392D01*
X137052000Y-79990608D01*
X136936804Y-79712500D01*
X137052000Y-79434392D01*
X137052000Y-79396098D01*
X142157000Y-79396098D01*
X142157000Y-79943902D01*
X142366636Y-80450008D01*
X142753992Y-80837364D01*
X143260098Y-81047000D01*
X143807902Y-81047000D01*
X144314008Y-80837364D01*
X144701364Y-80450008D01*
X144911000Y-79943902D01*
X144911000Y-79396098D01*
X145157000Y-79396098D01*
X145157000Y-79943902D01*
X145366636Y-80450008D01*
X145753992Y-80837364D01*
X146260098Y-81047000D01*
X146807902Y-81047000D01*
X147314008Y-80837364D01*
X147701364Y-80450008D01*
X147911000Y-79943902D01*
X147911000Y-79396098D01*
X147701364Y-78889992D01*
X147314008Y-78502636D01*
X146807902Y-78293000D01*
X146260098Y-78293000D01*
X145753992Y-78502636D01*
X145366636Y-78889992D01*
X145157000Y-79396098D01*
X144911000Y-79396098D01*
X144701364Y-78889992D01*
X144314008Y-78502636D01*
X143807902Y-78293000D01*
X143260098Y-78293000D01*
X142753992Y-78502636D01*
X142366636Y-78889992D01*
X142157000Y-79396098D01*
X137052000Y-79396098D01*
X137052000Y-79065608D01*
X136910873Y-78724897D01*
X136650103Y-78464127D01*
X136309392Y-78323000D01*
X135940608Y-78323000D01*
X135599897Y-78464127D01*
X135358198Y-78705826D01*
X135155008Y-78502636D01*
X134648902Y-78293000D01*
X134101098Y-78293000D01*
X133594992Y-78502636D01*
X133207636Y-78889992D01*
X132998000Y-79396098D01*
X132752000Y-79396098D01*
X132542364Y-78889992D01*
X132155008Y-78502636D01*
X131648902Y-78293000D01*
X131101098Y-78293000D01*
X130594992Y-78502636D01*
X130207636Y-78889992D01*
X129998000Y-79396098D01*
X123002000Y-79396098D01*
X122792364Y-78889992D01*
X122405008Y-78502636D01*
X121898902Y-78293000D01*
X121351098Y-78293000D01*
X120952000Y-78458312D01*
X120952000Y-78406487D01*
X121323089Y-78035398D01*
X121351098Y-78047000D01*
X121898902Y-78047000D01*
X122405008Y-77837364D01*
X122600855Y-77641517D01*
X130583088Y-77641517D01*
X130651077Y-77882460D01*
X131170171Y-78067201D01*
X131720448Y-78039230D01*
X132098923Y-77882460D01*
X132166912Y-77641517D01*
X133583088Y-77641517D01*
X133651077Y-77882460D01*
X134170171Y-78067201D01*
X134720448Y-78039230D01*
X135098923Y-77882460D01*
X135166912Y-77641517D01*
X134375000Y-76849605D01*
X133583088Y-77641517D01*
X132166912Y-77641517D01*
X131375000Y-76849605D01*
X130583088Y-77641517D01*
X122600855Y-77641517D01*
X122792364Y-77450008D01*
X123002000Y-76943902D01*
X123002000Y-76465171D01*
X129977799Y-76465171D01*
X130005770Y-77015448D01*
X130162540Y-77393923D01*
X130403483Y-77461912D01*
X131195395Y-76670000D01*
X131554605Y-76670000D01*
X132346517Y-77461912D01*
X132587460Y-77393923D01*
X132772201Y-76874829D01*
X132751378Y-76465171D01*
X132977799Y-76465171D01*
X133005770Y-77015448D01*
X133162540Y-77393923D01*
X133403483Y-77461912D01*
X134195395Y-76670000D01*
X134554605Y-76670000D01*
X135346517Y-77461912D01*
X135587460Y-77393923D01*
X135772201Y-76874829D01*
X135747867Y-76396098D01*
X142157000Y-76396098D01*
X142157000Y-76943902D01*
X142366636Y-77450008D01*
X142753992Y-77837364D01*
X143260098Y-78047000D01*
X143807902Y-78047000D01*
X144314008Y-77837364D01*
X144509855Y-77641517D01*
X145742088Y-77641517D01*
X145810077Y-77882460D01*
X146329171Y-78067201D01*
X146879448Y-78039230D01*
X147257923Y-77882460D01*
X147325912Y-77641517D01*
X146534000Y-76849605D01*
X145742088Y-77641517D01*
X144509855Y-77641517D01*
X144701364Y-77450008D01*
X144911000Y-76943902D01*
X144911000Y-76465171D01*
X145136799Y-76465171D01*
X145164770Y-77015448D01*
X145321540Y-77393923D01*
X145562483Y-77461912D01*
X146354395Y-76670000D01*
X146713605Y-76670000D01*
X147505517Y-77461912D01*
X147746460Y-77393923D01*
X147931201Y-76874829D01*
X147906867Y-76396098D01*
X154095000Y-76396098D01*
X154095000Y-76943902D01*
X154304636Y-77450008D01*
X154691992Y-77837364D01*
X155198098Y-78047000D01*
X155745902Y-78047000D01*
X156252008Y-77837364D01*
X156447855Y-77641517D01*
X157680088Y-77641517D01*
X157748077Y-77882460D01*
X158267171Y-78067201D01*
X158817448Y-78039230D01*
X159195923Y-77882460D01*
X159263912Y-77641517D01*
X158472000Y-76849605D01*
X157680088Y-77641517D01*
X156447855Y-77641517D01*
X156639364Y-77450008D01*
X156849000Y-76943902D01*
X156849000Y-76465171D01*
X157074799Y-76465171D01*
X157102770Y-77015448D01*
X157259540Y-77393923D01*
X157500483Y-77461912D01*
X158292395Y-76670000D01*
X158651605Y-76670000D01*
X159443517Y-77461912D01*
X159684460Y-77393923D01*
X159869201Y-76874829D01*
X159841230Y-76324552D01*
X159684460Y-75946077D01*
X159443517Y-75878088D01*
X158651605Y-76670000D01*
X158292395Y-76670000D01*
X157500483Y-75878088D01*
X157259540Y-75946077D01*
X157074799Y-76465171D01*
X156849000Y-76465171D01*
X156849000Y-76396098D01*
X156639364Y-75889992D01*
X156447855Y-75698483D01*
X157680088Y-75698483D01*
X158472000Y-76490395D01*
X159263912Y-75698483D01*
X159195923Y-75457540D01*
X158676829Y-75272799D01*
X158126552Y-75300770D01*
X157748077Y-75457540D01*
X157680088Y-75698483D01*
X156447855Y-75698483D01*
X156252008Y-75502636D01*
X155745902Y-75293000D01*
X155198098Y-75293000D01*
X154691992Y-75502636D01*
X154304636Y-75889992D01*
X154095000Y-76396098D01*
X147906867Y-76396098D01*
X147903230Y-76324552D01*
X147746460Y-75946077D01*
X147505517Y-75878088D01*
X146713605Y-76670000D01*
X146354395Y-76670000D01*
X145562483Y-75878088D01*
X145321540Y-75946077D01*
X145136799Y-76465171D01*
X144911000Y-76465171D01*
X144911000Y-76396098D01*
X144701364Y-75889992D01*
X144509855Y-75698483D01*
X145742088Y-75698483D01*
X146534000Y-76490395D01*
X147325912Y-75698483D01*
X147257923Y-75457540D01*
X146738829Y-75272799D01*
X146188552Y-75300770D01*
X145810077Y-75457540D01*
X145742088Y-75698483D01*
X144509855Y-75698483D01*
X144314008Y-75502636D01*
X143807902Y-75293000D01*
X143260098Y-75293000D01*
X142753992Y-75502636D01*
X142366636Y-75889992D01*
X142157000Y-76396098D01*
X135747867Y-76396098D01*
X135744230Y-76324552D01*
X135587460Y-75946077D01*
X135346517Y-75878088D01*
X134554605Y-76670000D01*
X134195395Y-76670000D01*
X133403483Y-75878088D01*
X133162540Y-75946077D01*
X132977799Y-76465171D01*
X132751378Y-76465171D01*
X132744230Y-76324552D01*
X132587460Y-75946077D01*
X132346517Y-75878088D01*
X131554605Y-76670000D01*
X131195395Y-76670000D01*
X130403483Y-75878088D01*
X130162540Y-75946077D01*
X129977799Y-76465171D01*
X123002000Y-76465171D01*
X123002000Y-76396098D01*
X122792364Y-75889992D01*
X122600855Y-75698483D01*
X130583088Y-75698483D01*
X131375000Y-76490395D01*
X132166912Y-75698483D01*
X133583088Y-75698483D01*
X134375000Y-76490395D01*
X135166912Y-75698483D01*
X135098923Y-75457540D01*
X134579829Y-75272799D01*
X134029552Y-75300770D01*
X133651077Y-75457540D01*
X133583088Y-75698483D01*
X132166912Y-75698483D01*
X132098923Y-75457540D01*
X131579829Y-75272799D01*
X131029552Y-75300770D01*
X130651077Y-75457540D01*
X130583088Y-75698483D01*
X122600855Y-75698483D01*
X122405008Y-75502636D01*
X121898902Y-75293000D01*
X121351098Y-75293000D01*
X120844992Y-75502636D01*
X120457636Y-75889992D01*
X120248000Y-76396098D01*
X120248000Y-76943902D01*
X120259602Y-76971911D01*
X119800043Y-77431470D01*
X120002000Y-76943902D01*
X120002000Y-76396098D01*
X119792364Y-75889992D01*
X119405008Y-75502636D01*
X118898902Y-75293000D01*
X118351098Y-75293000D01*
X117844992Y-75502636D01*
X117457636Y-75889992D01*
X117248000Y-76396098D01*
X117248000Y-76943902D01*
X117457636Y-77450008D01*
X117844992Y-77837364D01*
X118351098Y-78047000D01*
X118898902Y-78047000D01*
X119405008Y-77837364D01*
X119594019Y-77648353D01*
X119491632Y-77801585D01*
X119433269Y-78095000D01*
X119448001Y-78169064D01*
X119448001Y-78667391D01*
X119416911Y-78698481D01*
X119348923Y-78457540D01*
X118829829Y-78272799D01*
X118279552Y-78300770D01*
X117901077Y-78457540D01*
X117833088Y-78698483D01*
X118625000Y-79490395D01*
X118639143Y-79476253D01*
X118818748Y-79655858D01*
X118804605Y-79670000D01*
X118818748Y-79684143D01*
X118639143Y-79863748D01*
X118625000Y-79849605D01*
X117833088Y-80641517D01*
X117901077Y-80882460D01*
X118308909Y-81027604D01*
X117688513Y-81648000D01*
X117158976Y-81648000D01*
X117125103Y-81614127D01*
X116784392Y-81473000D01*
X116415608Y-81473000D01*
X116074897Y-81614127D01*
X115814127Y-81874897D01*
X115673000Y-82215608D01*
X114302000Y-82215608D01*
X114302000Y-80641517D01*
X114833088Y-80641517D01*
X114901077Y-80882460D01*
X115420171Y-81067201D01*
X115970448Y-81039230D01*
X116348923Y-80882460D01*
X116416912Y-80641517D01*
X115625000Y-79849605D01*
X114833088Y-80641517D01*
X114302000Y-80641517D01*
X114302000Y-80127057D01*
X114412540Y-80393923D01*
X114653483Y-80461912D01*
X115445395Y-79670000D01*
X115804605Y-79670000D01*
X116596517Y-80461912D01*
X116837460Y-80393923D01*
X117022201Y-79874829D01*
X117001378Y-79465171D01*
X117227799Y-79465171D01*
X117255770Y-80015448D01*
X117412540Y-80393923D01*
X117653483Y-80461912D01*
X118445395Y-79670000D01*
X117653483Y-78878088D01*
X117412540Y-78946077D01*
X117227799Y-79465171D01*
X117001378Y-79465171D01*
X116994230Y-79324552D01*
X116837460Y-78946077D01*
X116596517Y-78878088D01*
X115804605Y-79670000D01*
X115445395Y-79670000D01*
X115431253Y-79655858D01*
X115610858Y-79476253D01*
X115625000Y-79490395D01*
X116416912Y-78698483D01*
X116348923Y-78457540D01*
X115829829Y-78272799D01*
X115279552Y-78300770D01*
X114901077Y-78457540D01*
X114833089Y-78698481D01*
X114746548Y-78611940D01*
X115323089Y-78035398D01*
X115351098Y-78047000D01*
X115898902Y-78047000D01*
X116405008Y-77837364D01*
X116792364Y-77450008D01*
X117002000Y-76943902D01*
X117002000Y-76396098D01*
X116792364Y-75889992D01*
X116405008Y-75502636D01*
X115898902Y-75293000D01*
X115351098Y-75293000D01*
X114844992Y-75502636D01*
X114457636Y-75889992D01*
X114248000Y-76396098D01*
X114248000Y-76943902D01*
X114259602Y-76971911D01*
X113070627Y-78160886D01*
X113007840Y-78202839D01*
X112965887Y-78265626D01*
X112965886Y-78265627D01*
X112841632Y-78451585D01*
X112783269Y-78745000D01*
X112798001Y-78819064D01*
X112798000Y-86075941D01*
X112783269Y-86150000D01*
X112798000Y-86224059D01*
X112798000Y-86224062D01*
X112841632Y-86443415D01*
X113007839Y-86692161D01*
X113070629Y-86734116D01*
X118759512Y-92423000D01*
X118415608Y-92423000D01*
X118074897Y-92564127D01*
X118041024Y-92598000D01*
X116258976Y-92598000D01*
X116225103Y-92564127D01*
X115884392Y-92423000D01*
X115515608Y-92423000D01*
X115174897Y-92564127D01*
X114914127Y-92824897D01*
X114773000Y-93165608D01*
X114773000Y-93534392D01*
X114914127Y-93875103D01*
X115174897Y-94135873D01*
X115515608Y-94277000D01*
X115884392Y-94277000D01*
X116225103Y-94135873D01*
X116258976Y-94102000D01*
X118041024Y-94102000D01*
X118074897Y-94135873D01*
X118415608Y-94277000D01*
X118784392Y-94277000D01*
X119125103Y-94135873D01*
X119385873Y-93875103D01*
X119527000Y-93534392D01*
X119527000Y-93190488D01*
X122534512Y-96198000D01*
X120525000Y-96198000D01*
X120285057Y-96245728D01*
X120081644Y-96381644D01*
X119945728Y-96585057D01*
X119898000Y-96825000D01*
X119898000Y-97825000D01*
X119945728Y-98064943D01*
X120081644Y-98268356D01*
X120285057Y-98404272D01*
X120525000Y-98452000D01*
X123721715Y-98452000D01*
X123814127Y-98675103D01*
X124074897Y-98935873D01*
X124415608Y-99077000D01*
X124784392Y-99077000D01*
X125125103Y-98935873D01*
X125385873Y-98675103D01*
X125478285Y-98452000D01*
X126756001Y-98452000D01*
X126756000Y-99764512D01*
X126602082Y-99918430D01*
X126422392Y-99844000D01*
X126053608Y-99844000D01*
X125712897Y-99985127D01*
X125452127Y-100245897D01*
X125311000Y-100586608D01*
X125311000Y-100955392D01*
X125452127Y-101296103D01*
X125512024Y-101356000D01*
X122739488Y-101356000D01*
X122652000Y-101268513D01*
X122652000Y-101008976D01*
X122685873Y-100975103D01*
X122827000Y-100634392D01*
X122827000Y-100265608D01*
X122685873Y-99924897D01*
X122425103Y-99664127D01*
X122084392Y-99523000D01*
X121715608Y-99523000D01*
X121374897Y-99664127D01*
X121114127Y-99924897D01*
X120973000Y-100265608D01*
X120973000Y-100423000D01*
X120865608Y-100423000D01*
X120524897Y-100564127D01*
X120264127Y-100824897D01*
X120123000Y-101165608D01*
X120123000Y-101534392D01*
X120264127Y-101875103D01*
X120313059Y-101924035D01*
X120341632Y-102067680D01*
X120507840Y-102316425D01*
X120570627Y-102358378D01*
X121307623Y-103095376D01*
X121349575Y-103158161D01*
X121412359Y-103200112D01*
X121412361Y-103200114D01*
X121474979Y-103241954D01*
X121598320Y-103324368D01*
X121817673Y-103368000D01*
X121817677Y-103368000D01*
X121891735Y-103382731D01*
X121965793Y-103368000D01*
X129109941Y-103368000D01*
X129184000Y-103382731D01*
X129258059Y-103368000D01*
X129258063Y-103368000D01*
X129477416Y-103324368D01*
X129726161Y-103158161D01*
X129768116Y-103095371D01*
X131398000Y-101465487D01*
X131398000Y-104404000D01*
X130269060Y-104404000D01*
X130195001Y-104389269D01*
X130120942Y-104404000D01*
X130120939Y-104404000D01*
X129901586Y-104447632D01*
X129652841Y-104613839D01*
X129610887Y-104676627D01*
X128089515Y-106198000D01*
X122852210Y-106198000D01*
X122726526Y-106173000D01*
X122033976Y-106173000D01*
X122025103Y-106164127D01*
X121684392Y-106023000D01*
X121315608Y-106023000D01*
X120974897Y-106164127D01*
X120875000Y-106264024D01*
X120775103Y-106164127D01*
X120434392Y-106023000D01*
X120065608Y-106023000D01*
X119724897Y-106164127D01*
X119691024Y-106198000D01*
X116761488Y-106198000D01*
X116652000Y-106088512D01*
X116652000Y-97174059D01*
X116666731Y-97100000D01*
X116652000Y-97025941D01*
X116652000Y-97025937D01*
X116608368Y-96806584D01*
X116560131Y-96734392D01*
X116484115Y-96620626D01*
X116484112Y-96620623D01*
X116442161Y-96557839D01*
X116379376Y-96515887D01*
X110984116Y-91120629D01*
X110942161Y-91057839D01*
X110693416Y-90891632D01*
X110474063Y-90848000D01*
X110474059Y-90848000D01*
X110400000Y-90833269D01*
X110325941Y-90848000D01*
X106911488Y-90848000D01*
X105827000Y-89763513D01*
X105827000Y-89715608D01*
X105685873Y-89374897D01*
X105425103Y-89114127D01*
X105084392Y-88973000D01*
X104715608Y-88973000D01*
X104374897Y-89114127D01*
X104114127Y-89374897D01*
X104004075Y-89640587D01*
X103927000Y-89563513D01*
X103927000Y-89515608D01*
X103785873Y-89174897D01*
X103525103Y-88914127D01*
X103184392Y-88773000D01*
X102815608Y-88773000D01*
X102474897Y-88914127D01*
X102214127Y-89174897D01*
X102073000Y-89515608D01*
X102073000Y-89884392D01*
X102214127Y-90225103D01*
X102474897Y-90485873D01*
X102815608Y-90627000D01*
X102863513Y-90627000D01*
X104765885Y-92529373D01*
X104807839Y-92592161D01*
X105056584Y-92758368D01*
X105275937Y-92802000D01*
X105275941Y-92802000D01*
X105350000Y-92816731D01*
X105424059Y-92802000D01*
X109788513Y-92802000D01*
X113387768Y-96401256D01*
X113214127Y-96574897D01*
X113073000Y-96915608D01*
X113073000Y-97284392D01*
X113214127Y-97625103D01*
X113248001Y-97658977D01*
X113248000Y-99641024D01*
X113164127Y-99724897D01*
X113023000Y-100065608D01*
X113023000Y-100434392D01*
X113164127Y-100775103D01*
X113424897Y-101035873D01*
X113765608Y-101177000D01*
X114134392Y-101177000D01*
X114475103Y-101035873D01*
X114498001Y-101012975D01*
X114498000Y-106675941D01*
X114483269Y-106750000D01*
X114498000Y-106824059D01*
X114498000Y-106824062D01*
X114541632Y-107043415D01*
X114707839Y-107292161D01*
X114770629Y-107334116D01*
X115515887Y-108079376D01*
X115557839Y-108142161D01*
X115620623Y-108184112D01*
X115620626Y-108184115D01*
X115754562Y-108273608D01*
X115806584Y-108308368D01*
X116025937Y-108352000D01*
X116025941Y-108352000D01*
X116100000Y-108366731D01*
X116174059Y-108352000D01*
X116641024Y-108352000D01*
X116674897Y-108385873D01*
X117015608Y-108527000D01*
X117384392Y-108527000D01*
X117725103Y-108385873D01*
X117985873Y-108125103D01*
X118127000Y-107784392D01*
X118127000Y-107702000D01*
X119691024Y-107702000D01*
X119724897Y-107735873D01*
X120065608Y-107877000D01*
X120434392Y-107877000D01*
X120775103Y-107735873D01*
X120875000Y-107635976D01*
X120974897Y-107735873D01*
X121315608Y-107877000D01*
X121684392Y-107877000D01*
X122025103Y-107735873D01*
X122033976Y-107727000D01*
X122726526Y-107727000D01*
X122852210Y-107702000D01*
X128326943Y-107702000D01*
X128401002Y-107716731D01*
X128475061Y-107702000D01*
X128475065Y-107702000D01*
X128694418Y-107658368D01*
X128943163Y-107492161D01*
X128985118Y-107429371D01*
X130506490Y-105908000D01*
X131398000Y-105908000D01*
X131398000Y-112198000D01*
X130719487Y-112198000D01*
X129784000Y-111262513D01*
X129784000Y-110286976D01*
X129817873Y-110253103D01*
X129959000Y-109912392D01*
X129959000Y-109543608D01*
X129817873Y-109202897D01*
X129557103Y-108942127D01*
X129216392Y-108801000D01*
X128847608Y-108801000D01*
X128506897Y-108942127D01*
X128246127Y-109202897D01*
X128105000Y-109543608D01*
X128105000Y-109912392D01*
X128246127Y-110253103D01*
X128280000Y-110286976D01*
X128280001Y-111499937D01*
X128265269Y-111574000D01*
X128323632Y-111867415D01*
X128421578Y-112014000D01*
X128489840Y-112116161D01*
X128552627Y-112158114D01*
X128592513Y-112198000D01*
X121890976Y-112198000D01*
X121683103Y-111990127D01*
X121342392Y-111849000D01*
X120973608Y-111849000D01*
X120632897Y-111990127D01*
X120425024Y-112198000D01*
X120053000Y-112198000D01*
X120053000Y-111829608D01*
X119911873Y-111488897D01*
X119651103Y-111228127D01*
X119310392Y-111087000D01*
X118941608Y-111087000D01*
X118600897Y-111228127D01*
X118340127Y-111488897D01*
X118199000Y-111829608D01*
X118199000Y-111877511D01*
X117878511Y-112198000D01*
X115802000Y-112198000D01*
X115802000Y-110575000D01*
X115754272Y-110335057D01*
X115618356Y-110131644D01*
X115414943Y-109995728D01*
X115175000Y-109948000D01*
X113875000Y-109948000D01*
X113635057Y-109995728D01*
X113431644Y-110131644D01*
X113295728Y-110335057D01*
X113248000Y-110575000D01*
X113248000Y-113575000D01*
X113295728Y-113814943D01*
X113431644Y-114018356D01*
X113635057Y-114154272D01*
X113875000Y-114202000D01*
X115874512Y-114202000D01*
X111956513Y-118120000D01*
X97078976Y-118120000D01*
X97045103Y-118086127D01*
X96704392Y-117945000D01*
X96335608Y-117945000D01*
X95994897Y-118086127D01*
X95734127Y-118346897D01*
X95593000Y-118687608D01*
X95593000Y-119056392D01*
X95734127Y-119397103D01*
X95994897Y-119657873D01*
X96335608Y-119799000D01*
X96704392Y-119799000D01*
X97045103Y-119657873D01*
X97078976Y-119624000D01*
X98434628Y-119624000D01*
X98170636Y-119887992D01*
X97961000Y-120394098D01*
X97961000Y-120941902D01*
X98170636Y-121448008D01*
X98273628Y-121551000D01*
X93073265Y-121551000D01*
X90031000Y-118508736D01*
X90031000Y-106495608D01*
X94577000Y-106495608D01*
X94577000Y-106864392D01*
X94718127Y-107205103D01*
X94978897Y-107465873D01*
X95319608Y-107607000D01*
X95367513Y-107607000D01*
X96697885Y-108937373D01*
X96739839Y-109000161D01*
X96988584Y-109166368D01*
X97207937Y-109210000D01*
X97207941Y-109210000D01*
X97236755Y-109215731D01*
X97264897Y-109243873D01*
X97605608Y-109385000D01*
X97918741Y-109385000D01*
X97873068Y-112490780D01*
X97920728Y-112739943D01*
X98056644Y-112943356D01*
X98260057Y-113079272D01*
X98500000Y-113127000D01*
X100500000Y-113127000D01*
X100731399Y-113082738D01*
X100936789Y-112949827D01*
X101075682Y-112748434D01*
X101126932Y-112509220D01*
X101160126Y-110252000D01*
X105274063Y-110252000D01*
X105493416Y-110208368D01*
X105742161Y-110042161D01*
X105908368Y-109793416D01*
X105966732Y-109500000D01*
X105908368Y-109206584D01*
X105742161Y-108957839D01*
X105493416Y-108791632D01*
X105274063Y-108748000D01*
X101054398Y-108748000D01*
X100993356Y-108656644D01*
X100789943Y-108520728D01*
X100550000Y-108473000D01*
X98717000Y-108473000D01*
X98717000Y-108273608D01*
X98575873Y-107932897D01*
X98315103Y-107672127D01*
X97974392Y-107531000D01*
X97605608Y-107531000D01*
X97473294Y-107585806D01*
X96431000Y-106543513D01*
X96431000Y-106495608D01*
X96289873Y-106154897D01*
X96029103Y-105894127D01*
X95688392Y-105753000D01*
X95319608Y-105753000D01*
X94978897Y-105894127D01*
X94718127Y-106154897D01*
X94577000Y-106495608D01*
X90031000Y-106495608D01*
X90031000Y-98140608D01*
X103748000Y-98140608D01*
X103748000Y-98509392D01*
X103889127Y-98850103D01*
X104149897Y-99110873D01*
X104490608Y-99252000D01*
X104523001Y-99252000D01*
X104523000Y-102874062D01*
X104523001Y-102874067D01*
X104523000Y-105250941D01*
X104508269Y-105325000D01*
X104523000Y-105399059D01*
X104523000Y-105399062D01*
X104566632Y-105618415D01*
X104732839Y-105867161D01*
X104795629Y-105909116D01*
X106615885Y-107729373D01*
X106657839Y-107792161D01*
X106906584Y-107958368D01*
X107125937Y-108002000D01*
X107125940Y-108002000D01*
X107199999Y-108016731D01*
X107274058Y-108002000D01*
X111375941Y-108002000D01*
X111450000Y-108016731D01*
X111524059Y-108002000D01*
X111524063Y-108002000D01*
X111743416Y-107958368D01*
X111992161Y-107792161D01*
X112034116Y-107729371D01*
X113386489Y-106377000D01*
X113434392Y-106377000D01*
X113775103Y-106235873D01*
X114035873Y-105975103D01*
X114177000Y-105634392D01*
X114177000Y-105265608D01*
X114035873Y-104924897D01*
X113775103Y-104664127D01*
X113584931Y-104585355D01*
X113825103Y-104485873D01*
X114085873Y-104225103D01*
X114227000Y-103884392D01*
X114227000Y-103515608D01*
X114085873Y-103174897D01*
X113825103Y-102914127D01*
X113805124Y-102905852D01*
X113835873Y-102875103D01*
X113977000Y-102534392D01*
X113977000Y-102165608D01*
X113835873Y-101824897D01*
X113575103Y-101564127D01*
X113234392Y-101423000D01*
X112865608Y-101423000D01*
X112524897Y-101564127D01*
X112264127Y-101824897D01*
X112123000Y-102165608D01*
X112123000Y-102248867D01*
X111750694Y-102621174D01*
X111634392Y-102573000D01*
X111265608Y-102573000D01*
X110924897Y-102714127D01*
X110664127Y-102974897D01*
X110523000Y-103315608D01*
X110523000Y-103684392D01*
X110664127Y-104025103D01*
X110924897Y-104285873D01*
X111265608Y-104427000D01*
X111509513Y-104427000D01*
X110820629Y-105115884D01*
X110757839Y-105157839D01*
X110591632Y-105406584D01*
X110581499Y-105457525D01*
X110514127Y-105524897D01*
X110373000Y-105865608D01*
X110373000Y-106234392D01*
X110482190Y-106498000D01*
X107511488Y-106498000D01*
X106027000Y-105013513D01*
X106027000Y-98999058D01*
X106041731Y-98924999D01*
X106027000Y-98850940D01*
X106027000Y-98850937D01*
X105983368Y-98631584D01*
X105817161Y-98382839D01*
X105754373Y-98340885D01*
X105629096Y-98215608D01*
X106123000Y-98215608D01*
X106123000Y-98584392D01*
X106264127Y-98925103D01*
X106524897Y-99185873D01*
X106865608Y-99327000D01*
X106913512Y-99327000D01*
X107498001Y-99911489D01*
X107498000Y-100191024D01*
X107464127Y-100224897D01*
X107323000Y-100565608D01*
X107323000Y-100934392D01*
X107464127Y-101275103D01*
X107498000Y-101308976D01*
X107498001Y-101816023D01*
X107439127Y-101874897D01*
X107298000Y-102215608D01*
X107298000Y-102584392D01*
X107439127Y-102925103D01*
X107699897Y-103185873D01*
X108040608Y-103327000D01*
X108409392Y-103327000D01*
X108750103Y-103185873D01*
X109010873Y-102925103D01*
X109152000Y-102584392D01*
X109152000Y-102215608D01*
X109010873Y-101874897D01*
X108952000Y-101816024D01*
X108952000Y-101358976D01*
X109035873Y-101275103D01*
X109177000Y-100934392D01*
X109177000Y-100565608D01*
X109035873Y-100224897D01*
X109002000Y-100191024D01*
X109002000Y-99674058D01*
X109016731Y-99599999D01*
X109002000Y-99525940D01*
X109002000Y-99525937D01*
X108958368Y-99306584D01*
X108869110Y-99173000D01*
X108834114Y-99120625D01*
X108834112Y-99120623D01*
X108792161Y-99057839D01*
X108729376Y-99015887D01*
X107977000Y-98263512D01*
X107977000Y-98215608D01*
X107835873Y-97874897D01*
X107575103Y-97614127D01*
X107234392Y-97473000D01*
X106865608Y-97473000D01*
X106524897Y-97614127D01*
X106264127Y-97874897D01*
X106123000Y-98215608D01*
X105629096Y-98215608D01*
X105602000Y-98188512D01*
X105602000Y-98140608D01*
X105460873Y-97799897D01*
X105200103Y-97539127D01*
X104859392Y-97398000D01*
X104490608Y-97398000D01*
X104149897Y-97539127D01*
X103889127Y-97799897D01*
X103748000Y-98140608D01*
X90031000Y-98140608D01*
X90031000Y-81899610D01*
X97371000Y-81899610D01*
X97371000Y-82268394D01*
X97512127Y-82609105D01*
X97772897Y-82869875D01*
X97893610Y-82919876D01*
X100132793Y-85159061D01*
X100181718Y-85232282D01*
X100254939Y-85281207D01*
X100254942Y-85281210D01*
X100407685Y-85383269D01*
X100471811Y-85426117D01*
X100727624Y-85477001D01*
X100727629Y-85477001D01*
X100813999Y-85494181D01*
X100900369Y-85477001D01*
X101399631Y-85477001D01*
X101486001Y-85494181D01*
X101572371Y-85477001D01*
X101572376Y-85477001D01*
X101828189Y-85426117D01*
X102118282Y-85232282D01*
X102167211Y-85159055D01*
X104915267Y-82411000D01*
X108625630Y-82411000D01*
X108712000Y-82428180D01*
X108798370Y-82411000D01*
X108798375Y-82411000D01*
X109054188Y-82360116D01*
X109344281Y-82166281D01*
X109393210Y-82093054D01*
X111148393Y-80337873D01*
X111269103Y-80287873D01*
X111529873Y-80027103D01*
X111671000Y-79686392D01*
X111671000Y-79317608D01*
X111529873Y-78976897D01*
X111269103Y-78716127D01*
X110928392Y-78575000D01*
X110559608Y-78575000D01*
X110218897Y-78716127D01*
X109958127Y-78976897D01*
X109908127Y-79097607D01*
X109195855Y-79809879D01*
X108950103Y-79564127D01*
X108609392Y-79423000D01*
X108561488Y-79423000D01*
X107259116Y-78120629D01*
X107217161Y-78057839D01*
X106968416Y-77891632D01*
X106749063Y-77848000D01*
X106749059Y-77848000D01*
X106675000Y-77833269D01*
X106600941Y-77848000D01*
X104533976Y-77848000D01*
X104500103Y-77814127D01*
X104159392Y-77673000D01*
X103908976Y-77673000D01*
X103750103Y-77514127D01*
X103409392Y-77373000D01*
X103040608Y-77373000D01*
X102699897Y-77514127D01*
X102666024Y-77548000D01*
X102624058Y-77548000D01*
X102549999Y-77533269D01*
X102475940Y-77548000D01*
X102475937Y-77548000D01*
X102256584Y-77591632D01*
X102070625Y-77715886D01*
X102070623Y-77715888D01*
X102007839Y-77757839D01*
X101965887Y-77820624D01*
X100720627Y-79065886D01*
X100657840Y-79107839D01*
X100615887Y-79170626D01*
X100615886Y-79170627D01*
X100491632Y-79356585D01*
X100433269Y-79650000D01*
X100448001Y-79724064D01*
X100448000Y-82993737D01*
X99133874Y-81679612D01*
X99083873Y-81558899D01*
X98823103Y-81298129D01*
X98482392Y-81157002D01*
X98113608Y-81157002D01*
X97772897Y-81298129D01*
X97512127Y-81558899D01*
X97371000Y-81899610D01*
X90031000Y-81899610D01*
X90031000Y-80627264D01*
X91549266Y-79109000D01*
X93928897Y-79109000D01*
X94049608Y-79159000D01*
X94418392Y-79159000D01*
X94759103Y-79017873D01*
X95019873Y-78757103D01*
X95161000Y-78416392D01*
X95161000Y-78047608D01*
X95019873Y-77706897D01*
X94759103Y-77446127D01*
X94418392Y-77305000D01*
X94049608Y-77305000D01*
X93928897Y-77355000D01*
X91272370Y-77355000D01*
X91186000Y-77337820D01*
X91099630Y-77355000D01*
X91099625Y-77355000D01*
X90843812Y-77405884D01*
X90843810Y-77405885D01*
X90843811Y-77405885D01*
X90626943Y-77550791D01*
X90626940Y-77550794D01*
X90553719Y-77599719D01*
X90504794Y-77672940D01*
X88594946Y-79582790D01*
X88521719Y-79631719D01*
X88327884Y-79921813D01*
X88277000Y-80177626D01*
X88277000Y-80177630D01*
X88259820Y-80264000D01*
X84497000Y-80264000D01*
X84497000Y-73784844D01*
X99894060Y-73784844D01*
X99894060Y-74215156D01*
X100058733Y-74612711D01*
X100363009Y-74916987D01*
X100760564Y-75081660D01*
X101190876Y-75081660D01*
X101588431Y-74916987D01*
X101892707Y-74612711D01*
X102057380Y-74215156D01*
X102057380Y-73784844D01*
X104293340Y-73784844D01*
X104293340Y-74215156D01*
X104458013Y-74612711D01*
X104762289Y-74916987D01*
X105159844Y-75081660D01*
X105590156Y-75081660D01*
X105987711Y-74916987D01*
X106291987Y-74612711D01*
X106456660Y-74215156D01*
X106456660Y-73784844D01*
X106291987Y-73387289D01*
X105987711Y-73083013D01*
X105590156Y-72918340D01*
X105159844Y-72918340D01*
X104762289Y-73083013D01*
X104458013Y-73387289D01*
X104293340Y-73784844D01*
X102057380Y-73784844D01*
X101892707Y-73387289D01*
X101588431Y-73083013D01*
X101190876Y-72918340D01*
X100760564Y-72918340D01*
X100363009Y-73083013D01*
X100058733Y-73387289D01*
X99894060Y-73784844D01*
X84497000Y-73784844D01*
X84497000Y-71845246D01*
X85096697Y-72444943D01*
X86246001Y-72921000D01*
X87489999Y-72921000D01*
X88639303Y-72444943D01*
X89157333Y-71926913D01*
X116498000Y-71926913D01*
X116498000Y-72773087D01*
X116821817Y-73554848D01*
X117420152Y-74153183D01*
X118201913Y-74477000D01*
X119048087Y-74477000D01*
X119829848Y-74153183D01*
X120428183Y-73554848D01*
X120752000Y-72773087D01*
X120752000Y-71926913D01*
X130748000Y-71926913D01*
X130748000Y-72773087D01*
X131071817Y-73554848D01*
X131670152Y-74153183D01*
X132451913Y-74477000D01*
X133298087Y-74477000D01*
X134079848Y-74153183D01*
X134678183Y-73554848D01*
X135002000Y-72773087D01*
X135002000Y-71926913D01*
X142907000Y-71926913D01*
X142907000Y-72773087D01*
X143230817Y-73554848D01*
X143829152Y-74153183D01*
X144610913Y-74477000D01*
X145457087Y-74477000D01*
X146238848Y-74153183D01*
X146837183Y-73554848D01*
X147161000Y-72773087D01*
X147161000Y-71926913D01*
X154845000Y-71926913D01*
X154845000Y-72773087D01*
X155168817Y-73554848D01*
X155767152Y-74153183D01*
X156548913Y-74477000D01*
X157395087Y-74477000D01*
X158176848Y-74153183D01*
X158775183Y-73554848D01*
X159099000Y-72773087D01*
X159099000Y-71926913D01*
X158775183Y-71145152D01*
X158176848Y-70546817D01*
X157395087Y-70223000D01*
X156548913Y-70223000D01*
X155767152Y-70546817D01*
X155168817Y-71145152D01*
X154845000Y-71926913D01*
X147161000Y-71926913D01*
X146837183Y-71145152D01*
X146238848Y-70546817D01*
X145457087Y-70223000D01*
X144610913Y-70223000D01*
X143829152Y-70546817D01*
X143230817Y-71145152D01*
X142907000Y-71926913D01*
X135002000Y-71926913D01*
X134678183Y-71145152D01*
X134079848Y-70546817D01*
X133298087Y-70223000D01*
X132451913Y-70223000D01*
X131670152Y-70546817D01*
X131071817Y-71145152D01*
X130748000Y-71926913D01*
X120752000Y-71926913D01*
X120428183Y-71145152D01*
X119829848Y-70546817D01*
X119048087Y-70223000D01*
X118201913Y-70223000D01*
X117420152Y-70546817D01*
X116821817Y-71145152D01*
X116498000Y-71926913D01*
X89157333Y-71926913D01*
X89518943Y-71565303D01*
X89995000Y-70415999D01*
X89995000Y-69172001D01*
X89518943Y-68022697D01*
X88721246Y-67225000D01*
X165014754Y-67225000D01*
X164217057Y-68022697D01*
X164217057Y-68022697D01*
G37*
X164217057Y-68022697D02*
X163741000Y-69172001D01*
X163741000Y-70415999D01*
X164217057Y-71565303D01*
X165096697Y-72444943D01*
X166246001Y-72921000D01*
X167489999Y-72921000D01*
X168639303Y-72444943D01*
X169249001Y-71835245D01*
X169249000Y-127752754D01*
X168639303Y-127143057D01*
X167489999Y-126667000D01*
X166246001Y-126667000D01*
X165096697Y-127143057D01*
X164217057Y-128022697D01*
X163741000Y-129172001D01*
X163741000Y-130415999D01*
X164217057Y-131565303D01*
X164816754Y-132165000D01*
X88919246Y-132165000D01*
X89518943Y-131565303D01*
X89995000Y-130415999D01*
X89995000Y-129172001D01*
X89518943Y-128022697D01*
X89061159Y-127564913D01*
X98711000Y-127564913D01*
X98711000Y-128411087D01*
X99034817Y-129192848D01*
X99633152Y-129791183D01*
X100414913Y-130115000D01*
X101261087Y-130115000D01*
X102042848Y-129791183D01*
X102641183Y-129192848D01*
X102965000Y-128411087D01*
X102965000Y-127564913D01*
X110903000Y-127564913D01*
X110903000Y-128411087D01*
X111226817Y-129192848D01*
X111825152Y-129791183D01*
X112606913Y-130115000D01*
X113453087Y-130115000D01*
X114234848Y-129791183D01*
X114833183Y-129192848D01*
X115157000Y-128411087D01*
X115157000Y-127818913D01*
X124619000Y-127818913D01*
X124619000Y-128665087D01*
X124942817Y-129446848D01*
X125541152Y-130045183D01*
X126322913Y-130369000D01*
X127169087Y-130369000D01*
X127950848Y-130045183D01*
X128549183Y-129446848D01*
X128873000Y-128665087D01*
X128873000Y-127818913D01*
X138081000Y-127818913D01*
X138081000Y-128665087D01*
X138404817Y-129446848D01*
X139003152Y-130045183D01*
X139784913Y-130369000D01*
X140631087Y-130369000D01*
X141412848Y-130045183D01*
X142011183Y-129446848D01*
X142335000Y-128665087D01*
X142335000Y-127818913D01*
X142011183Y-127037152D01*
X141412848Y-126438817D01*
X140631087Y-126115000D01*
X139784913Y-126115000D01*
X139003152Y-126438817D01*
X138404817Y-127037152D01*
X138081000Y-127818913D01*
X128873000Y-127818913D01*
X128549183Y-127037152D01*
X127950848Y-126438817D01*
X127169087Y-126115000D01*
X126322913Y-126115000D01*
X125541152Y-126438817D01*
X124942817Y-127037152D01*
X124619000Y-127818913D01*
X115157000Y-127818913D01*
X115157000Y-127564913D01*
X114833183Y-126783152D01*
X114234848Y-126184817D01*
X113453087Y-125861000D01*
X112606913Y-125861000D01*
X111825152Y-126184817D01*
X111226817Y-126783152D01*
X110903000Y-127564913D01*
X102965000Y-127564913D01*
X102641183Y-126783152D01*
X102042848Y-126184817D01*
X101261087Y-125861000D01*
X100414913Y-125861000D01*
X99633152Y-126184817D01*
X99034817Y-126783152D01*
X98711000Y-127564913D01*
X89061159Y-127564913D01*
X88639303Y-127143057D01*
X87489999Y-126667000D01*
X86246001Y-126667000D01*
X85096697Y-127143057D01*
X84497000Y-127742754D01*
X84497000Y-124639517D01*
X98546088Y-124639517D01*
X98614077Y-124880460D01*
X99133171Y-125065201D01*
X99683448Y-125037230D01*
X100061923Y-124880460D01*
X100129912Y-124639517D01*
X99338000Y-123847605D01*
X98546088Y-124639517D01*
X84497000Y-124639517D01*
X84497000Y-80264000D01*
X88259820Y-80264000D01*
X88277000Y-80350370D01*
X88277001Y-118785625D01*
X88259820Y-118872000D01*
X88327885Y-119214188D01*
X88450106Y-119397103D01*
X88521720Y-119504281D01*
X88594944Y-119553208D01*
X92028791Y-122987056D01*
X92077719Y-123060281D01*
X92150943Y-123109208D01*
X92367810Y-123254115D01*
X92367811Y-123254115D01*
X92367812Y-123254116D01*
X92623625Y-123305000D01*
X92623629Y-123305000D01*
X92709999Y-123322180D01*
X92796369Y-123305000D01*
X97997091Y-123305000D01*
X97940799Y-123463171D01*
X97968770Y-124013448D01*
X98125540Y-124391923D01*
X98366483Y-124459912D01*
X99158395Y-123668000D01*
X99144253Y-123653858D01*
X99323858Y-123474253D01*
X99338000Y-123488395D01*
X99352143Y-123474253D01*
X99531748Y-123653858D01*
X99517605Y-123668000D01*
X100309517Y-124459912D01*
X100550460Y-124391923D01*
X100735201Y-123872829D01*
X100707230Y-123322552D01*
X100699960Y-123305000D01*
X100734736Y-123305000D01*
X100961000Y-123531265D01*
X100961000Y-123941902D01*
X101170636Y-124448008D01*
X101557992Y-124835364D01*
X102064098Y-125045000D01*
X102611902Y-125045000D01*
X103118008Y-124835364D01*
X103313855Y-124639517D01*
X110738088Y-124639517D01*
X110806077Y-124880460D01*
X111325171Y-125065201D01*
X111875448Y-125037230D01*
X112253923Y-124880460D01*
X112321912Y-124639517D01*
X113738088Y-124639517D01*
X113806077Y-124880460D01*
X114325171Y-125065201D01*
X114875448Y-125037230D01*
X115253923Y-124880460D01*
X115321912Y-124639517D01*
X114530000Y-123847605D01*
X113738088Y-124639517D01*
X112321912Y-124639517D01*
X111530000Y-123847605D01*
X110738088Y-124639517D01*
X103313855Y-124639517D01*
X103505364Y-124448008D01*
X103715000Y-123941902D01*
X103715000Y-123463171D01*
X110132799Y-123463171D01*
X110160770Y-124013448D01*
X110317540Y-124391923D01*
X110558483Y-124459912D01*
X111350395Y-123668000D01*
X111709605Y-123668000D01*
X112501517Y-124459912D01*
X112742460Y-124391923D01*
X112927201Y-123872829D01*
X112906378Y-123463171D01*
X113132799Y-123463171D01*
X113160770Y-124013448D01*
X113317540Y-124391923D01*
X113558483Y-124459912D01*
X114350395Y-123668000D01*
X114709605Y-123668000D01*
X115501517Y-124459912D01*
X115742460Y-124391923D01*
X115927201Y-123872829D01*
X115899230Y-123322552D01*
X115742460Y-122944077D01*
X115501517Y-122876088D01*
X114709605Y-123668000D01*
X114350395Y-123668000D01*
X113558483Y-122876088D01*
X113317540Y-122944077D01*
X113132799Y-123463171D01*
X112906378Y-123463171D01*
X112899230Y-123322552D01*
X112742460Y-122944077D01*
X112501517Y-122876088D01*
X111709605Y-123668000D01*
X111350395Y-123668000D01*
X110558483Y-122876088D01*
X110317540Y-122944077D01*
X110132799Y-123463171D01*
X103715000Y-123463171D01*
X103715000Y-123394098D01*
X103505364Y-122887992D01*
X103313855Y-122696483D01*
X110738088Y-122696483D01*
X111530000Y-123488395D01*
X112321912Y-122696483D01*
X113738088Y-122696483D01*
X114530000Y-123488395D01*
X115321912Y-122696483D01*
X115253923Y-122455540D01*
X114734829Y-122270799D01*
X114184552Y-122298770D01*
X113806077Y-122455540D01*
X113738088Y-122696483D01*
X112321912Y-122696483D01*
X112253923Y-122455540D01*
X111734829Y-122270799D01*
X111184552Y-122298770D01*
X110806077Y-122455540D01*
X110738088Y-122696483D01*
X103313855Y-122696483D01*
X103118008Y-122500636D01*
X102611902Y-122291000D01*
X102201265Y-122291000D01*
X101888328Y-121978063D01*
X102133171Y-122065201D01*
X102683448Y-122037230D01*
X103061923Y-121880460D01*
X103129912Y-121639517D01*
X102338000Y-120847605D01*
X102323858Y-120861748D01*
X102144253Y-120682143D01*
X102158395Y-120668000D01*
X102517605Y-120668000D01*
X103309517Y-121459912D01*
X103550460Y-121391923D01*
X103735201Y-120872829D01*
X103707230Y-120322552D01*
X103550460Y-119944077D01*
X103309517Y-119876088D01*
X102517605Y-120668000D01*
X102158395Y-120668000D01*
X101366483Y-119876088D01*
X101125540Y-119944077D01*
X100940799Y-120463171D01*
X100968770Y-121013448D01*
X101125540Y-121391923D01*
X101366481Y-121459911D01*
X101260291Y-121566101D01*
X101184375Y-121551000D01*
X101184370Y-121551000D01*
X101098000Y-121533820D01*
X101011630Y-121551000D01*
X100402372Y-121551000D01*
X100505364Y-121448008D01*
X100715000Y-120941902D01*
X100715000Y-120394098D01*
X100505364Y-119887992D01*
X100241372Y-119624000D01*
X101566541Y-119624000D01*
X101546088Y-119696483D01*
X102338000Y-120488395D01*
X103129912Y-119696483D01*
X103109459Y-119624000D01*
X110626628Y-119624000D01*
X110362636Y-119887992D01*
X110153000Y-120394098D01*
X110153000Y-120941902D01*
X110362636Y-121448008D01*
X110749992Y-121835364D01*
X111256098Y-122045000D01*
X111803902Y-122045000D01*
X112310008Y-121835364D01*
X112697364Y-121448008D01*
X112907000Y-120941902D01*
X112907000Y-120394098D01*
X113153000Y-120394098D01*
X113153000Y-120941902D01*
X113362636Y-121448008D01*
X113749992Y-121835364D01*
X114256098Y-122045000D01*
X114803902Y-122045000D01*
X115169614Y-121893517D01*
X122954088Y-121893517D01*
X123022077Y-122134460D01*
X123541171Y-122319201D01*
X124091448Y-122291230D01*
X124469923Y-122134460D01*
X124537912Y-121893517D01*
X123746000Y-121101605D01*
X122954088Y-121893517D01*
X115169614Y-121893517D01*
X115310008Y-121835364D01*
X115697364Y-121448008D01*
X115907000Y-120941902D01*
X115907000Y-120717171D01*
X122348799Y-120717171D01*
X122376770Y-121267448D01*
X122533540Y-121645923D01*
X122774483Y-121713912D01*
X123566395Y-120922000D01*
X123925605Y-120922000D01*
X124717517Y-121713912D01*
X124958460Y-121645923D01*
X125143201Y-121126829D01*
X125122378Y-120717171D01*
X125348799Y-120717171D01*
X125376770Y-121267448D01*
X125533540Y-121645923D01*
X125774483Y-121713912D01*
X126566395Y-120922000D01*
X125774483Y-120130088D01*
X125533540Y-120198077D01*
X125348799Y-120717171D01*
X125122378Y-120717171D01*
X125115230Y-120576552D01*
X124958460Y-120198077D01*
X124717517Y-120130088D01*
X123925605Y-120922000D01*
X123566395Y-120922000D01*
X122774483Y-120130088D01*
X122533540Y-120198077D01*
X122348799Y-120717171D01*
X115907000Y-120717171D01*
X115907000Y-120394098D01*
X115723249Y-119950483D01*
X122954088Y-119950483D01*
X123746000Y-120742395D01*
X124537912Y-119950483D01*
X125954088Y-119950483D01*
X126746000Y-120742395D01*
X127537912Y-119950483D01*
X127469923Y-119709540D01*
X126950829Y-119524799D01*
X126400552Y-119552770D01*
X126022077Y-119709540D01*
X125954088Y-119950483D01*
X124537912Y-119950483D01*
X124469923Y-119709540D01*
X123950829Y-119524799D01*
X123400552Y-119552770D01*
X123022077Y-119709540D01*
X122954088Y-119950483D01*
X115723249Y-119950483D01*
X115697364Y-119887992D01*
X115310008Y-119500636D01*
X114803902Y-119291000D01*
X114256098Y-119291000D01*
X113749992Y-119500636D01*
X113362636Y-119887992D01*
X113153000Y-120394098D01*
X112907000Y-120394098D01*
X112697364Y-119887992D01*
X112418223Y-119608851D01*
X112561416Y-119580368D01*
X112810161Y-119414161D01*
X112852116Y-119351371D01*
X118001489Y-114202000D01*
X118707000Y-114202000D01*
X118707000Y-114484392D01*
X118848127Y-114825103D01*
X119108897Y-115085873D01*
X119449608Y-115227000D01*
X119818392Y-115227000D01*
X120159103Y-115085873D01*
X120419873Y-114825103D01*
X120561000Y-114484392D01*
X120561000Y-114436487D01*
X120795488Y-114202000D01*
X130596513Y-114202000D01*
X133106000Y-116711488D01*
X133106001Y-118052511D01*
X132530513Y-118628000D01*
X129845056Y-118628000D01*
X129770997Y-118613269D01*
X129696938Y-118628000D01*
X129696935Y-118628000D01*
X129477582Y-118671632D01*
X129228837Y-118837839D01*
X129186883Y-118900627D01*
X127904625Y-120182886D01*
X127717517Y-120130088D01*
X126925605Y-120922000D01*
X126939748Y-120936143D01*
X126760143Y-121115748D01*
X126746000Y-121101605D01*
X125954088Y-121893517D01*
X126006886Y-122080625D01*
X124922782Y-123164729D01*
X124913364Y-123141992D01*
X124526008Y-122754636D01*
X124019902Y-122545000D01*
X123472098Y-122545000D01*
X122965992Y-122754636D01*
X122578636Y-123141992D01*
X122369000Y-123648098D01*
X122369000Y-124195902D01*
X122578636Y-124702008D01*
X122965992Y-125089364D01*
X123472098Y-125299000D01*
X124019902Y-125299000D01*
X124526008Y-125089364D01*
X124913364Y-124702008D01*
X124924965Y-124674000D01*
X125154939Y-124674000D01*
X125228998Y-124688731D01*
X125303057Y-124674000D01*
X125303061Y-124674000D01*
X125522414Y-124630368D01*
X125543207Y-124616475D01*
X125578636Y-124702008D01*
X125965992Y-125089364D01*
X126472098Y-125299000D01*
X127019902Y-125299000D01*
X127526008Y-125089364D01*
X127913364Y-124702008D01*
X128123000Y-124195902D01*
X128123000Y-123648098D01*
X128369000Y-123648098D01*
X128369000Y-124195902D01*
X128578636Y-124702008D01*
X128965992Y-125089364D01*
X129472098Y-125299000D01*
X130019902Y-125299000D01*
X130526008Y-125089364D01*
X130721855Y-124893517D01*
X137916088Y-124893517D01*
X137984077Y-125134460D01*
X138503171Y-125319201D01*
X139053448Y-125291230D01*
X139431923Y-125134460D01*
X139499912Y-124893517D01*
X138708000Y-124101605D01*
X137916088Y-124893517D01*
X130721855Y-124893517D01*
X130913364Y-124702008D01*
X131123000Y-124195902D01*
X131123000Y-123717171D01*
X137310799Y-123717171D01*
X137338770Y-124267448D01*
X137495540Y-124645923D01*
X137736483Y-124713912D01*
X138528395Y-123922000D01*
X138887605Y-123922000D01*
X139679517Y-124713912D01*
X139920460Y-124645923D01*
X140105201Y-124126829D01*
X140080867Y-123648098D01*
X140331000Y-123648098D01*
X140331000Y-124195902D01*
X140540636Y-124702008D01*
X140927992Y-125089364D01*
X141434098Y-125299000D01*
X141981902Y-125299000D01*
X142488008Y-125089364D01*
X142875364Y-124702008D01*
X143085000Y-124195902D01*
X143085000Y-123648098D01*
X142875364Y-123141992D01*
X142488008Y-122754636D01*
X141981902Y-122545000D01*
X141434098Y-122545000D01*
X140927992Y-122754636D01*
X140540636Y-123141992D01*
X140331000Y-123648098D01*
X140080867Y-123648098D01*
X140077230Y-123576552D01*
X139920460Y-123198077D01*
X139679517Y-123130088D01*
X138887605Y-123922000D01*
X138528395Y-123922000D01*
X137736483Y-123130088D01*
X137495540Y-123198077D01*
X137310799Y-123717171D01*
X131123000Y-123717171D01*
X131123000Y-123648098D01*
X130913364Y-123141992D01*
X130721855Y-122950483D01*
X137916088Y-122950483D01*
X138708000Y-123742395D01*
X139499912Y-122950483D01*
X139431923Y-122709540D01*
X138912829Y-122524799D01*
X138362552Y-122552770D01*
X137984077Y-122709540D01*
X137916088Y-122950483D01*
X130721855Y-122950483D01*
X130526008Y-122754636D01*
X130019902Y-122545000D01*
X129472098Y-122545000D01*
X128965992Y-122754636D01*
X128578636Y-123141992D01*
X128369000Y-123648098D01*
X128123000Y-123648098D01*
X127913364Y-123141992D01*
X127526008Y-122754636D01*
X127479227Y-122735259D01*
X128320969Y-121893517D01*
X128954088Y-121893517D01*
X129022077Y-122134460D01*
X129541171Y-122319201D01*
X130091448Y-122291230D01*
X130469923Y-122134460D01*
X130537912Y-121893517D01*
X129746000Y-121101605D01*
X128954088Y-121893517D01*
X128320969Y-121893517D01*
X128560855Y-121653631D01*
X128774483Y-121713912D01*
X129566395Y-120922000D01*
X129552253Y-120907858D01*
X129731858Y-120728253D01*
X129746000Y-120742395D01*
X129760143Y-120728253D01*
X129939748Y-120907858D01*
X129925605Y-120922000D01*
X130717517Y-121713912D01*
X130958460Y-121645923D01*
X131143201Y-121126829D01*
X131118867Y-120648098D01*
X137331000Y-120648098D01*
X137331000Y-121195902D01*
X137540636Y-121702008D01*
X137927992Y-122089364D01*
X138434098Y-122299000D01*
X138981902Y-122299000D01*
X139488008Y-122089364D01*
X139875364Y-121702008D01*
X140085000Y-121195902D01*
X140085000Y-120648098D01*
X139875364Y-120141992D01*
X139488008Y-119754636D01*
X138981902Y-119545000D01*
X138434098Y-119545000D01*
X137927992Y-119754636D01*
X137540636Y-120141992D01*
X137331000Y-120648098D01*
X131118867Y-120648098D01*
X131115230Y-120576552D01*
X130958460Y-120198077D01*
X130724293Y-120132000D01*
X132767941Y-120132000D01*
X132842000Y-120146731D01*
X132916059Y-120132000D01*
X132916063Y-120132000D01*
X133135416Y-120088368D01*
X133384161Y-119922161D01*
X133426116Y-119859371D01*
X134337373Y-118948115D01*
X134400161Y-118906161D01*
X134566368Y-118657416D01*
X134610000Y-118438063D01*
X134610000Y-118438059D01*
X134624731Y-118364000D01*
X134610000Y-118289941D01*
X134610000Y-116800265D01*
X136224794Y-118415060D01*
X136273719Y-118488281D01*
X136346940Y-118537206D01*
X136346943Y-118537209D01*
X136482822Y-118628000D01*
X136563812Y-118682116D01*
X136819625Y-118733000D01*
X136819630Y-118733000D01*
X136906000Y-118750180D01*
X136992370Y-118733000D01*
X140410897Y-118733000D01*
X140531608Y-118783000D01*
X140900392Y-118783000D01*
X140956001Y-118759966D01*
X140956001Y-119743034D01*
X140927992Y-119754636D01*
X140540636Y-120141992D01*
X140331000Y-120648098D01*
X140331000Y-121195902D01*
X140540636Y-121702008D01*
X140927992Y-122089364D01*
X141434098Y-122299000D01*
X141981902Y-122299000D01*
X142488008Y-122089364D01*
X142875364Y-121702008D01*
X143085000Y-121195902D01*
X143085000Y-120648098D01*
X142875364Y-120141992D01*
X142488008Y-119754636D01*
X142460000Y-119743035D01*
X142460000Y-119545000D01*
X142678392Y-119545000D01*
X143019103Y-119403873D01*
X143279873Y-119143103D01*
X143421000Y-118802392D01*
X143421000Y-118433608D01*
X143279873Y-118092897D01*
X143246000Y-118059024D01*
X143246000Y-110262815D01*
X143579608Y-110401000D01*
X143948392Y-110401000D01*
X144289103Y-110259873D01*
X144322976Y-110226000D01*
X144901975Y-110226000D01*
X144869000Y-110305608D01*
X144869000Y-110674392D01*
X145010127Y-111015103D01*
X145270897Y-111275873D01*
X145611608Y-111417000D01*
X145670380Y-111417000D01*
X145823584Y-111519368D01*
X146042937Y-111563000D01*
X146042941Y-111563000D01*
X146117000Y-111577731D01*
X146191059Y-111563000D01*
X149047024Y-111563000D01*
X149080897Y-111596873D01*
X149421608Y-111738000D01*
X149790392Y-111738000D01*
X150131103Y-111596873D01*
X150391873Y-111336103D01*
X150533000Y-110995392D01*
X150533000Y-110626608D01*
X150391873Y-110285897D01*
X150331976Y-110226000D01*
X156406513Y-110226000D01*
X156807000Y-110626488D01*
X156807000Y-110674392D01*
X156948127Y-111015103D01*
X157208897Y-111275873D01*
X157549608Y-111417000D01*
X157918392Y-111417000D01*
X158259103Y-111275873D01*
X158519873Y-111015103D01*
X158661000Y-110674392D01*
X158661000Y-110305608D01*
X158519873Y-109964897D01*
X158259103Y-109704127D01*
X157918392Y-109563000D01*
X157870488Y-109563000D01*
X157302116Y-108994629D01*
X157260161Y-108931839D01*
X157011416Y-108765632D01*
X156792063Y-108722000D01*
X156792059Y-108722000D01*
X156718000Y-108707269D01*
X156643941Y-108722000D01*
X144563488Y-108722000D01*
X145678488Y-107607000D01*
X145726392Y-107607000D01*
X146067103Y-107465873D01*
X146327873Y-107205103D01*
X146469000Y-106864392D01*
X146469000Y-106495608D01*
X154775000Y-106495608D01*
X154775000Y-106864392D01*
X154916127Y-107205103D01*
X155176897Y-107465873D01*
X155517608Y-107607000D01*
X155886392Y-107607000D01*
X156227103Y-107465873D01*
X156260976Y-107432000D01*
X156643941Y-107432000D01*
X156718000Y-107446731D01*
X156792059Y-107432000D01*
X156792063Y-107432000D01*
X157011416Y-107388368D01*
X157260161Y-107222161D01*
X157302116Y-107159371D01*
X157870488Y-106591000D01*
X157918392Y-106591000D01*
X158259103Y-106449873D01*
X158519873Y-106189103D01*
X158661000Y-105848392D01*
X158661000Y-105479608D01*
X158519873Y-105138897D01*
X158259103Y-104878127D01*
X157918392Y-104737000D01*
X157549608Y-104737000D01*
X157208897Y-104878127D01*
X156948127Y-105138897D01*
X156807000Y-105479608D01*
X156807000Y-105527512D01*
X156406513Y-105928000D01*
X156260976Y-105928000D01*
X156227103Y-105894127D01*
X155886392Y-105753000D01*
X155517608Y-105753000D01*
X155176897Y-105894127D01*
X154916127Y-106154897D01*
X154775000Y-106495608D01*
X146469000Y-106495608D01*
X146327873Y-106154897D01*
X146067103Y-105894127D01*
X145726392Y-105753000D01*
X145357608Y-105753000D01*
X145139281Y-105843434D01*
X145083842Y-105709592D01*
X145136277Y-105687873D01*
X145397047Y-105427103D01*
X145538174Y-105086392D01*
X145538174Y-104717608D01*
X145397047Y-104376897D01*
X145136277Y-104116127D01*
X144795566Y-103975000D01*
X144426782Y-103975000D01*
X144086071Y-104116127D01*
X143825301Y-104376897D01*
X143814075Y-104404000D01*
X143052976Y-104404000D01*
X143019103Y-104370127D01*
X142678392Y-104229000D01*
X142309608Y-104229000D01*
X142208298Y-104270964D01*
X142327000Y-103984392D01*
X142327000Y-103615608D01*
X142185873Y-103274897D01*
X141925103Y-103014127D01*
X141584392Y-102873000D01*
X141215608Y-102873000D01*
X140874897Y-103014127D01*
X140750000Y-103139024D01*
X140725103Y-103114127D01*
X140384392Y-102973000D01*
X140015608Y-102973000D01*
X139674897Y-103114127D01*
X139414127Y-103374897D01*
X139273000Y-103715608D01*
X139273000Y-103763512D01*
X138429744Y-104606768D01*
X138193103Y-104370127D01*
X137852392Y-104229000D01*
X137483608Y-104229000D01*
X137142897Y-104370127D01*
X137109024Y-104404000D01*
X135302000Y-104404000D01*
X135302000Y-100469747D01*
X135327000Y-100409392D01*
X135327000Y-100040608D01*
X135302000Y-99980253D01*
X135302000Y-97561488D01*
X135822880Y-97040608D01*
X139748000Y-97040608D01*
X139748000Y-97409392D01*
X139889127Y-97750103D01*
X140149897Y-98010873D01*
X140490608Y-98152000D01*
X140538512Y-98152000D01*
X140940887Y-98554376D01*
X140982839Y-98617161D01*
X141045623Y-98659112D01*
X141045626Y-98659115D01*
X141216067Y-98773000D01*
X141231584Y-98783368D01*
X141450937Y-98827000D01*
X141450941Y-98827000D01*
X141525000Y-98841731D01*
X141599059Y-98827000D01*
X148116024Y-98827000D01*
X148149897Y-98860873D01*
X148490608Y-99002000D01*
X148859392Y-99002000D01*
X149200103Y-98860873D01*
X149460873Y-98600103D01*
X149602000Y-98259392D01*
X149602000Y-97890608D01*
X149460873Y-97549897D01*
X149200103Y-97289127D01*
X148859392Y-97148000D01*
X148490608Y-97148000D01*
X148149897Y-97289127D01*
X148116024Y-97323000D01*
X141836488Y-97323000D01*
X141602000Y-97088512D01*
X141602000Y-97040608D01*
X141460873Y-96699897D01*
X141200103Y-96439127D01*
X140859392Y-96298000D01*
X140490608Y-96298000D01*
X140149897Y-96439127D01*
X139889127Y-96699897D01*
X139748000Y-97040608D01*
X135822880Y-97040608D01*
X136794976Y-96068512D01*
X136839127Y-96175103D01*
X137099897Y-96435873D01*
X137440608Y-96577000D01*
X137809392Y-96577000D01*
X138150103Y-96435873D01*
X138410873Y-96175103D01*
X138552000Y-95834392D01*
X138552000Y-95465608D01*
X138452000Y-95224186D01*
X138452000Y-90608976D01*
X138485873Y-90575103D01*
X138627000Y-90234392D01*
X138627000Y-89865608D01*
X138575080Y-89740261D01*
X138800000Y-89785000D01*
X140162315Y-89785000D01*
X140140006Y-95072321D01*
X140188336Y-95318004D01*
X140325987Y-95524013D01*
X140531996Y-95661664D01*
X140775000Y-95710000D01*
X145525000Y-95710000D01*
X145768004Y-95661664D01*
X145905188Y-95570000D01*
X157019064Y-95570000D01*
X157133697Y-96146297D01*
X157460142Y-96634858D01*
X157767160Y-96840000D01*
X157460142Y-97045142D01*
X157133697Y-97533703D01*
X157019064Y-98110000D01*
X157133697Y-98686297D01*
X157460142Y-99174858D01*
X157767160Y-99380000D01*
X157460142Y-99585142D01*
X157133697Y-100073703D01*
X157019064Y-100650000D01*
X157133697Y-101226297D01*
X157460142Y-101714858D01*
X157948703Y-102041303D01*
X158379529Y-102127000D01*
X158670471Y-102127000D01*
X159101297Y-102041303D01*
X159589858Y-101714858D01*
X159916303Y-101226297D01*
X160030936Y-100650000D01*
X159916303Y-100073703D01*
X159589858Y-99585142D01*
X159282840Y-99380000D01*
X159589858Y-99174858D01*
X159916303Y-98686297D01*
X160030936Y-98110000D01*
X159916303Y-97533703D01*
X159589858Y-97045142D01*
X159282840Y-96840000D01*
X159589858Y-96634858D01*
X159916303Y-96146297D01*
X160030936Y-95570000D01*
X159916303Y-94993703D01*
X159589858Y-94505142D01*
X159268066Y-94290128D01*
X159406358Y-94225183D01*
X159796645Y-93796924D01*
X159966476Y-93386890D01*
X159845155Y-93157000D01*
X158652000Y-93157000D01*
X158652000Y-93177000D01*
X158398000Y-93177000D01*
X158398000Y-93157000D01*
X157204845Y-93157000D01*
X157083524Y-93386890D01*
X157253355Y-93796924D01*
X157643642Y-94225183D01*
X157781934Y-94290128D01*
X157460142Y-94505142D01*
X157133697Y-94993703D01*
X157019064Y-95570000D01*
X145905188Y-95570000D01*
X145974013Y-95524013D01*
X146111664Y-95318004D01*
X146160000Y-95075000D01*
X146160000Y-93150000D01*
X146111664Y-92906996D01*
X145974013Y-92700987D01*
X145768004Y-92563336D01*
X145525000Y-92515000D01*
X142453774Y-92515000D01*
X142409969Y-88068744D01*
X142361664Y-87831996D01*
X142224013Y-87625987D01*
X142018004Y-87488336D01*
X141775000Y-87440000D01*
X139473489Y-87440000D01*
X139686489Y-87227000D01*
X151040769Y-87227000D01*
X150973000Y-87390608D01*
X150973000Y-87759392D01*
X151114127Y-88100103D01*
X151374897Y-88360873D01*
X151715608Y-88502000D01*
X151763513Y-88502000D01*
X152998000Y-89736489D01*
X152998000Y-90034392D01*
X153139127Y-90375103D01*
X153399897Y-90635873D01*
X153740608Y-90777000D01*
X154109392Y-90777000D01*
X154450103Y-90635873D01*
X154595976Y-90490000D01*
X157019064Y-90490000D01*
X157133697Y-91066297D01*
X157460142Y-91554858D01*
X157781934Y-91769872D01*
X157643642Y-91834817D01*
X157253355Y-92263076D01*
X157083524Y-92673110D01*
X157204845Y-92903000D01*
X158398000Y-92903000D01*
X158398000Y-92883000D01*
X158652000Y-92883000D01*
X158652000Y-92903000D01*
X159845155Y-92903000D01*
X159966476Y-92673110D01*
X159796645Y-92263076D01*
X159406358Y-91834817D01*
X159268066Y-91769872D01*
X159589858Y-91554858D01*
X159916303Y-91066297D01*
X160030936Y-90490000D01*
X159916303Y-89913703D01*
X159589858Y-89425142D01*
X159556877Y-89403105D01*
X159619643Y-89390620D01*
X159827041Y-89252041D01*
X159965620Y-89044643D01*
X160014283Y-88800000D01*
X160014283Y-87100000D01*
X159965620Y-86855357D01*
X159827041Y-86647959D01*
X159619643Y-86509380D01*
X159375000Y-86460717D01*
X157675000Y-86460717D01*
X157430357Y-86509380D01*
X157222959Y-86647959D01*
X157084380Y-86855357D01*
X157035717Y-87100000D01*
X157035717Y-88800000D01*
X157084380Y-89044643D01*
X157222959Y-89252041D01*
X157430357Y-89390620D01*
X157493123Y-89403105D01*
X157460142Y-89425142D01*
X157133697Y-89913703D01*
X157019064Y-90490000D01*
X154595976Y-90490000D01*
X154710873Y-90375103D01*
X154852000Y-90034392D01*
X154852000Y-89861864D01*
X154975103Y-89810873D01*
X155235873Y-89550103D01*
X155377000Y-89209392D01*
X155377000Y-88840608D01*
X155235873Y-88499897D01*
X154975103Y-88239127D01*
X154634392Y-88098000D01*
X154611489Y-88098000D01*
X153740488Y-87227000D01*
X154300941Y-87227000D01*
X154375000Y-87241731D01*
X154449059Y-87227000D01*
X154449063Y-87227000D01*
X154668416Y-87183368D01*
X154917161Y-87017161D01*
X154959116Y-86954371D01*
X158951374Y-82962114D01*
X159014161Y-82920161D01*
X159180368Y-82671416D01*
X159224000Y-82452063D01*
X159224000Y-82452059D01*
X159238731Y-82378000D01*
X159224000Y-82303941D01*
X159224000Y-80848965D01*
X159252008Y-80837364D01*
X159639364Y-80450008D01*
X159849000Y-79943902D01*
X159849000Y-79396098D01*
X159639364Y-78889992D01*
X159252008Y-78502636D01*
X158745902Y-78293000D01*
X158198098Y-78293000D01*
X157691992Y-78502636D01*
X157304636Y-78889992D01*
X157095000Y-79396098D01*
X157095000Y-79943902D01*
X157304636Y-80450008D01*
X157691992Y-80837364D01*
X157720001Y-80848966D01*
X157720000Y-82066512D01*
X156224000Y-83562512D01*
X156224000Y-80848965D01*
X156252008Y-80837364D01*
X156639364Y-80450008D01*
X156849000Y-79943902D01*
X156849000Y-79396098D01*
X156639364Y-78889992D01*
X156252008Y-78502636D01*
X155745902Y-78293000D01*
X155198098Y-78293000D01*
X154691992Y-78502636D01*
X154304636Y-78889992D01*
X154095000Y-79396098D01*
X154095000Y-79943902D01*
X154304636Y-80450008D01*
X154691992Y-80837364D01*
X154720001Y-80848966D01*
X154720000Y-84246511D01*
X153893513Y-85073000D01*
X138849058Y-85073000D01*
X138774999Y-85058269D01*
X138700940Y-85073000D01*
X138700937Y-85073000D01*
X138481584Y-85116632D01*
X138295625Y-85240886D01*
X138295623Y-85240888D01*
X138232839Y-85282839D01*
X138190887Y-85345624D01*
X135845627Y-87690886D01*
X135782840Y-87732839D01*
X135740887Y-87795626D01*
X135740886Y-87795627D01*
X135616632Y-87981585D01*
X135558269Y-88275000D01*
X135573001Y-88349064D01*
X135573000Y-94563512D01*
X133938512Y-96198000D01*
X133395443Y-96198000D01*
X133385873Y-96174897D01*
X133125103Y-95914127D01*
X132784392Y-95773000D01*
X132415608Y-95773000D01*
X132234542Y-95848000D01*
X125858976Y-95848000D01*
X125775103Y-95764127D01*
X125434392Y-95623000D01*
X125065608Y-95623000D01*
X124724897Y-95764127D01*
X124476256Y-96012768D01*
X114302000Y-85838513D01*
X114302000Y-82215608D01*
X115673000Y-82215608D01*
X115673000Y-82584392D01*
X115814127Y-82925103D01*
X116074897Y-83185873D01*
X116415608Y-83327000D01*
X116784392Y-83327000D01*
X117125103Y-83185873D01*
X117158976Y-83152000D01*
X117925941Y-83152000D01*
X118000000Y-83166731D01*
X118074059Y-83152000D01*
X118074063Y-83152000D01*
X118293416Y-83108368D01*
X118542161Y-82942161D01*
X118584116Y-82879371D01*
X120679374Y-80784114D01*
X120742161Y-80742161D01*
X120745216Y-80737588D01*
X120844992Y-80837364D01*
X121351098Y-81047000D01*
X121898902Y-81047000D01*
X122405008Y-80837364D01*
X122792364Y-80450008D01*
X123002000Y-79943902D01*
X123002000Y-79396098D01*
X129998000Y-79396098D01*
X129998000Y-79943902D01*
X130207636Y-80450008D01*
X130594992Y-80837364D01*
X131101098Y-81047000D01*
X131648902Y-81047000D01*
X132155008Y-80837364D01*
X132542364Y-80450008D01*
X132752000Y-79943902D01*
X132752000Y-79396098D01*
X132998000Y-79396098D01*
X132998000Y-79943902D01*
X133207636Y-80450008D01*
X133594992Y-80837364D01*
X134101098Y-81047000D01*
X134648902Y-81047000D01*
X135155008Y-80837364D01*
X135325403Y-80666969D01*
X135339127Y-80700103D01*
X135599897Y-80960873D01*
X135940608Y-81102000D01*
X136309392Y-81102000D01*
X136650103Y-80960873D01*
X136910873Y-80700103D01*
X137052000Y-80359392D01*
X137052000Y-79990608D01*
X136936804Y-79712500D01*
X137052000Y-79434392D01*
X137052000Y-79396098D01*
X142157000Y-79396098D01*
X142157000Y-79943902D01*
X142366636Y-80450008D01*
X142753992Y-80837364D01*
X143260098Y-81047000D01*
X143807902Y-81047000D01*
X144314008Y-80837364D01*
X144701364Y-80450008D01*
X144911000Y-79943902D01*
X144911000Y-79396098D01*
X145157000Y-79396098D01*
X145157000Y-79943902D01*
X145366636Y-80450008D01*
X145753992Y-80837364D01*
X146260098Y-81047000D01*
X146807902Y-81047000D01*
X147314008Y-80837364D01*
X147701364Y-80450008D01*
X147911000Y-79943902D01*
X147911000Y-79396098D01*
X147701364Y-78889992D01*
X147314008Y-78502636D01*
X146807902Y-78293000D01*
X146260098Y-78293000D01*
X145753992Y-78502636D01*
X145366636Y-78889992D01*
X145157000Y-79396098D01*
X144911000Y-79396098D01*
X144701364Y-78889992D01*
X144314008Y-78502636D01*
X143807902Y-78293000D01*
X143260098Y-78293000D01*
X142753992Y-78502636D01*
X142366636Y-78889992D01*
X142157000Y-79396098D01*
X137052000Y-79396098D01*
X137052000Y-79065608D01*
X136910873Y-78724897D01*
X136650103Y-78464127D01*
X136309392Y-78323000D01*
X135940608Y-78323000D01*
X135599897Y-78464127D01*
X135358198Y-78705826D01*
X135155008Y-78502636D01*
X134648902Y-78293000D01*
X134101098Y-78293000D01*
X133594992Y-78502636D01*
X133207636Y-78889992D01*
X132998000Y-79396098D01*
X132752000Y-79396098D01*
X132542364Y-78889992D01*
X132155008Y-78502636D01*
X131648902Y-78293000D01*
X131101098Y-78293000D01*
X130594992Y-78502636D01*
X130207636Y-78889992D01*
X129998000Y-79396098D01*
X123002000Y-79396098D01*
X122792364Y-78889992D01*
X122405008Y-78502636D01*
X121898902Y-78293000D01*
X121351098Y-78293000D01*
X120952000Y-78458312D01*
X120952000Y-78406487D01*
X121323089Y-78035398D01*
X121351098Y-78047000D01*
X121898902Y-78047000D01*
X122405008Y-77837364D01*
X122600855Y-77641517D01*
X130583088Y-77641517D01*
X130651077Y-77882460D01*
X131170171Y-78067201D01*
X131720448Y-78039230D01*
X132098923Y-77882460D01*
X132166912Y-77641517D01*
X133583088Y-77641517D01*
X133651077Y-77882460D01*
X134170171Y-78067201D01*
X134720448Y-78039230D01*
X135098923Y-77882460D01*
X135166912Y-77641517D01*
X134375000Y-76849605D01*
X133583088Y-77641517D01*
X132166912Y-77641517D01*
X131375000Y-76849605D01*
X130583088Y-77641517D01*
X122600855Y-77641517D01*
X122792364Y-77450008D01*
X123002000Y-76943902D01*
X123002000Y-76465171D01*
X129977799Y-76465171D01*
X130005770Y-77015448D01*
X130162540Y-77393923D01*
X130403483Y-77461912D01*
X131195395Y-76670000D01*
X131554605Y-76670000D01*
X132346517Y-77461912D01*
X132587460Y-77393923D01*
X132772201Y-76874829D01*
X132751378Y-76465171D01*
X132977799Y-76465171D01*
X133005770Y-77015448D01*
X133162540Y-77393923D01*
X133403483Y-77461912D01*
X134195395Y-76670000D01*
X134554605Y-76670000D01*
X135346517Y-77461912D01*
X135587460Y-77393923D01*
X135772201Y-76874829D01*
X135747867Y-76396098D01*
X142157000Y-76396098D01*
X142157000Y-76943902D01*
X142366636Y-77450008D01*
X142753992Y-77837364D01*
X143260098Y-78047000D01*
X143807902Y-78047000D01*
X144314008Y-77837364D01*
X144509855Y-77641517D01*
X145742088Y-77641517D01*
X145810077Y-77882460D01*
X146329171Y-78067201D01*
X146879448Y-78039230D01*
X147257923Y-77882460D01*
X147325912Y-77641517D01*
X146534000Y-76849605D01*
X145742088Y-77641517D01*
X144509855Y-77641517D01*
X144701364Y-77450008D01*
X144911000Y-76943902D01*
X144911000Y-76465171D01*
X145136799Y-76465171D01*
X145164770Y-77015448D01*
X145321540Y-77393923D01*
X145562483Y-77461912D01*
X146354395Y-76670000D01*
X146713605Y-76670000D01*
X147505517Y-77461912D01*
X147746460Y-77393923D01*
X147931201Y-76874829D01*
X147906867Y-76396098D01*
X154095000Y-76396098D01*
X154095000Y-76943902D01*
X154304636Y-77450008D01*
X154691992Y-77837364D01*
X155198098Y-78047000D01*
X155745902Y-78047000D01*
X156252008Y-77837364D01*
X156447855Y-77641517D01*
X157680088Y-77641517D01*
X157748077Y-77882460D01*
X158267171Y-78067201D01*
X158817448Y-78039230D01*
X159195923Y-77882460D01*
X159263912Y-77641517D01*
X158472000Y-76849605D01*
X157680088Y-77641517D01*
X156447855Y-77641517D01*
X156639364Y-77450008D01*
X156849000Y-76943902D01*
X156849000Y-76465171D01*
X157074799Y-76465171D01*
X157102770Y-77015448D01*
X157259540Y-77393923D01*
X157500483Y-77461912D01*
X158292395Y-76670000D01*
X158651605Y-76670000D01*
X159443517Y-77461912D01*
X159684460Y-77393923D01*
X159869201Y-76874829D01*
X159841230Y-76324552D01*
X159684460Y-75946077D01*
X159443517Y-75878088D01*
X158651605Y-76670000D01*
X158292395Y-76670000D01*
X157500483Y-75878088D01*
X157259540Y-75946077D01*
X157074799Y-76465171D01*
X156849000Y-76465171D01*
X156849000Y-76396098D01*
X156639364Y-75889992D01*
X156447855Y-75698483D01*
X157680088Y-75698483D01*
X158472000Y-76490395D01*
X159263912Y-75698483D01*
X159195923Y-75457540D01*
X158676829Y-75272799D01*
X158126552Y-75300770D01*
X157748077Y-75457540D01*
X157680088Y-75698483D01*
X156447855Y-75698483D01*
X156252008Y-75502636D01*
X155745902Y-75293000D01*
X155198098Y-75293000D01*
X154691992Y-75502636D01*
X154304636Y-75889992D01*
X154095000Y-76396098D01*
X147906867Y-76396098D01*
X147903230Y-76324552D01*
X147746460Y-75946077D01*
X147505517Y-75878088D01*
X146713605Y-76670000D01*
X146354395Y-76670000D01*
X145562483Y-75878088D01*
X145321540Y-75946077D01*
X145136799Y-76465171D01*
X144911000Y-76465171D01*
X144911000Y-76396098D01*
X144701364Y-75889992D01*
X144509855Y-75698483D01*
X145742088Y-75698483D01*
X146534000Y-76490395D01*
X147325912Y-75698483D01*
X147257923Y-75457540D01*
X146738829Y-75272799D01*
X146188552Y-75300770D01*
X145810077Y-75457540D01*
X145742088Y-75698483D01*
X144509855Y-75698483D01*
X144314008Y-75502636D01*
X143807902Y-75293000D01*
X143260098Y-75293000D01*
X142753992Y-75502636D01*
X142366636Y-75889992D01*
X142157000Y-76396098D01*
X135747867Y-76396098D01*
X135744230Y-76324552D01*
X135587460Y-75946077D01*
X135346517Y-75878088D01*
X134554605Y-76670000D01*
X134195395Y-76670000D01*
X133403483Y-75878088D01*
X133162540Y-75946077D01*
X132977799Y-76465171D01*
X132751378Y-76465171D01*
X132744230Y-76324552D01*
X132587460Y-75946077D01*
X132346517Y-75878088D01*
X131554605Y-76670000D01*
X131195395Y-76670000D01*
X130403483Y-75878088D01*
X130162540Y-75946077D01*
X129977799Y-76465171D01*
X123002000Y-76465171D01*
X123002000Y-76396098D01*
X122792364Y-75889992D01*
X122600855Y-75698483D01*
X130583088Y-75698483D01*
X131375000Y-76490395D01*
X132166912Y-75698483D01*
X133583088Y-75698483D01*
X134375000Y-76490395D01*
X135166912Y-75698483D01*
X135098923Y-75457540D01*
X134579829Y-75272799D01*
X134029552Y-75300770D01*
X133651077Y-75457540D01*
X133583088Y-75698483D01*
X132166912Y-75698483D01*
X132098923Y-75457540D01*
X131579829Y-75272799D01*
X131029552Y-75300770D01*
X130651077Y-75457540D01*
X130583088Y-75698483D01*
X122600855Y-75698483D01*
X122405008Y-75502636D01*
X121898902Y-75293000D01*
X121351098Y-75293000D01*
X120844992Y-75502636D01*
X120457636Y-75889992D01*
X120248000Y-76396098D01*
X120248000Y-76943902D01*
X120259602Y-76971911D01*
X119800043Y-77431470D01*
X120002000Y-76943902D01*
X120002000Y-76396098D01*
X119792364Y-75889992D01*
X119405008Y-75502636D01*
X118898902Y-75293000D01*
X118351098Y-75293000D01*
X117844992Y-75502636D01*
X117457636Y-75889992D01*
X117248000Y-76396098D01*
X117248000Y-76943902D01*
X117457636Y-77450008D01*
X117844992Y-77837364D01*
X118351098Y-78047000D01*
X118898902Y-78047000D01*
X119405008Y-77837364D01*
X119594019Y-77648353D01*
X119491632Y-77801585D01*
X119433269Y-78095000D01*
X119448001Y-78169064D01*
X119448001Y-78667391D01*
X119416911Y-78698481D01*
X119348923Y-78457540D01*
X118829829Y-78272799D01*
X118279552Y-78300770D01*
X117901077Y-78457540D01*
X117833088Y-78698483D01*
X118625000Y-79490395D01*
X118639143Y-79476253D01*
X118818748Y-79655858D01*
X118804605Y-79670000D01*
X118818748Y-79684143D01*
X118639143Y-79863748D01*
X118625000Y-79849605D01*
X117833088Y-80641517D01*
X117901077Y-80882460D01*
X118308909Y-81027604D01*
X117688513Y-81648000D01*
X117158976Y-81648000D01*
X117125103Y-81614127D01*
X116784392Y-81473000D01*
X116415608Y-81473000D01*
X116074897Y-81614127D01*
X115814127Y-81874897D01*
X115673000Y-82215608D01*
X114302000Y-82215608D01*
X114302000Y-80641517D01*
X114833088Y-80641517D01*
X114901077Y-80882460D01*
X115420171Y-81067201D01*
X115970448Y-81039230D01*
X116348923Y-80882460D01*
X116416912Y-80641517D01*
X115625000Y-79849605D01*
X114833088Y-80641517D01*
X114302000Y-80641517D01*
X114302000Y-80127057D01*
X114412540Y-80393923D01*
X114653483Y-80461912D01*
X115445395Y-79670000D01*
X115804605Y-79670000D01*
X116596517Y-80461912D01*
X116837460Y-80393923D01*
X117022201Y-79874829D01*
X117001378Y-79465171D01*
X117227799Y-79465171D01*
X117255770Y-80015448D01*
X117412540Y-80393923D01*
X117653483Y-80461912D01*
X118445395Y-79670000D01*
X117653483Y-78878088D01*
X117412540Y-78946077D01*
X117227799Y-79465171D01*
X117001378Y-79465171D01*
X116994230Y-79324552D01*
X116837460Y-78946077D01*
X116596517Y-78878088D01*
X115804605Y-79670000D01*
X115445395Y-79670000D01*
X115431253Y-79655858D01*
X115610858Y-79476253D01*
X115625000Y-79490395D01*
X116416912Y-78698483D01*
X116348923Y-78457540D01*
X115829829Y-78272799D01*
X115279552Y-78300770D01*
X114901077Y-78457540D01*
X114833089Y-78698481D01*
X114746548Y-78611940D01*
X115323089Y-78035398D01*
X115351098Y-78047000D01*
X115898902Y-78047000D01*
X116405008Y-77837364D01*
X116792364Y-77450008D01*
X117002000Y-76943902D01*
X117002000Y-76396098D01*
X116792364Y-75889992D01*
X116405008Y-75502636D01*
X115898902Y-75293000D01*
X115351098Y-75293000D01*
X114844992Y-75502636D01*
X114457636Y-75889992D01*
X114248000Y-76396098D01*
X114248000Y-76943902D01*
X114259602Y-76971911D01*
X113070627Y-78160886D01*
X113007840Y-78202839D01*
X112965887Y-78265626D01*
X112965886Y-78265627D01*
X112841632Y-78451585D01*
X112783269Y-78745000D01*
X112798001Y-78819064D01*
X112798000Y-86075941D01*
X112783269Y-86150000D01*
X112798000Y-86224059D01*
X112798000Y-86224062D01*
X112841632Y-86443415D01*
X113007839Y-86692161D01*
X113070629Y-86734116D01*
X118759512Y-92423000D01*
X118415608Y-92423000D01*
X118074897Y-92564127D01*
X118041024Y-92598000D01*
X116258976Y-92598000D01*
X116225103Y-92564127D01*
X115884392Y-92423000D01*
X115515608Y-92423000D01*
X115174897Y-92564127D01*
X114914127Y-92824897D01*
X114773000Y-93165608D01*
X114773000Y-93534392D01*
X114914127Y-93875103D01*
X115174897Y-94135873D01*
X115515608Y-94277000D01*
X115884392Y-94277000D01*
X116225103Y-94135873D01*
X116258976Y-94102000D01*
X118041024Y-94102000D01*
X118074897Y-94135873D01*
X118415608Y-94277000D01*
X118784392Y-94277000D01*
X119125103Y-94135873D01*
X119385873Y-93875103D01*
X119527000Y-93534392D01*
X119527000Y-93190488D01*
X122534512Y-96198000D01*
X120525000Y-96198000D01*
X120285057Y-96245728D01*
X120081644Y-96381644D01*
X119945728Y-96585057D01*
X119898000Y-96825000D01*
X119898000Y-97825000D01*
X119945728Y-98064943D01*
X120081644Y-98268356D01*
X120285057Y-98404272D01*
X120525000Y-98452000D01*
X123721715Y-98452000D01*
X123814127Y-98675103D01*
X124074897Y-98935873D01*
X124415608Y-99077000D01*
X124784392Y-99077000D01*
X125125103Y-98935873D01*
X125385873Y-98675103D01*
X125478285Y-98452000D01*
X126756001Y-98452000D01*
X126756000Y-99764512D01*
X126602082Y-99918430D01*
X126422392Y-99844000D01*
X126053608Y-99844000D01*
X125712897Y-99985127D01*
X125452127Y-100245897D01*
X125311000Y-100586608D01*
X125311000Y-100955392D01*
X125452127Y-101296103D01*
X125512024Y-101356000D01*
X122739488Y-101356000D01*
X122652000Y-101268513D01*
X122652000Y-101008976D01*
X122685873Y-100975103D01*
X122827000Y-100634392D01*
X122827000Y-100265608D01*
X122685873Y-99924897D01*
X122425103Y-99664127D01*
X122084392Y-99523000D01*
X121715608Y-99523000D01*
X121374897Y-99664127D01*
X121114127Y-99924897D01*
X120973000Y-100265608D01*
X120973000Y-100423000D01*
X120865608Y-100423000D01*
X120524897Y-100564127D01*
X120264127Y-100824897D01*
X120123000Y-101165608D01*
X120123000Y-101534392D01*
X120264127Y-101875103D01*
X120313059Y-101924035D01*
X120341632Y-102067680D01*
X120507840Y-102316425D01*
X120570627Y-102358378D01*
X121307623Y-103095376D01*
X121349575Y-103158161D01*
X121412359Y-103200112D01*
X121412361Y-103200114D01*
X121474979Y-103241954D01*
X121598320Y-103324368D01*
X121817673Y-103368000D01*
X121817677Y-103368000D01*
X121891735Y-103382731D01*
X121965793Y-103368000D01*
X129109941Y-103368000D01*
X129184000Y-103382731D01*
X129258059Y-103368000D01*
X129258063Y-103368000D01*
X129477416Y-103324368D01*
X129726161Y-103158161D01*
X129768116Y-103095371D01*
X131398000Y-101465487D01*
X131398000Y-104404000D01*
X130269060Y-104404000D01*
X130195001Y-104389269D01*
X130120942Y-104404000D01*
X130120939Y-104404000D01*
X129901586Y-104447632D01*
X129652841Y-104613839D01*
X129610887Y-104676627D01*
X128089515Y-106198000D01*
X122852210Y-106198000D01*
X122726526Y-106173000D01*
X122033976Y-106173000D01*
X122025103Y-106164127D01*
X121684392Y-106023000D01*
X121315608Y-106023000D01*
X120974897Y-106164127D01*
X120875000Y-106264024D01*
X120775103Y-106164127D01*
X120434392Y-106023000D01*
X120065608Y-106023000D01*
X119724897Y-106164127D01*
X119691024Y-106198000D01*
X116761488Y-106198000D01*
X116652000Y-106088512D01*
X116652000Y-97174059D01*
X116666731Y-97100000D01*
X116652000Y-97025941D01*
X116652000Y-97025937D01*
X116608368Y-96806584D01*
X116560131Y-96734392D01*
X116484115Y-96620626D01*
X116484112Y-96620623D01*
X116442161Y-96557839D01*
X116379376Y-96515887D01*
X110984116Y-91120629D01*
X110942161Y-91057839D01*
X110693416Y-90891632D01*
X110474063Y-90848000D01*
X110474059Y-90848000D01*
X110400000Y-90833269D01*
X110325941Y-90848000D01*
X106911488Y-90848000D01*
X105827000Y-89763513D01*
X105827000Y-89715608D01*
X105685873Y-89374897D01*
X105425103Y-89114127D01*
X105084392Y-88973000D01*
X104715608Y-88973000D01*
X104374897Y-89114127D01*
X104114127Y-89374897D01*
X104004075Y-89640587D01*
X103927000Y-89563513D01*
X103927000Y-89515608D01*
X103785873Y-89174897D01*
X103525103Y-88914127D01*
X103184392Y-88773000D01*
X102815608Y-88773000D01*
X102474897Y-88914127D01*
X102214127Y-89174897D01*
X102073000Y-89515608D01*
X102073000Y-89884392D01*
X102214127Y-90225103D01*
X102474897Y-90485873D01*
X102815608Y-90627000D01*
X102863513Y-90627000D01*
X104765885Y-92529373D01*
X104807839Y-92592161D01*
X105056584Y-92758368D01*
X105275937Y-92802000D01*
X105275941Y-92802000D01*
X105350000Y-92816731D01*
X105424059Y-92802000D01*
X109788513Y-92802000D01*
X113387768Y-96401256D01*
X113214127Y-96574897D01*
X113073000Y-96915608D01*
X113073000Y-97284392D01*
X113214127Y-97625103D01*
X113248001Y-97658977D01*
X113248000Y-99641024D01*
X113164127Y-99724897D01*
X113023000Y-100065608D01*
X113023000Y-100434392D01*
X113164127Y-100775103D01*
X113424897Y-101035873D01*
X113765608Y-101177000D01*
X114134392Y-101177000D01*
X114475103Y-101035873D01*
X114498001Y-101012975D01*
X114498000Y-106675941D01*
X114483269Y-106750000D01*
X114498000Y-106824059D01*
X114498000Y-106824062D01*
X114541632Y-107043415D01*
X114707839Y-107292161D01*
X114770629Y-107334116D01*
X115515887Y-108079376D01*
X115557839Y-108142161D01*
X115620623Y-108184112D01*
X115620626Y-108184115D01*
X115754562Y-108273608D01*
X115806584Y-108308368D01*
X116025937Y-108352000D01*
X116025941Y-108352000D01*
X116100000Y-108366731D01*
X116174059Y-108352000D01*
X116641024Y-108352000D01*
X116674897Y-108385873D01*
X117015608Y-108527000D01*
X117384392Y-108527000D01*
X117725103Y-108385873D01*
X117985873Y-108125103D01*
X118127000Y-107784392D01*
X118127000Y-107702000D01*
X119691024Y-107702000D01*
X119724897Y-107735873D01*
X120065608Y-107877000D01*
X120434392Y-107877000D01*
X120775103Y-107735873D01*
X120875000Y-107635976D01*
X120974897Y-107735873D01*
X121315608Y-107877000D01*
X121684392Y-107877000D01*
X122025103Y-107735873D01*
X122033976Y-107727000D01*
X122726526Y-107727000D01*
X122852210Y-107702000D01*
X128326943Y-107702000D01*
X128401002Y-107716731D01*
X128475061Y-107702000D01*
X128475065Y-107702000D01*
X128694418Y-107658368D01*
X128943163Y-107492161D01*
X128985118Y-107429371D01*
X130506490Y-105908000D01*
X131398000Y-105908000D01*
X131398000Y-112198000D01*
X130719487Y-112198000D01*
X129784000Y-111262513D01*
X129784000Y-110286976D01*
X129817873Y-110253103D01*
X129959000Y-109912392D01*
X129959000Y-109543608D01*
X129817873Y-109202897D01*
X129557103Y-108942127D01*
X129216392Y-108801000D01*
X128847608Y-108801000D01*
X128506897Y-108942127D01*
X128246127Y-109202897D01*
X128105000Y-109543608D01*
X128105000Y-109912392D01*
X128246127Y-110253103D01*
X128280000Y-110286976D01*
X128280001Y-111499937D01*
X128265269Y-111574000D01*
X128323632Y-111867415D01*
X128421578Y-112014000D01*
X128489840Y-112116161D01*
X128552627Y-112158114D01*
X128592513Y-112198000D01*
X121890976Y-112198000D01*
X121683103Y-111990127D01*
X121342392Y-111849000D01*
X120973608Y-111849000D01*
X120632897Y-111990127D01*
X120425024Y-112198000D01*
X120053000Y-112198000D01*
X120053000Y-111829608D01*
X119911873Y-111488897D01*
X119651103Y-111228127D01*
X119310392Y-111087000D01*
X118941608Y-111087000D01*
X118600897Y-111228127D01*
X118340127Y-111488897D01*
X118199000Y-111829608D01*
X118199000Y-111877511D01*
X117878511Y-112198000D01*
X115802000Y-112198000D01*
X115802000Y-110575000D01*
X115754272Y-110335057D01*
X115618356Y-110131644D01*
X115414943Y-109995728D01*
X115175000Y-109948000D01*
X113875000Y-109948000D01*
X113635057Y-109995728D01*
X113431644Y-110131644D01*
X113295728Y-110335057D01*
X113248000Y-110575000D01*
X113248000Y-113575000D01*
X113295728Y-113814943D01*
X113431644Y-114018356D01*
X113635057Y-114154272D01*
X113875000Y-114202000D01*
X115874512Y-114202000D01*
X111956513Y-118120000D01*
X97078976Y-118120000D01*
X97045103Y-118086127D01*
X96704392Y-117945000D01*
X96335608Y-117945000D01*
X95994897Y-118086127D01*
X95734127Y-118346897D01*
X95593000Y-118687608D01*
X95593000Y-119056392D01*
X95734127Y-119397103D01*
X95994897Y-119657873D01*
X96335608Y-119799000D01*
X96704392Y-119799000D01*
X97045103Y-119657873D01*
X97078976Y-119624000D01*
X98434628Y-119624000D01*
X98170636Y-119887992D01*
X97961000Y-120394098D01*
X97961000Y-120941902D01*
X98170636Y-121448008D01*
X98273628Y-121551000D01*
X93073265Y-121551000D01*
X90031000Y-118508736D01*
X90031000Y-106495608D01*
X94577000Y-106495608D01*
X94577000Y-106864392D01*
X94718127Y-107205103D01*
X94978897Y-107465873D01*
X95319608Y-107607000D01*
X95367513Y-107607000D01*
X96697885Y-108937373D01*
X96739839Y-109000161D01*
X96988584Y-109166368D01*
X97207937Y-109210000D01*
X97207941Y-109210000D01*
X97236755Y-109215731D01*
X97264897Y-109243873D01*
X97605608Y-109385000D01*
X97918741Y-109385000D01*
X97873068Y-112490780D01*
X97920728Y-112739943D01*
X98056644Y-112943356D01*
X98260057Y-113079272D01*
X98500000Y-113127000D01*
X100500000Y-113127000D01*
X100731399Y-113082738D01*
X100936789Y-112949827D01*
X101075682Y-112748434D01*
X101126932Y-112509220D01*
X101160126Y-110252000D01*
X105274063Y-110252000D01*
X105493416Y-110208368D01*
X105742161Y-110042161D01*
X105908368Y-109793416D01*
X105966732Y-109500000D01*
X105908368Y-109206584D01*
X105742161Y-108957839D01*
X105493416Y-108791632D01*
X105274063Y-108748000D01*
X101054398Y-108748000D01*
X100993356Y-108656644D01*
X100789943Y-108520728D01*
X100550000Y-108473000D01*
X98717000Y-108473000D01*
X98717000Y-108273608D01*
X98575873Y-107932897D01*
X98315103Y-107672127D01*
X97974392Y-107531000D01*
X97605608Y-107531000D01*
X97473294Y-107585806D01*
X96431000Y-106543513D01*
X96431000Y-106495608D01*
X96289873Y-106154897D01*
X96029103Y-105894127D01*
X95688392Y-105753000D01*
X95319608Y-105753000D01*
X94978897Y-105894127D01*
X94718127Y-106154897D01*
X94577000Y-106495608D01*
X90031000Y-106495608D01*
X90031000Y-98140608D01*
X103748000Y-98140608D01*
X103748000Y-98509392D01*
X103889127Y-98850103D01*
X104149897Y-99110873D01*
X104490608Y-99252000D01*
X104523001Y-99252000D01*
X104523000Y-102874062D01*
X104523001Y-102874067D01*
X104523000Y-105250941D01*
X104508269Y-105325000D01*
X104523000Y-105399059D01*
X104523000Y-105399062D01*
X104566632Y-105618415D01*
X104732839Y-105867161D01*
X104795629Y-105909116D01*
X106615885Y-107729373D01*
X106657839Y-107792161D01*
X106906584Y-107958368D01*
X107125937Y-108002000D01*
X107125940Y-108002000D01*
X107199999Y-108016731D01*
X107274058Y-108002000D01*
X111375941Y-108002000D01*
X111450000Y-108016731D01*
X111524059Y-108002000D01*
X111524063Y-108002000D01*
X111743416Y-107958368D01*
X111992161Y-107792161D01*
X112034116Y-107729371D01*
X113386489Y-106377000D01*
X113434392Y-106377000D01*
X113775103Y-106235873D01*
X114035873Y-105975103D01*
X114177000Y-105634392D01*
X114177000Y-105265608D01*
X114035873Y-104924897D01*
X113775103Y-104664127D01*
X113584931Y-104585355D01*
X113825103Y-104485873D01*
X114085873Y-104225103D01*
X114227000Y-103884392D01*
X114227000Y-103515608D01*
X114085873Y-103174897D01*
X113825103Y-102914127D01*
X113805124Y-102905852D01*
X113835873Y-102875103D01*
X113977000Y-102534392D01*
X113977000Y-102165608D01*
X113835873Y-101824897D01*
X113575103Y-101564127D01*
X113234392Y-101423000D01*
X112865608Y-101423000D01*
X112524897Y-101564127D01*
X112264127Y-101824897D01*
X112123000Y-102165608D01*
X112123000Y-102248867D01*
X111750694Y-102621174D01*
X111634392Y-102573000D01*
X111265608Y-102573000D01*
X110924897Y-102714127D01*
X110664127Y-102974897D01*
X110523000Y-103315608D01*
X110523000Y-103684392D01*
X110664127Y-104025103D01*
X110924897Y-104285873D01*
X111265608Y-104427000D01*
X111509513Y-104427000D01*
X110820629Y-105115884D01*
X110757839Y-105157839D01*
X110591632Y-105406584D01*
X110581499Y-105457525D01*
X110514127Y-105524897D01*
X110373000Y-105865608D01*
X110373000Y-106234392D01*
X110482190Y-106498000D01*
X107511488Y-106498000D01*
X106027000Y-105013513D01*
X106027000Y-98999058D01*
X106041731Y-98924999D01*
X106027000Y-98850940D01*
X106027000Y-98850937D01*
X105983368Y-98631584D01*
X105817161Y-98382839D01*
X105754373Y-98340885D01*
X105629096Y-98215608D01*
X106123000Y-98215608D01*
X106123000Y-98584392D01*
X106264127Y-98925103D01*
X106524897Y-99185873D01*
X106865608Y-99327000D01*
X106913512Y-99327000D01*
X107498001Y-99911489D01*
X107498000Y-100191024D01*
X107464127Y-100224897D01*
X107323000Y-100565608D01*
X107323000Y-100934392D01*
X107464127Y-101275103D01*
X107498000Y-101308976D01*
X107498001Y-101816023D01*
X107439127Y-101874897D01*
X107298000Y-102215608D01*
X107298000Y-102584392D01*
X107439127Y-102925103D01*
X107699897Y-103185873D01*
X108040608Y-103327000D01*
X108409392Y-103327000D01*
X108750103Y-103185873D01*
X109010873Y-102925103D01*
X109152000Y-102584392D01*
X109152000Y-102215608D01*
X109010873Y-101874897D01*
X108952000Y-101816024D01*
X108952000Y-101358976D01*
X109035873Y-101275103D01*
X109177000Y-100934392D01*
X109177000Y-100565608D01*
X109035873Y-100224897D01*
X109002000Y-100191024D01*
X109002000Y-99674058D01*
X109016731Y-99599999D01*
X109002000Y-99525940D01*
X109002000Y-99525937D01*
X108958368Y-99306584D01*
X108869110Y-99173000D01*
X108834114Y-99120625D01*
X108834112Y-99120623D01*
X108792161Y-99057839D01*
X108729376Y-99015887D01*
X107977000Y-98263512D01*
X107977000Y-98215608D01*
X107835873Y-97874897D01*
X107575103Y-97614127D01*
X107234392Y-97473000D01*
X106865608Y-97473000D01*
X106524897Y-97614127D01*
X106264127Y-97874897D01*
X106123000Y-98215608D01*
X105629096Y-98215608D01*
X105602000Y-98188512D01*
X105602000Y-98140608D01*
X105460873Y-97799897D01*
X105200103Y-97539127D01*
X104859392Y-97398000D01*
X104490608Y-97398000D01*
X104149897Y-97539127D01*
X103889127Y-97799897D01*
X103748000Y-98140608D01*
X90031000Y-98140608D01*
X90031000Y-81899610D01*
X97371000Y-81899610D01*
X97371000Y-82268394D01*
X97512127Y-82609105D01*
X97772897Y-82869875D01*
X97893610Y-82919876D01*
X100132793Y-85159061D01*
X100181718Y-85232282D01*
X100254939Y-85281207D01*
X100254942Y-85281210D01*
X100407685Y-85383269D01*
X100471811Y-85426117D01*
X100727624Y-85477001D01*
X100727629Y-85477001D01*
X100813999Y-85494181D01*
X100900369Y-85477001D01*
X101399631Y-85477001D01*
X101486001Y-85494181D01*
X101572371Y-85477001D01*
X101572376Y-85477001D01*
X101828189Y-85426117D01*
X102118282Y-85232282D01*
X102167211Y-85159055D01*
X104915267Y-82411000D01*
X108625630Y-82411000D01*
X108712000Y-82428180D01*
X108798370Y-82411000D01*
X108798375Y-82411000D01*
X109054188Y-82360116D01*
X109344281Y-82166281D01*
X109393210Y-82093054D01*
X111148393Y-80337873D01*
X111269103Y-80287873D01*
X111529873Y-80027103D01*
X111671000Y-79686392D01*
X111671000Y-79317608D01*
X111529873Y-78976897D01*
X111269103Y-78716127D01*
X110928392Y-78575000D01*
X110559608Y-78575000D01*
X110218897Y-78716127D01*
X109958127Y-78976897D01*
X109908127Y-79097607D01*
X109195855Y-79809879D01*
X108950103Y-79564127D01*
X108609392Y-79423000D01*
X108561488Y-79423000D01*
X107259116Y-78120629D01*
X107217161Y-78057839D01*
X106968416Y-77891632D01*
X106749063Y-77848000D01*
X106749059Y-77848000D01*
X106675000Y-77833269D01*
X106600941Y-77848000D01*
X104533976Y-77848000D01*
X104500103Y-77814127D01*
X104159392Y-77673000D01*
X103908976Y-77673000D01*
X103750103Y-77514127D01*
X103409392Y-77373000D01*
X103040608Y-77373000D01*
X102699897Y-77514127D01*
X102666024Y-77548000D01*
X102624058Y-77548000D01*
X102549999Y-77533269D01*
X102475940Y-77548000D01*
X102475937Y-77548000D01*
X102256584Y-77591632D01*
X102070625Y-77715886D01*
X102070623Y-77715888D01*
X102007839Y-77757839D01*
X101965887Y-77820624D01*
X100720627Y-79065886D01*
X100657840Y-79107839D01*
X100615887Y-79170626D01*
X100615886Y-79170627D01*
X100491632Y-79356585D01*
X100433269Y-79650000D01*
X100448001Y-79724064D01*
X100448000Y-82993737D01*
X99133874Y-81679612D01*
X99083873Y-81558899D01*
X98823103Y-81298129D01*
X98482392Y-81157002D01*
X98113608Y-81157002D01*
X97772897Y-81298129D01*
X97512127Y-81558899D01*
X97371000Y-81899610D01*
X90031000Y-81899610D01*
X90031000Y-80627264D01*
X91549266Y-79109000D01*
X93928897Y-79109000D01*
X94049608Y-79159000D01*
X94418392Y-79159000D01*
X94759103Y-79017873D01*
X95019873Y-78757103D01*
X95161000Y-78416392D01*
X95161000Y-78047608D01*
X95019873Y-77706897D01*
X94759103Y-77446127D01*
X94418392Y-77305000D01*
X94049608Y-77305000D01*
X93928897Y-77355000D01*
X91272370Y-77355000D01*
X91186000Y-77337820D01*
X91099630Y-77355000D01*
X91099625Y-77355000D01*
X90843812Y-77405884D01*
X90843810Y-77405885D01*
X90843811Y-77405885D01*
X90626943Y-77550791D01*
X90626940Y-77550794D01*
X90553719Y-77599719D01*
X90504794Y-77672940D01*
X88594946Y-79582790D01*
X88521719Y-79631719D01*
X88327884Y-79921813D01*
X88277000Y-80177626D01*
X88277000Y-80177630D01*
X88259820Y-80264000D01*
X84497000Y-80264000D01*
X84497000Y-73784844D01*
X99894060Y-73784844D01*
X99894060Y-74215156D01*
X100058733Y-74612711D01*
X100363009Y-74916987D01*
X100760564Y-75081660D01*
X101190876Y-75081660D01*
X101588431Y-74916987D01*
X101892707Y-74612711D01*
X102057380Y-74215156D01*
X102057380Y-73784844D01*
X104293340Y-73784844D01*
X104293340Y-74215156D01*
X104458013Y-74612711D01*
X104762289Y-74916987D01*
X105159844Y-75081660D01*
X105590156Y-75081660D01*
X105987711Y-74916987D01*
X106291987Y-74612711D01*
X106456660Y-74215156D01*
X106456660Y-73784844D01*
X106291987Y-73387289D01*
X105987711Y-73083013D01*
X105590156Y-72918340D01*
X105159844Y-72918340D01*
X104762289Y-73083013D01*
X104458013Y-73387289D01*
X104293340Y-73784844D01*
X102057380Y-73784844D01*
X101892707Y-73387289D01*
X101588431Y-73083013D01*
X101190876Y-72918340D01*
X100760564Y-72918340D01*
X100363009Y-73083013D01*
X100058733Y-73387289D01*
X99894060Y-73784844D01*
X84497000Y-73784844D01*
X84497000Y-71845246D01*
X85096697Y-72444943D01*
X86246001Y-72921000D01*
X87489999Y-72921000D01*
X88639303Y-72444943D01*
X89157333Y-71926913D01*
X116498000Y-71926913D01*
X116498000Y-72773087D01*
X116821817Y-73554848D01*
X117420152Y-74153183D01*
X118201913Y-74477000D01*
X119048087Y-74477000D01*
X119829848Y-74153183D01*
X120428183Y-73554848D01*
X120752000Y-72773087D01*
X120752000Y-71926913D01*
X130748000Y-71926913D01*
X130748000Y-72773087D01*
X131071817Y-73554848D01*
X131670152Y-74153183D01*
X132451913Y-74477000D01*
X133298087Y-74477000D01*
X134079848Y-74153183D01*
X134678183Y-73554848D01*
X135002000Y-72773087D01*
X135002000Y-71926913D01*
X142907000Y-71926913D01*
X142907000Y-72773087D01*
X143230817Y-73554848D01*
X143829152Y-74153183D01*
X144610913Y-74477000D01*
X145457087Y-74477000D01*
X146238848Y-74153183D01*
X146837183Y-73554848D01*
X147161000Y-72773087D01*
X147161000Y-71926913D01*
X154845000Y-71926913D01*
X154845000Y-72773087D01*
X155168817Y-73554848D01*
X155767152Y-74153183D01*
X156548913Y-74477000D01*
X157395087Y-74477000D01*
X158176848Y-74153183D01*
X158775183Y-73554848D01*
X159099000Y-72773087D01*
X159099000Y-71926913D01*
X158775183Y-71145152D01*
X158176848Y-70546817D01*
X157395087Y-70223000D01*
X156548913Y-70223000D01*
X155767152Y-70546817D01*
X155168817Y-71145152D01*
X154845000Y-71926913D01*
X147161000Y-71926913D01*
X146837183Y-71145152D01*
X146238848Y-70546817D01*
X145457087Y-70223000D01*
X144610913Y-70223000D01*
X143829152Y-70546817D01*
X143230817Y-71145152D01*
X142907000Y-71926913D01*
X135002000Y-71926913D01*
X134678183Y-71145152D01*
X134079848Y-70546817D01*
X133298087Y-70223000D01*
X132451913Y-70223000D01*
X131670152Y-70546817D01*
X131071817Y-71145152D01*
X130748000Y-71926913D01*
X120752000Y-71926913D01*
X120428183Y-71145152D01*
X119829848Y-70546817D01*
X119048087Y-70223000D01*
X118201913Y-70223000D01*
X117420152Y-70546817D01*
X116821817Y-71145152D01*
X116498000Y-71926913D01*
X89157333Y-71926913D01*
X89518943Y-71565303D01*
X89995000Y-70415999D01*
X89995000Y-69172001D01*
X89518943Y-68022697D01*
X88721246Y-67225000D01*
X165014754Y-67225000D01*
X164217057Y-68022697D01*
G36*
X141567000Y-104971608D02*
X141567000Y-105340392D01*
X141708127Y-105681103D01*
X141968897Y-105941873D01*
X142309608Y-106083000D01*
X142678392Y-106083000D01*
X143019103Y-105941873D01*
X143052976Y-105908000D01*
X143377975Y-105908000D01*
X143345000Y-105987608D01*
X143345000Y-106035511D01*
X141228629Y-108151884D01*
X141165839Y-108193839D01*
X140999632Y-108442585D01*
X140956000Y-108661938D01*
X140956000Y-108661941D01*
X140941269Y-108736000D01*
X140956000Y-108810059D01*
X140956001Y-116952034D01*
X140900392Y-116929000D01*
X140531608Y-116929000D01*
X140410897Y-116979000D01*
X137269266Y-116979000D01*
X134492265Y-114202000D01*
X134675000Y-114202000D01*
X134914943Y-114154272D01*
X135118356Y-114018356D01*
X135254272Y-113814943D01*
X135302000Y-113575000D01*
X135302000Y-105908000D01*
X137109024Y-105908000D01*
X137142897Y-105941873D01*
X137483608Y-106083000D01*
X137773000Y-106083000D01*
X137773001Y-108809540D01*
X137698000Y-108990608D01*
X137698000Y-109359392D01*
X137839127Y-109700103D01*
X138099897Y-109960873D01*
X138440608Y-110102000D01*
X138573005Y-110102000D01*
X138573005Y-110988819D01*
X138448000Y-111290608D01*
X138448000Y-111659392D01*
X138589127Y-112000103D01*
X138849897Y-112260873D01*
X139190608Y-112402000D01*
X139559392Y-112402000D01*
X139900103Y-112260873D01*
X140160873Y-112000103D01*
X140302000Y-111659392D01*
X140302000Y-111290608D01*
X140160873Y-110949897D01*
X140077004Y-110866028D01*
X140077004Y-106186483D01*
X141536489Y-104727000D01*
X141584392Y-104727000D01*
X141685702Y-104685036D01*
X141567000Y-104971608D01*
X141567000Y-104971608D01*
G37*
X141567000Y-104971608D02*
X141567000Y-105340392D01*
X141708127Y-105681103D01*
X141968897Y-105941873D01*
X142309608Y-106083000D01*
X142678392Y-106083000D01*
X143019103Y-105941873D01*
X143052976Y-105908000D01*
X143377975Y-105908000D01*
X143345000Y-105987608D01*
X143345000Y-106035511D01*
X141228629Y-108151884D01*
X141165839Y-108193839D01*
X140999632Y-108442585D01*
X140956000Y-108661938D01*
X140956000Y-108661941D01*
X140941269Y-108736000D01*
X140956000Y-108810059D01*
X140956001Y-116952034D01*
X140900392Y-116929000D01*
X140531608Y-116929000D01*
X140410897Y-116979000D01*
X137269266Y-116979000D01*
X134492265Y-114202000D01*
X134675000Y-114202000D01*
X134914943Y-114154272D01*
X135118356Y-114018356D01*
X135254272Y-113814943D01*
X135302000Y-113575000D01*
X135302000Y-105908000D01*
X137109024Y-105908000D01*
X137142897Y-105941873D01*
X137483608Y-106083000D01*
X137773000Y-106083000D01*
X137773001Y-108809540D01*
X137698000Y-108990608D01*
X137698000Y-109359392D01*
X137839127Y-109700103D01*
X138099897Y-109960873D01*
X138440608Y-110102000D01*
X138573005Y-110102000D01*
X138573005Y-110988819D01*
X138448000Y-111290608D01*
X138448000Y-111659392D01*
X138589127Y-112000103D01*
X138849897Y-112260873D01*
X139190608Y-112402000D01*
X139559392Y-112402000D01*
X139900103Y-112260873D01*
X140160873Y-112000103D01*
X140302000Y-111659392D01*
X140302000Y-111290608D01*
X140160873Y-110949897D01*
X140077004Y-110866028D01*
X140077004Y-106186483D01*
X141536489Y-104727000D01*
X141584392Y-104727000D01*
X141685702Y-104685036D01*
X141567000Y-104971608D01*
G04 #@! TD*
M02*
