G04 #@! TF.GenerationSoftware,KiCad,Pcbnew,(5.0.2)-1*
G04 #@! TF.CreationDate,2019-05-11T15:19:44-06:00*
G04 #@! TF.ProjectId,AndromedaV2.2,416e6472-6f6d-4656-9461-56322e322e6b,rev?*
G04 #@! TF.SameCoordinates,Original*
G04 #@! TF.FileFunction,Paste,Top*
G04 #@! TF.FilePolarity,Positive*
%FSLAX46Y46*%
G04 Gerber Fmt 4.6, Leading zero omitted, Abs format (unit mm)*
G04 Created by KiCad (PCBNEW (5.0.2)-1) date 2019-05-11 3:19:44 PM*
%MOMM*%
%LPD*%
G01*
G04 APERTURE LIST*
%ADD10C,0.100000*%
%ADD11R,0.700000X1.200000*%
%ADD12R,1.000000X1.200000*%
%ADD13R,1.000000X0.800000*%
%ADD14R,1.000000X2.800000*%
%ADD15R,1.300000X1.900000*%
%ADD16R,1.400000X1.120000*%
%ADD17R,0.900000X0.800000*%
%ADD18R,1.120000X1.400000*%
%ADD19R,0.400000X1.200000*%
%ADD20R,0.650000X1.060000*%
%ADD21R,0.250000X1.000000*%
%ADD22R,1.000000X0.250000*%
%ADD23R,0.950000X0.550000*%
%ADD24R,0.230000X0.350000*%
%ADD25R,0.350000X0.230000*%
%ADD26R,4.500000X2.000000*%
%ADD27R,0.500000X0.900000*%
%ADD28R,0.900000X0.500000*%
%ADD29R,0.750000X0.800000*%
%ADD30R,0.800000X0.750000*%
%ADD31R,1.450000X0.450000*%
%ADD32R,0.450000X0.600000*%
%ADD33R,1.998980X2.499360*%
%ADD34R,0.500380X2.301240*%
%ADD35R,2.000000X0.800000*%
G04 APERTURE END LIST*
D10*
X169926000Y-66548000D02*
X169926000Y-67818000D01*
X83820000Y-66548000D02*
X169926000Y-66548000D01*
X83820000Y-67818000D02*
X83820000Y-66548000D01*
X83820000Y-67818000D02*
X83820000Y-132842000D01*
X169926000Y-132842000D02*
X169926000Y-67818000D01*
X83820000Y-132842000D02*
X169926000Y-132842000D01*
D11*
G04 #@! TO.C,J12*
X148576000Y-114970000D03*
X149526000Y-114970000D03*
X157226000Y-114970000D03*
X156126000Y-114970000D03*
X155026000Y-114970000D03*
X153926000Y-114970000D03*
X152826000Y-114970000D03*
X151726000Y-114970000D03*
X150626000Y-114970000D03*
D12*
X158776000Y-114970000D03*
X147626000Y-119270000D03*
D13*
X147626000Y-125470000D03*
D14*
X147626000Y-129620000D03*
D15*
X161126000Y-130070000D03*
G04 #@! TD*
D16*
G04 #@! TO.C,D1*
X100075000Y-86390000D03*
X100075000Y-88150000D03*
G04 #@! TD*
G04 #@! TO.C,D2*
X97525000Y-86350000D03*
X97525000Y-88110000D03*
G04 #@! TD*
D17*
G04 #@! TO.C,D3*
X97125000Y-83000000D03*
X97125000Y-81100000D03*
X95125000Y-82050000D03*
G04 #@! TD*
D18*
G04 #@! TO.C,D4*
X92165000Y-92200000D03*
X93925000Y-92200000D03*
G04 #@! TD*
G04 #@! TO.C,D5*
X92353000Y-95898000D03*
X90593000Y-95898000D03*
G04 #@! TD*
G04 #@! TO.C,D6*
X92353000Y-104898000D03*
X90593000Y-104898000D03*
G04 #@! TD*
D19*
G04 #@! TO.C,U1*
X103030000Y-88700000D03*
X103665000Y-88700000D03*
X104300000Y-88700000D03*
X104935000Y-88700000D03*
X105570000Y-88700000D03*
X106205000Y-88700000D03*
X106840000Y-88700000D03*
X107475000Y-88700000D03*
X107475000Y-83500000D03*
X106840000Y-83500000D03*
X106205000Y-83500000D03*
X105570000Y-83500000D03*
X104935000Y-83500000D03*
X104300000Y-83500000D03*
X103665000Y-83500000D03*
X103030000Y-83500000D03*
G04 #@! TD*
D20*
G04 #@! TO.C,U2*
X141425000Y-90050000D03*
X140475000Y-90050000D03*
X139525000Y-90050000D03*
X139525000Y-92250000D03*
X141425000Y-92250000D03*
X140475000Y-92250000D03*
G04 #@! TD*
D17*
G04 #@! TO.C,U3*
X90725000Y-81100000D03*
X90725000Y-83000000D03*
X92725000Y-82050000D03*
G04 #@! TD*
D21*
G04 #@! TO.C,U5*
X128375000Y-99300000D03*
X127875000Y-99300000D03*
X127375000Y-99300000D03*
X126875000Y-99300000D03*
X126375000Y-99300000D03*
X125875000Y-99300000D03*
X125375000Y-99300000D03*
X124875000Y-99300000D03*
X124375000Y-99300000D03*
X123875000Y-99300000D03*
X123375000Y-99300000D03*
X122875000Y-99300000D03*
X122375000Y-99300000D03*
X121875000Y-99300000D03*
X121375000Y-99300000D03*
X120875000Y-99300000D03*
D22*
X118925000Y-101250000D03*
X118925000Y-101750000D03*
X118925000Y-102250000D03*
X118925000Y-102750000D03*
X118925000Y-103250000D03*
X118925000Y-103750000D03*
X118925000Y-104250000D03*
X118925000Y-104750000D03*
X118925000Y-105250000D03*
X118925000Y-105750000D03*
X118925000Y-106250000D03*
X118925000Y-106750000D03*
X118925000Y-107250000D03*
X118925000Y-107750000D03*
X118925000Y-108250000D03*
X118925000Y-108750000D03*
D21*
X120875000Y-110700000D03*
X121375000Y-110700000D03*
X121875000Y-110700000D03*
X122375000Y-110700000D03*
X122875000Y-110700000D03*
X123375000Y-110700000D03*
X123875000Y-110700000D03*
X124375000Y-110700000D03*
X124875000Y-110700000D03*
X125375000Y-110700000D03*
X125875000Y-110700000D03*
X126375000Y-110700000D03*
X126875000Y-110700000D03*
X127375000Y-110700000D03*
X127875000Y-110700000D03*
X128375000Y-110700000D03*
D22*
X130325000Y-108750000D03*
X130325000Y-108250000D03*
X130325000Y-107750000D03*
X130325000Y-107250000D03*
X130325000Y-106750000D03*
X130325000Y-106250000D03*
X130325000Y-105750000D03*
X130325000Y-105250000D03*
X130325000Y-104750000D03*
X130325000Y-104250000D03*
X130325000Y-103750000D03*
X130325000Y-103250000D03*
X130325000Y-102750000D03*
X130325000Y-102250000D03*
X130325000Y-101750000D03*
X130325000Y-101250000D03*
G04 #@! TD*
D23*
G04 #@! TO.C,U6*
X90619000Y-114397000D03*
X90619000Y-110647000D03*
X90619000Y-111897000D03*
X90619000Y-113147000D03*
X92769000Y-110647000D03*
X92769000Y-111897000D03*
X92769000Y-113147000D03*
X92769000Y-114397000D03*
G04 #@! TD*
D24*
G04 #@! TO.C,U7*
X104130000Y-103225000D03*
D25*
X104100000Y-102645000D03*
X101150000Y-102645000D03*
X104100000Y-102215000D03*
X101150000Y-102215000D03*
X104100000Y-101785000D03*
X101150000Y-101785000D03*
X104100000Y-101355000D03*
X101150000Y-101355000D03*
D24*
X103700000Y-103225000D03*
X103270000Y-103225000D03*
X102840000Y-103225000D03*
X102410000Y-103225000D03*
X101980000Y-103225000D03*
X101550000Y-103225000D03*
X101120000Y-103225000D03*
X104130000Y-100775000D03*
X103700000Y-100775000D03*
X103270000Y-100775000D03*
X102840000Y-100775000D03*
X102410000Y-100775000D03*
X101980000Y-100775000D03*
X101550000Y-100775000D03*
X101120000Y-100775000D03*
G04 #@! TD*
D26*
G04 #@! TO.C,Y1*
X121975000Y-88950000D03*
X130475000Y-88950000D03*
G04 #@! TD*
D27*
G04 #@! TO.C,R1*
X110775000Y-83500000D03*
X112275000Y-83500000D03*
G04 #@! TD*
D28*
G04 #@! TO.C,R2*
X107475000Y-91100000D03*
X107475000Y-92600000D03*
G04 #@! TD*
G04 #@! TO.C,R3*
X139525000Y-95650000D03*
X139525000Y-94150000D03*
G04 #@! TD*
G04 #@! TO.C,R4*
X147600000Y-91325000D03*
X147600000Y-89825000D03*
G04 #@! TD*
G04 #@! TO.C,R5*
X100125000Y-92200000D03*
X100125000Y-90700000D03*
G04 #@! TD*
G04 #@! TO.C,R6*
X145375000Y-89850000D03*
X145375000Y-91350000D03*
G04 #@! TD*
G04 #@! TO.C,R7*
X97525000Y-90700000D03*
X97525000Y-92200000D03*
G04 #@! TD*
G04 #@! TO.C,R8*
X92125000Y-89150000D03*
X92125000Y-87650000D03*
G04 #@! TD*
G04 #@! TO.C,R9*
X88392000Y-110502000D03*
X88392000Y-112002000D03*
G04 #@! TD*
G04 #@! TO.C,R10*
X160528000Y-111276000D03*
X160528000Y-112776000D03*
G04 #@! TD*
D27*
G04 #@! TO.C,R11*
X110325000Y-98850000D03*
X108825000Y-98850000D03*
G04 #@! TD*
D28*
G04 #@! TO.C,R12*
X103275000Y-96825000D03*
X103275000Y-98325000D03*
G04 #@! TD*
G04 #@! TO.C,R13*
X93980000Y-120384000D03*
X93980000Y-118884000D03*
G04 #@! TD*
G04 #@! TO.C,R14*
X90932000Y-118884000D03*
X90932000Y-120384000D03*
G04 #@! TD*
G04 #@! TO.C,R15*
X90593000Y-99598000D03*
X90593000Y-98098000D03*
G04 #@! TD*
G04 #@! TO.C,R16*
X90593000Y-101148000D03*
X90593000Y-102648000D03*
G04 #@! TD*
D27*
G04 #@! TO.C,R17*
X135125000Y-96050000D03*
X133625000Y-96050000D03*
G04 #@! TD*
G04 #@! TO.C,R18*
X133625000Y-93800000D03*
X135125000Y-93800000D03*
G04 #@! TD*
D29*
G04 #@! TO.C,C33*
X155956000Y-105702383D03*
X155956000Y-104202383D03*
G04 #@! TD*
D30*
G04 #@! TO.C,C34*
X152412000Y-109220000D03*
X153912000Y-109220000D03*
G04 #@! TD*
G04 #@! TO.C,C35*
X152412000Y-103124000D03*
X153912000Y-103124000D03*
G04 #@! TD*
D27*
G04 #@! TO.C,R19*
X148856000Y-103124000D03*
X150356000Y-103124000D03*
G04 #@! TD*
G04 #@! TO.C,R20*
X155968000Y-107770383D03*
X157468000Y-107770383D03*
G04 #@! TD*
D28*
G04 #@! TO.C,R21*
X159004000Y-104152000D03*
X159004000Y-105652000D03*
G04 #@! TD*
D31*
G04 #@! TO.C,U8*
X149331936Y-105277383D03*
X149331936Y-105927383D03*
X149331936Y-106577383D03*
X149331936Y-107227383D03*
X153731936Y-107227383D03*
X153731936Y-106577383D03*
X153731936Y-105927383D03*
X153731936Y-105277383D03*
G04 #@! TD*
D29*
G04 #@! TO.C,C1*
X112325000Y-87300000D03*
X112325000Y-85800000D03*
G04 #@! TD*
D30*
G04 #@! TO.C,C2*
X103675000Y-92650000D03*
X105175000Y-92650000D03*
G04 #@! TD*
G04 #@! TO.C,C3*
X106325000Y-80450000D03*
X104825000Y-80450000D03*
G04 #@! TD*
G04 #@! TO.C,C4*
X139675000Y-84850000D03*
X138175000Y-84850000D03*
G04 #@! TD*
G04 #@! TO.C,C5*
X139675000Y-82650000D03*
X138175000Y-82650000D03*
G04 #@! TD*
G04 #@! TO.C,C6*
X139675000Y-87050000D03*
X138175000Y-87050000D03*
G04 #@! TD*
D29*
G04 #@! TO.C,C7*
X101775000Y-79550000D03*
X101775000Y-81050000D03*
G04 #@! TD*
G04 #@! TO.C,C8*
X99575000Y-79550000D03*
X99575000Y-81050000D03*
G04 #@! TD*
D30*
G04 #@! TO.C,C9*
X142975000Y-94400000D03*
X141475000Y-94400000D03*
G04 #@! TD*
D29*
G04 #@! TO.C,C10*
X148425000Y-87600000D03*
X148425000Y-86100000D03*
G04 #@! TD*
G04 #@! TO.C,C11*
X145925000Y-87600000D03*
X145925000Y-86100000D03*
G04 #@! TD*
D30*
G04 #@! TO.C,C12*
X90875000Y-79000000D03*
X92375000Y-79000000D03*
G04 #@! TD*
G04 #@! TO.C,C16*
X130575000Y-113550000D03*
X129075000Y-113550000D03*
G04 #@! TD*
D29*
G04 #@! TO.C,C17*
X115875000Y-106000000D03*
X115875000Y-107500000D03*
G04 #@! TD*
D30*
G04 #@! TO.C,C18*
X122475000Y-93350000D03*
X123975000Y-93350000D03*
G04 #@! TD*
D29*
G04 #@! TO.C,C19*
X115950000Y-111850000D03*
X115950000Y-110350000D03*
G04 #@! TD*
D30*
G04 #@! TO.C,C20*
X129775000Y-93350000D03*
X128275000Y-93350000D03*
G04 #@! TD*
G04 #@! TO.C,C21*
X131400000Y-97200000D03*
X129900000Y-97200000D03*
G04 #@! TD*
D29*
G04 #@! TO.C,C22*
X115875000Y-100400000D03*
X115875000Y-101900000D03*
G04 #@! TD*
D30*
G04 #@! TO.C,C23*
X123375000Y-95250000D03*
X121875000Y-95250000D03*
G04 #@! TD*
G04 #@! TO.C,C24*
X133975000Y-110750000D03*
X132475000Y-110750000D03*
G04 #@! TD*
G04 #@! TO.C,C25*
X123375000Y-97200000D03*
X121875000Y-97200000D03*
G04 #@! TD*
D29*
G04 #@! TO.C,C26*
X133225000Y-102650000D03*
X133225000Y-101150000D03*
G04 #@! TD*
D30*
G04 #@! TO.C,C27*
X92190000Y-107442000D03*
X90690000Y-107442000D03*
G04 #@! TD*
D29*
G04 #@! TO.C,C28*
X100025000Y-107350000D03*
X100025000Y-105850000D03*
G04 #@! TD*
G04 #@! TO.C,C29*
X105700000Y-107350000D03*
X105700000Y-105850000D03*
G04 #@! TD*
D30*
G04 #@! TO.C,C30*
X108750000Y-103825000D03*
X107250000Y-103825000D03*
G04 #@! TD*
D29*
G04 #@! TO.C,C31*
X102200000Y-107350000D03*
X102200000Y-105850000D03*
G04 #@! TD*
G04 #@! TO.C,C32*
X104000000Y-107350000D03*
X104000000Y-105850000D03*
G04 #@! TD*
G04 #@! TO.C,C36*
X163576000Y-111264000D03*
X163576000Y-112764000D03*
G04 #@! TD*
D32*
G04 #@! TO.C,D7*
X126475000Y-81550000D03*
X126475000Y-83650000D03*
G04 #@! TD*
D33*
G04 #@! TO.C,J1*
X107625440Y-71000260D03*
X107625440Y-76499360D03*
X98725280Y-76499360D03*
X98725280Y-71000260D03*
D34*
X101575160Y-76600960D03*
X102375260Y-76600960D03*
X103175360Y-76600960D03*
X103975460Y-76600960D03*
X104775560Y-76600960D03*
G04 #@! TD*
D35*
G04 #@! TO.C,L1*
X142625000Y-83250000D03*
X142625000Y-85250000D03*
G04 #@! TD*
D29*
G04 #@! TO.C,C13*
X88392000Y-83046000D03*
X88392000Y-81546000D03*
G04 #@! TD*
M02*
