G04 #@! TF.GenerationSoftware,KiCad,Pcbnew,(5.0.2)-1*
G04 #@! TF.CreationDate,2019-05-11T15:19:44-06:00*
G04 #@! TF.ProjectId,AndromedaV2.2,416e6472-6f6d-4656-9461-56322e322e6b,rev?*
G04 #@! TF.SameCoordinates,Original*
G04 #@! TF.FileFunction,Soldermask,Bot*
G04 #@! TF.FilePolarity,Negative*
%FSLAX46Y46*%
G04 Gerber Fmt 4.6, Leading zero omitted, Abs format (unit mm)*
G04 Created by KiCad (PCBNEW (5.0.2)-1) date 2019-05-11 3:19:44 PM*
%MOMM*%
%LPD*%
G01*
G04 APERTURE LIST*
%ADD10C,0.100000*%
G04 APERTURE END LIST*
D10*
X169926000Y-66548000D02*
X169926000Y-67818000D01*
X83820000Y-66548000D02*
X169926000Y-66548000D01*
X83820000Y-67818000D02*
X83820000Y-66548000D01*
X83820000Y-67818000D02*
X83820000Y-132842000D01*
X169926000Y-132842000D02*
X169926000Y-67818000D01*
X83820000Y-132842000D02*
X169926000Y-132842000D01*
G36*
X167436225Y-127358049D02*
X167597223Y-127390074D01*
X167785677Y-127468134D01*
X168052193Y-127578528D01*
X168461660Y-127852126D01*
X168809874Y-128200340D01*
X169083472Y-128609807D01*
X169193866Y-128876323D01*
X169225426Y-128952515D01*
X169271926Y-129064778D01*
X169368000Y-129547770D01*
X169368000Y-130040230D01*
X169271926Y-130523222D01*
X169083472Y-130978193D01*
X168809874Y-131387660D01*
X168461660Y-131735874D01*
X168052193Y-132009472D01*
X167785677Y-132119866D01*
X167597223Y-132197926D01*
X167436225Y-132229951D01*
X167114230Y-132294000D01*
X166621770Y-132294000D01*
X166299775Y-132229951D01*
X166138777Y-132197926D01*
X165950323Y-132119866D01*
X165683807Y-132009472D01*
X165274340Y-131735874D01*
X164926126Y-131387660D01*
X164652528Y-130978193D01*
X164464074Y-130523222D01*
X164368000Y-130040230D01*
X164368000Y-129547770D01*
X164464074Y-129064778D01*
X164510575Y-128952515D01*
X164542134Y-128876323D01*
X164652528Y-128609807D01*
X164926126Y-128200340D01*
X165274340Y-127852126D01*
X165683807Y-127578528D01*
X165950323Y-127468134D01*
X166138777Y-127390074D01*
X166299775Y-127358049D01*
X166621770Y-127294000D01*
X167114230Y-127294000D01*
X167436225Y-127358049D01*
X167436225Y-127358049D01*
G37*
G36*
X87436225Y-127358049D02*
X87597223Y-127390074D01*
X87785677Y-127468134D01*
X88052193Y-127578528D01*
X88461660Y-127852126D01*
X88809874Y-128200340D01*
X89083472Y-128609807D01*
X89193866Y-128876323D01*
X89225426Y-128952515D01*
X89271926Y-129064778D01*
X89368000Y-129547770D01*
X89368000Y-130040230D01*
X89271926Y-130523222D01*
X89083472Y-130978193D01*
X88809874Y-131387660D01*
X88461660Y-131735874D01*
X88052193Y-132009472D01*
X87785677Y-132119866D01*
X87597223Y-132197926D01*
X87436225Y-132229951D01*
X87114230Y-132294000D01*
X86621770Y-132294000D01*
X86299775Y-132229951D01*
X86138777Y-132197926D01*
X85950323Y-132119866D01*
X85683807Y-132009472D01*
X85274340Y-131735874D01*
X84926126Y-131387660D01*
X84652528Y-130978193D01*
X84464074Y-130523222D01*
X84368000Y-130040230D01*
X84368000Y-129547770D01*
X84464074Y-129064778D01*
X84510575Y-128952515D01*
X84542134Y-128876323D01*
X84652528Y-128609807D01*
X84926126Y-128200340D01*
X85274340Y-127852126D01*
X85683807Y-127578528D01*
X85950323Y-127468134D01*
X86138777Y-127390074D01*
X86299775Y-127358049D01*
X86621770Y-127294000D01*
X87114230Y-127294000D01*
X87436225Y-127358049D01*
X87436225Y-127358049D01*
G37*
G36*
X140548935Y-126780429D02*
X140645534Y-126799644D01*
X140918517Y-126912717D01*
X141096741Y-127031803D01*
X141164197Y-127076876D01*
X141373124Y-127285803D01*
X141537284Y-127531485D01*
X141556770Y-127578528D01*
X141650356Y-127804466D01*
X141708000Y-128094263D01*
X141708000Y-128389737D01*
X141650356Y-128679534D01*
X141642493Y-128698517D01*
X141537284Y-128952515D01*
X141373124Y-129198197D01*
X141164197Y-129407124D01*
X141164194Y-129407126D01*
X140918517Y-129571283D01*
X140645534Y-129684356D01*
X140548935Y-129703571D01*
X140355739Y-129742000D01*
X140060261Y-129742000D01*
X139867065Y-129703571D01*
X139770466Y-129684356D01*
X139497483Y-129571283D01*
X139251806Y-129407126D01*
X139251803Y-129407124D01*
X139042876Y-129198197D01*
X138878716Y-128952515D01*
X138773507Y-128698517D01*
X138765644Y-128679534D01*
X138708000Y-128389737D01*
X138708000Y-128094263D01*
X138765644Y-127804466D01*
X138859230Y-127578528D01*
X138878716Y-127531485D01*
X139042876Y-127285803D01*
X139251803Y-127076876D01*
X139319259Y-127031803D01*
X139497483Y-126912717D01*
X139770466Y-126799644D01*
X139867065Y-126780429D01*
X140060261Y-126742000D01*
X140355739Y-126742000D01*
X140548935Y-126780429D01*
X140548935Y-126780429D01*
G37*
G36*
X127086935Y-126780429D02*
X127183534Y-126799644D01*
X127456517Y-126912717D01*
X127634741Y-127031803D01*
X127702197Y-127076876D01*
X127911124Y-127285803D01*
X128075284Y-127531485D01*
X128094770Y-127578528D01*
X128188356Y-127804466D01*
X128246000Y-128094263D01*
X128246000Y-128389737D01*
X128188356Y-128679534D01*
X128180493Y-128698517D01*
X128075284Y-128952515D01*
X127911124Y-129198197D01*
X127702197Y-129407124D01*
X127702194Y-129407126D01*
X127456517Y-129571283D01*
X127183534Y-129684356D01*
X127086935Y-129703571D01*
X126893739Y-129742000D01*
X126598261Y-129742000D01*
X126405065Y-129703571D01*
X126308466Y-129684356D01*
X126035483Y-129571283D01*
X125789806Y-129407126D01*
X125789803Y-129407124D01*
X125580876Y-129198197D01*
X125416716Y-128952515D01*
X125311507Y-128698517D01*
X125303644Y-128679534D01*
X125246000Y-128389737D01*
X125246000Y-128094263D01*
X125303644Y-127804466D01*
X125397230Y-127578528D01*
X125416716Y-127531485D01*
X125580876Y-127285803D01*
X125789803Y-127076876D01*
X125857259Y-127031803D01*
X126035483Y-126912717D01*
X126308466Y-126799644D01*
X126405065Y-126780429D01*
X126598261Y-126742000D01*
X126893739Y-126742000D01*
X127086935Y-126780429D01*
X127086935Y-126780429D01*
G37*
G36*
X113370935Y-126526429D02*
X113467534Y-126545644D01*
X113740517Y-126658717D01*
X113865158Y-126742000D01*
X113986197Y-126822876D01*
X114195124Y-127031803D01*
X114359284Y-127277485D01*
X114366125Y-127294000D01*
X114464494Y-127531485D01*
X114472356Y-127550467D01*
X114530000Y-127840261D01*
X114530000Y-128135739D01*
X114472356Y-128425533D01*
X114359284Y-128698515D01*
X114195124Y-128944197D01*
X113986197Y-129153124D01*
X113986194Y-129153126D01*
X113740517Y-129317283D01*
X113467534Y-129430356D01*
X113370935Y-129449571D01*
X113177739Y-129488000D01*
X112882261Y-129488000D01*
X112689065Y-129449571D01*
X112592466Y-129430356D01*
X112319483Y-129317283D01*
X112073806Y-129153126D01*
X112073803Y-129153124D01*
X111864876Y-128944197D01*
X111700716Y-128698515D01*
X111587644Y-128425533D01*
X111530000Y-128135739D01*
X111530000Y-127840261D01*
X111587644Y-127550467D01*
X111595507Y-127531485D01*
X111693875Y-127294000D01*
X111700716Y-127277485D01*
X111864876Y-127031803D01*
X112073803Y-126822876D01*
X112194842Y-126742000D01*
X112319483Y-126658717D01*
X112592466Y-126545644D01*
X112689065Y-126526429D01*
X112882261Y-126488000D01*
X113177739Y-126488000D01*
X113370935Y-126526429D01*
X113370935Y-126526429D01*
G37*
G36*
X101178935Y-126526429D02*
X101275534Y-126545644D01*
X101548517Y-126658717D01*
X101673158Y-126742000D01*
X101794197Y-126822876D01*
X102003124Y-127031803D01*
X102167284Y-127277485D01*
X102174125Y-127294000D01*
X102272494Y-127531485D01*
X102280356Y-127550467D01*
X102338000Y-127840261D01*
X102338000Y-128135739D01*
X102280356Y-128425533D01*
X102167284Y-128698515D01*
X102003124Y-128944197D01*
X101794197Y-129153124D01*
X101794194Y-129153126D01*
X101548517Y-129317283D01*
X101275534Y-129430356D01*
X101178935Y-129449571D01*
X100985739Y-129488000D01*
X100690261Y-129488000D01*
X100497065Y-129449571D01*
X100400466Y-129430356D01*
X100127483Y-129317283D01*
X99881806Y-129153126D01*
X99881803Y-129153124D01*
X99672876Y-128944197D01*
X99508716Y-128698515D01*
X99395644Y-128425533D01*
X99338000Y-128135739D01*
X99338000Y-127840261D01*
X99395644Y-127550467D01*
X99403507Y-127531485D01*
X99501875Y-127294000D01*
X99508716Y-127277485D01*
X99672876Y-127031803D01*
X99881803Y-126822876D01*
X100002842Y-126742000D01*
X100127483Y-126658717D01*
X100400466Y-126545644D01*
X100497065Y-126526429D01*
X100690261Y-126488000D01*
X100985739Y-126488000D01*
X101178935Y-126526429D01*
X101178935Y-126526429D01*
G37*
G36*
X141854318Y-123186411D02*
X141926767Y-123200822D01*
X141983303Y-123224240D01*
X142063257Y-123257358D01*
X142186100Y-123339439D01*
X142290561Y-123443900D01*
X142372642Y-123566743D01*
X142429178Y-123703234D01*
X142458000Y-123848130D01*
X142458000Y-123995870D01*
X142429178Y-124140766D01*
X142372642Y-124277257D01*
X142290561Y-124400100D01*
X142186100Y-124504561D01*
X142063257Y-124586642D01*
X141983303Y-124619760D01*
X141926767Y-124643178D01*
X141854318Y-124657589D01*
X141781870Y-124672000D01*
X141634130Y-124672000D01*
X141561682Y-124657589D01*
X141489233Y-124643178D01*
X141432697Y-124619760D01*
X141352743Y-124586642D01*
X141229900Y-124504561D01*
X141125439Y-124400100D01*
X141043358Y-124277257D01*
X140986822Y-124140766D01*
X140958000Y-123995870D01*
X140958000Y-123848130D01*
X140986822Y-123703234D01*
X141043358Y-123566743D01*
X141125439Y-123443900D01*
X141229900Y-123339439D01*
X141352743Y-123257358D01*
X141432697Y-123224240D01*
X141489233Y-123200822D01*
X141561682Y-123186411D01*
X141634130Y-123172000D01*
X141781870Y-123172000D01*
X141854318Y-123186411D01*
X141854318Y-123186411D01*
G37*
G36*
X138854318Y-123186411D02*
X138926767Y-123200822D01*
X138983303Y-123224240D01*
X139063257Y-123257358D01*
X139186100Y-123339439D01*
X139290561Y-123443900D01*
X139372642Y-123566743D01*
X139429178Y-123703234D01*
X139458000Y-123848130D01*
X139458000Y-123995870D01*
X139429178Y-124140766D01*
X139372642Y-124277257D01*
X139290561Y-124400100D01*
X139186100Y-124504561D01*
X139063257Y-124586642D01*
X138983303Y-124619760D01*
X138926767Y-124643178D01*
X138854318Y-124657589D01*
X138781870Y-124672000D01*
X138634130Y-124672000D01*
X138561682Y-124657589D01*
X138489233Y-124643178D01*
X138432697Y-124619760D01*
X138352743Y-124586642D01*
X138229900Y-124504561D01*
X138125439Y-124400100D01*
X138043358Y-124277257D01*
X137986822Y-124140766D01*
X137958000Y-123995870D01*
X137958000Y-123848130D01*
X137986822Y-123703234D01*
X138043358Y-123566743D01*
X138125439Y-123443900D01*
X138229900Y-123339439D01*
X138352743Y-123257358D01*
X138432697Y-123224240D01*
X138489233Y-123200822D01*
X138561682Y-123186411D01*
X138634130Y-123172000D01*
X138781870Y-123172000D01*
X138854318Y-123186411D01*
X138854318Y-123186411D01*
G37*
G36*
X129892318Y-123186411D02*
X129964767Y-123200822D01*
X130021303Y-123224240D01*
X130101257Y-123257358D01*
X130224100Y-123339439D01*
X130328561Y-123443900D01*
X130410642Y-123566743D01*
X130467178Y-123703234D01*
X130496000Y-123848130D01*
X130496000Y-123995870D01*
X130467178Y-124140766D01*
X130410642Y-124277257D01*
X130328561Y-124400100D01*
X130224100Y-124504561D01*
X130101257Y-124586642D01*
X130021303Y-124619760D01*
X129964767Y-124643178D01*
X129892318Y-124657589D01*
X129819870Y-124672000D01*
X129672130Y-124672000D01*
X129599682Y-124657589D01*
X129527233Y-124643178D01*
X129470697Y-124619760D01*
X129390743Y-124586642D01*
X129267900Y-124504561D01*
X129163439Y-124400100D01*
X129081358Y-124277257D01*
X129024822Y-124140766D01*
X128996000Y-123995870D01*
X128996000Y-123848130D01*
X129024822Y-123703234D01*
X129081358Y-123566743D01*
X129163439Y-123443900D01*
X129267900Y-123339439D01*
X129390743Y-123257358D01*
X129470697Y-123224240D01*
X129527233Y-123200822D01*
X129599682Y-123186411D01*
X129672130Y-123172000D01*
X129819870Y-123172000D01*
X129892318Y-123186411D01*
X129892318Y-123186411D01*
G37*
G36*
X126892318Y-123186411D02*
X126964767Y-123200822D01*
X127021303Y-123224240D01*
X127101257Y-123257358D01*
X127224100Y-123339439D01*
X127328561Y-123443900D01*
X127410642Y-123566743D01*
X127467178Y-123703234D01*
X127496000Y-123848130D01*
X127496000Y-123995870D01*
X127467178Y-124140766D01*
X127410642Y-124277257D01*
X127328561Y-124400100D01*
X127224100Y-124504561D01*
X127101257Y-124586642D01*
X127021303Y-124619760D01*
X126964767Y-124643178D01*
X126892318Y-124657589D01*
X126819870Y-124672000D01*
X126672130Y-124672000D01*
X126599682Y-124657589D01*
X126527233Y-124643178D01*
X126470697Y-124619760D01*
X126390743Y-124586642D01*
X126267900Y-124504561D01*
X126163439Y-124400100D01*
X126081358Y-124277257D01*
X126024822Y-124140766D01*
X125996000Y-123995870D01*
X125996000Y-123848130D01*
X126024822Y-123703234D01*
X126081358Y-123566743D01*
X126163439Y-123443900D01*
X126267900Y-123339439D01*
X126390743Y-123257358D01*
X126470697Y-123224240D01*
X126527233Y-123200822D01*
X126599682Y-123186411D01*
X126672130Y-123172000D01*
X126819870Y-123172000D01*
X126892318Y-123186411D01*
X126892318Y-123186411D01*
G37*
G36*
X123892318Y-123186411D02*
X123964767Y-123200822D01*
X124021303Y-123224240D01*
X124101257Y-123257358D01*
X124224100Y-123339439D01*
X124328561Y-123443900D01*
X124410642Y-123566743D01*
X124467178Y-123703234D01*
X124496000Y-123848130D01*
X124496000Y-123995870D01*
X124467178Y-124140766D01*
X124410642Y-124277257D01*
X124328561Y-124400100D01*
X124224100Y-124504561D01*
X124101257Y-124586642D01*
X124021303Y-124619760D01*
X123964767Y-124643178D01*
X123892318Y-124657589D01*
X123819870Y-124672000D01*
X123672130Y-124672000D01*
X123599682Y-124657589D01*
X123527233Y-124643178D01*
X123470697Y-124619760D01*
X123390743Y-124586642D01*
X123267900Y-124504561D01*
X123163439Y-124400100D01*
X123081358Y-124277257D01*
X123024822Y-124140766D01*
X122996000Y-123995870D01*
X122996000Y-123848130D01*
X123024822Y-123703234D01*
X123081358Y-123566743D01*
X123163439Y-123443900D01*
X123267900Y-123339439D01*
X123390743Y-123257358D01*
X123470697Y-123224240D01*
X123527233Y-123200822D01*
X123599682Y-123186411D01*
X123672130Y-123172000D01*
X123819870Y-123172000D01*
X123892318Y-123186411D01*
X123892318Y-123186411D01*
G37*
G36*
X111676318Y-122932411D02*
X111748767Y-122946822D01*
X111805303Y-122970240D01*
X111885257Y-123003358D01*
X112008100Y-123085439D01*
X112112561Y-123189900D01*
X112194642Y-123312743D01*
X112251178Y-123449234D01*
X112280000Y-123594130D01*
X112280000Y-123741870D01*
X112251178Y-123886766D01*
X112194642Y-124023257D01*
X112112561Y-124146100D01*
X112008100Y-124250561D01*
X111885257Y-124332642D01*
X111805303Y-124365760D01*
X111748767Y-124389178D01*
X111693873Y-124400097D01*
X111603870Y-124418000D01*
X111456130Y-124418000D01*
X111366127Y-124400097D01*
X111311233Y-124389178D01*
X111254697Y-124365760D01*
X111174743Y-124332642D01*
X111051900Y-124250561D01*
X110947439Y-124146100D01*
X110865358Y-124023257D01*
X110808822Y-123886766D01*
X110780000Y-123741870D01*
X110780000Y-123594130D01*
X110808822Y-123449234D01*
X110865358Y-123312743D01*
X110947439Y-123189900D01*
X111051900Y-123085439D01*
X111174743Y-123003358D01*
X111254697Y-122970240D01*
X111311233Y-122946822D01*
X111383682Y-122932411D01*
X111456130Y-122918000D01*
X111603870Y-122918000D01*
X111676318Y-122932411D01*
X111676318Y-122932411D01*
G37*
G36*
X99484318Y-122932411D02*
X99556767Y-122946822D01*
X99613303Y-122970240D01*
X99693257Y-123003358D01*
X99816100Y-123085439D01*
X99920561Y-123189900D01*
X100002642Y-123312743D01*
X100059178Y-123449234D01*
X100088000Y-123594130D01*
X100088000Y-123741870D01*
X100059178Y-123886766D01*
X100002642Y-124023257D01*
X99920561Y-124146100D01*
X99816100Y-124250561D01*
X99693257Y-124332642D01*
X99613303Y-124365760D01*
X99556767Y-124389178D01*
X99501873Y-124400097D01*
X99411870Y-124418000D01*
X99264130Y-124418000D01*
X99174127Y-124400097D01*
X99119233Y-124389178D01*
X99062697Y-124365760D01*
X98982743Y-124332642D01*
X98859900Y-124250561D01*
X98755439Y-124146100D01*
X98673358Y-124023257D01*
X98616822Y-123886766D01*
X98588000Y-123741870D01*
X98588000Y-123594130D01*
X98616822Y-123449234D01*
X98673358Y-123312743D01*
X98755439Y-123189900D01*
X98859900Y-123085439D01*
X98982743Y-123003358D01*
X99062697Y-122970240D01*
X99119233Y-122946822D01*
X99191682Y-122932411D01*
X99264130Y-122918000D01*
X99411870Y-122918000D01*
X99484318Y-122932411D01*
X99484318Y-122932411D01*
G37*
G36*
X102484318Y-122932411D02*
X102556767Y-122946822D01*
X102613303Y-122970240D01*
X102693257Y-123003358D01*
X102816100Y-123085439D01*
X102920561Y-123189900D01*
X103002642Y-123312743D01*
X103059178Y-123449234D01*
X103088000Y-123594130D01*
X103088000Y-123741870D01*
X103059178Y-123886766D01*
X103002642Y-124023257D01*
X102920561Y-124146100D01*
X102816100Y-124250561D01*
X102693257Y-124332642D01*
X102613303Y-124365760D01*
X102556767Y-124389178D01*
X102501873Y-124400097D01*
X102411870Y-124418000D01*
X102264130Y-124418000D01*
X102174127Y-124400097D01*
X102119233Y-124389178D01*
X102062697Y-124365760D01*
X101982743Y-124332642D01*
X101859900Y-124250561D01*
X101755439Y-124146100D01*
X101673358Y-124023257D01*
X101616822Y-123886766D01*
X101588000Y-123741870D01*
X101588000Y-123594130D01*
X101616822Y-123449234D01*
X101673358Y-123312743D01*
X101755439Y-123189900D01*
X101859900Y-123085439D01*
X101982743Y-123003358D01*
X102062697Y-122970240D01*
X102119233Y-122946822D01*
X102191682Y-122932411D01*
X102264130Y-122918000D01*
X102411870Y-122918000D01*
X102484318Y-122932411D01*
X102484318Y-122932411D01*
G37*
G36*
X114676318Y-122932411D02*
X114748767Y-122946822D01*
X114805303Y-122970240D01*
X114885257Y-123003358D01*
X115008100Y-123085439D01*
X115112561Y-123189900D01*
X115194642Y-123312743D01*
X115251178Y-123449234D01*
X115280000Y-123594130D01*
X115280000Y-123741870D01*
X115251178Y-123886766D01*
X115194642Y-124023257D01*
X115112561Y-124146100D01*
X115008100Y-124250561D01*
X114885257Y-124332642D01*
X114805303Y-124365760D01*
X114748767Y-124389178D01*
X114693873Y-124400097D01*
X114603870Y-124418000D01*
X114456130Y-124418000D01*
X114366127Y-124400097D01*
X114311233Y-124389178D01*
X114254697Y-124365760D01*
X114174743Y-124332642D01*
X114051900Y-124250561D01*
X113947439Y-124146100D01*
X113865358Y-124023257D01*
X113808822Y-123886766D01*
X113780000Y-123741870D01*
X113780000Y-123594130D01*
X113808822Y-123449234D01*
X113865358Y-123312743D01*
X113947439Y-123189900D01*
X114051900Y-123085439D01*
X114174743Y-123003358D01*
X114254697Y-122970240D01*
X114311233Y-122946822D01*
X114383682Y-122932411D01*
X114456130Y-122918000D01*
X114603870Y-122918000D01*
X114676318Y-122932411D01*
X114676318Y-122932411D01*
G37*
G36*
X126892318Y-120186411D02*
X126964767Y-120200822D01*
X127021303Y-120224240D01*
X127101257Y-120257358D01*
X127224100Y-120339439D01*
X127328561Y-120443900D01*
X127410642Y-120566743D01*
X127467178Y-120703234D01*
X127496000Y-120848130D01*
X127496000Y-120995870D01*
X127467178Y-121140766D01*
X127410642Y-121277257D01*
X127328561Y-121400100D01*
X127224100Y-121504561D01*
X127101257Y-121586642D01*
X127021303Y-121619760D01*
X126964767Y-121643178D01*
X126892318Y-121657589D01*
X126819870Y-121672000D01*
X126672130Y-121672000D01*
X126599682Y-121657589D01*
X126527233Y-121643178D01*
X126470697Y-121619760D01*
X126390743Y-121586642D01*
X126267900Y-121504561D01*
X126163439Y-121400100D01*
X126081358Y-121277257D01*
X126024822Y-121140766D01*
X125996000Y-120995870D01*
X125996000Y-120848130D01*
X126024822Y-120703234D01*
X126081358Y-120566743D01*
X126163439Y-120443900D01*
X126267900Y-120339439D01*
X126390743Y-120257358D01*
X126470697Y-120224240D01*
X126527233Y-120200822D01*
X126599682Y-120186411D01*
X126672130Y-120172000D01*
X126819870Y-120172000D01*
X126892318Y-120186411D01*
X126892318Y-120186411D01*
G37*
G36*
X129892318Y-120186411D02*
X129964767Y-120200822D01*
X130021303Y-120224240D01*
X130101257Y-120257358D01*
X130224100Y-120339439D01*
X130328561Y-120443900D01*
X130410642Y-120566743D01*
X130467178Y-120703234D01*
X130496000Y-120848130D01*
X130496000Y-120995870D01*
X130467178Y-121140766D01*
X130410642Y-121277257D01*
X130328561Y-121400100D01*
X130224100Y-121504561D01*
X130101257Y-121586642D01*
X130021303Y-121619760D01*
X129964767Y-121643178D01*
X129892318Y-121657589D01*
X129819870Y-121672000D01*
X129672130Y-121672000D01*
X129599682Y-121657589D01*
X129527233Y-121643178D01*
X129470697Y-121619760D01*
X129390743Y-121586642D01*
X129267900Y-121504561D01*
X129163439Y-121400100D01*
X129081358Y-121277257D01*
X129024822Y-121140766D01*
X128996000Y-120995870D01*
X128996000Y-120848130D01*
X129024822Y-120703234D01*
X129081358Y-120566743D01*
X129163439Y-120443900D01*
X129267900Y-120339439D01*
X129390743Y-120257358D01*
X129470697Y-120224240D01*
X129527233Y-120200822D01*
X129599682Y-120186411D01*
X129672130Y-120172000D01*
X129819870Y-120172000D01*
X129892318Y-120186411D01*
X129892318Y-120186411D01*
G37*
G36*
X138854318Y-120186411D02*
X138926767Y-120200822D01*
X138983303Y-120224240D01*
X139063257Y-120257358D01*
X139186100Y-120339439D01*
X139290561Y-120443900D01*
X139372642Y-120566743D01*
X139429178Y-120703234D01*
X139458000Y-120848130D01*
X139458000Y-120995870D01*
X139429178Y-121140766D01*
X139372642Y-121277257D01*
X139290561Y-121400100D01*
X139186100Y-121504561D01*
X139063257Y-121586642D01*
X138983303Y-121619760D01*
X138926767Y-121643178D01*
X138854318Y-121657589D01*
X138781870Y-121672000D01*
X138634130Y-121672000D01*
X138561682Y-121657589D01*
X138489233Y-121643178D01*
X138432697Y-121619760D01*
X138352743Y-121586642D01*
X138229900Y-121504561D01*
X138125439Y-121400100D01*
X138043358Y-121277257D01*
X137986822Y-121140766D01*
X137958000Y-120995870D01*
X137958000Y-120848130D01*
X137986822Y-120703234D01*
X138043358Y-120566743D01*
X138125439Y-120443900D01*
X138229900Y-120339439D01*
X138352743Y-120257358D01*
X138432697Y-120224240D01*
X138489233Y-120200822D01*
X138561682Y-120186411D01*
X138634130Y-120172000D01*
X138781870Y-120172000D01*
X138854318Y-120186411D01*
X138854318Y-120186411D01*
G37*
G36*
X141854318Y-120186411D02*
X141926767Y-120200822D01*
X141983303Y-120224240D01*
X142063257Y-120257358D01*
X142186100Y-120339439D01*
X142290561Y-120443900D01*
X142372642Y-120566743D01*
X142429178Y-120703234D01*
X142458000Y-120848130D01*
X142458000Y-120995870D01*
X142429178Y-121140766D01*
X142372642Y-121277257D01*
X142290561Y-121400100D01*
X142186100Y-121504561D01*
X142063257Y-121586642D01*
X141983303Y-121619760D01*
X141926767Y-121643178D01*
X141854318Y-121657589D01*
X141781870Y-121672000D01*
X141634130Y-121672000D01*
X141561682Y-121657589D01*
X141489233Y-121643178D01*
X141432697Y-121619760D01*
X141352743Y-121586642D01*
X141229900Y-121504561D01*
X141125439Y-121400100D01*
X141043358Y-121277257D01*
X140986822Y-121140766D01*
X140958000Y-120995870D01*
X140958000Y-120848130D01*
X140986822Y-120703234D01*
X141043358Y-120566743D01*
X141125439Y-120443900D01*
X141229900Y-120339439D01*
X141352743Y-120257358D01*
X141432697Y-120224240D01*
X141489233Y-120200822D01*
X141561682Y-120186411D01*
X141634130Y-120172000D01*
X141781870Y-120172000D01*
X141854318Y-120186411D01*
X141854318Y-120186411D01*
G37*
G36*
X123892318Y-120186411D02*
X123964767Y-120200822D01*
X124021303Y-120224240D01*
X124101257Y-120257358D01*
X124224100Y-120339439D01*
X124328561Y-120443900D01*
X124410642Y-120566743D01*
X124467178Y-120703234D01*
X124496000Y-120848130D01*
X124496000Y-120995870D01*
X124467178Y-121140766D01*
X124410642Y-121277257D01*
X124328561Y-121400100D01*
X124224100Y-121504561D01*
X124101257Y-121586642D01*
X124021303Y-121619760D01*
X123964767Y-121643178D01*
X123892318Y-121657589D01*
X123819870Y-121672000D01*
X123672130Y-121672000D01*
X123599682Y-121657589D01*
X123527233Y-121643178D01*
X123470697Y-121619760D01*
X123390743Y-121586642D01*
X123267900Y-121504561D01*
X123163439Y-121400100D01*
X123081358Y-121277257D01*
X123024822Y-121140766D01*
X122996000Y-120995870D01*
X122996000Y-120848130D01*
X123024822Y-120703234D01*
X123081358Y-120566743D01*
X123163439Y-120443900D01*
X123267900Y-120339439D01*
X123390743Y-120257358D01*
X123470697Y-120224240D01*
X123527233Y-120200822D01*
X123599682Y-120186411D01*
X123672130Y-120172000D01*
X123819870Y-120172000D01*
X123892318Y-120186411D01*
X123892318Y-120186411D01*
G37*
G36*
X114676318Y-119932411D02*
X114748767Y-119946822D01*
X114805303Y-119970240D01*
X114885257Y-120003358D01*
X115008100Y-120085439D01*
X115112561Y-120189900D01*
X115194642Y-120312743D01*
X115251178Y-120449234D01*
X115280000Y-120594130D01*
X115280000Y-120741870D01*
X115251178Y-120886766D01*
X115194642Y-121023257D01*
X115112561Y-121146100D01*
X115008100Y-121250561D01*
X114885257Y-121332642D01*
X114805303Y-121365760D01*
X114748767Y-121389178D01*
X114693873Y-121400097D01*
X114603870Y-121418000D01*
X114456130Y-121418000D01*
X114366127Y-121400097D01*
X114311233Y-121389178D01*
X114254697Y-121365760D01*
X114174743Y-121332642D01*
X114051900Y-121250561D01*
X113947439Y-121146100D01*
X113865358Y-121023257D01*
X113808822Y-120886766D01*
X113780000Y-120741870D01*
X113780000Y-120594130D01*
X113808822Y-120449234D01*
X113865358Y-120312743D01*
X113947439Y-120189900D01*
X114051900Y-120085439D01*
X114174743Y-120003358D01*
X114254697Y-119970240D01*
X114311233Y-119946822D01*
X114383682Y-119932411D01*
X114456130Y-119918000D01*
X114603870Y-119918000D01*
X114676318Y-119932411D01*
X114676318Y-119932411D01*
G37*
G36*
X111676318Y-119932411D02*
X111748767Y-119946822D01*
X111805303Y-119970240D01*
X111885257Y-120003358D01*
X112008100Y-120085439D01*
X112112561Y-120189900D01*
X112194642Y-120312743D01*
X112251178Y-120449234D01*
X112280000Y-120594130D01*
X112280000Y-120741870D01*
X112251178Y-120886766D01*
X112194642Y-121023257D01*
X112112561Y-121146100D01*
X112008100Y-121250561D01*
X111885257Y-121332642D01*
X111805303Y-121365760D01*
X111748767Y-121389178D01*
X111693873Y-121400097D01*
X111603870Y-121418000D01*
X111456130Y-121418000D01*
X111366127Y-121400097D01*
X111311233Y-121389178D01*
X111254697Y-121365760D01*
X111174743Y-121332642D01*
X111051900Y-121250561D01*
X110947439Y-121146100D01*
X110865358Y-121023257D01*
X110808822Y-120886766D01*
X110780000Y-120741870D01*
X110780000Y-120594130D01*
X110808822Y-120449234D01*
X110865358Y-120312743D01*
X110947439Y-120189900D01*
X111051900Y-120085439D01*
X111174743Y-120003358D01*
X111254697Y-119970240D01*
X111311233Y-119946822D01*
X111383682Y-119932411D01*
X111456130Y-119918000D01*
X111603870Y-119918000D01*
X111676318Y-119932411D01*
X111676318Y-119932411D01*
G37*
G36*
X102484318Y-119932411D02*
X102556767Y-119946822D01*
X102613303Y-119970240D01*
X102693257Y-120003358D01*
X102816100Y-120085439D01*
X102920561Y-120189900D01*
X103002642Y-120312743D01*
X103059178Y-120449234D01*
X103088000Y-120594130D01*
X103088000Y-120741870D01*
X103059178Y-120886766D01*
X103002642Y-121023257D01*
X102920561Y-121146100D01*
X102816100Y-121250561D01*
X102693257Y-121332642D01*
X102613303Y-121365760D01*
X102556767Y-121389178D01*
X102501873Y-121400097D01*
X102411870Y-121418000D01*
X102264130Y-121418000D01*
X102174127Y-121400097D01*
X102119233Y-121389178D01*
X102062697Y-121365760D01*
X101982743Y-121332642D01*
X101859900Y-121250561D01*
X101755439Y-121146100D01*
X101673358Y-121023257D01*
X101616822Y-120886766D01*
X101588000Y-120741870D01*
X101588000Y-120594130D01*
X101616822Y-120449234D01*
X101673358Y-120312743D01*
X101755439Y-120189900D01*
X101859900Y-120085439D01*
X101982743Y-120003358D01*
X102062697Y-119970240D01*
X102119233Y-119946822D01*
X102191682Y-119932411D01*
X102264130Y-119918000D01*
X102411870Y-119918000D01*
X102484318Y-119932411D01*
X102484318Y-119932411D01*
G37*
G36*
X99484318Y-119932411D02*
X99556767Y-119946822D01*
X99613303Y-119970240D01*
X99693257Y-120003358D01*
X99816100Y-120085439D01*
X99920561Y-120189900D01*
X100002642Y-120312743D01*
X100059178Y-120449234D01*
X100088000Y-120594130D01*
X100088000Y-120741870D01*
X100059178Y-120886766D01*
X100002642Y-121023257D01*
X99920561Y-121146100D01*
X99816100Y-121250561D01*
X99693257Y-121332642D01*
X99613303Y-121365760D01*
X99556767Y-121389178D01*
X99501873Y-121400097D01*
X99411870Y-121418000D01*
X99264130Y-121418000D01*
X99174127Y-121400097D01*
X99119233Y-121389178D01*
X99062697Y-121365760D01*
X98982743Y-121332642D01*
X98859900Y-121250561D01*
X98755439Y-121146100D01*
X98673358Y-121023257D01*
X98616822Y-120886766D01*
X98588000Y-120741870D01*
X98588000Y-120594130D01*
X98616822Y-120449234D01*
X98673358Y-120312743D01*
X98755439Y-120189900D01*
X98859900Y-120085439D01*
X98982743Y-120003358D01*
X99062697Y-119970240D01*
X99119233Y-119946822D01*
X99191682Y-119932411D01*
X99264130Y-119918000D01*
X99411870Y-119918000D01*
X99484318Y-119932411D01*
X99484318Y-119932411D01*
G37*
G36*
X158691630Y-99812299D02*
X158851855Y-99860903D01*
X158999520Y-99939831D01*
X159128949Y-100046051D01*
X159235169Y-100175480D01*
X159314097Y-100323145D01*
X159362701Y-100483370D01*
X159379112Y-100650000D01*
X159362701Y-100816630D01*
X159314097Y-100976855D01*
X159235169Y-101124520D01*
X159128949Y-101253949D01*
X158999520Y-101360169D01*
X158851855Y-101439097D01*
X158691630Y-101487701D01*
X158566752Y-101500000D01*
X158483248Y-101500000D01*
X158358370Y-101487701D01*
X158198145Y-101439097D01*
X158050480Y-101360169D01*
X157921051Y-101253949D01*
X157814831Y-101124520D01*
X157735903Y-100976855D01*
X157687299Y-100816630D01*
X157670888Y-100650000D01*
X157687299Y-100483370D01*
X157735903Y-100323145D01*
X157814831Y-100175480D01*
X157921051Y-100046051D01*
X158050480Y-99939831D01*
X158198145Y-99860903D01*
X158358370Y-99812299D01*
X158483248Y-99800000D01*
X158566752Y-99800000D01*
X158691630Y-99812299D01*
X158691630Y-99812299D01*
G37*
G36*
X158691630Y-97272299D02*
X158851855Y-97320903D01*
X158999520Y-97399831D01*
X159128949Y-97506051D01*
X159235169Y-97635480D01*
X159314097Y-97783145D01*
X159362701Y-97943370D01*
X159379112Y-98110000D01*
X159362701Y-98276630D01*
X159314097Y-98436855D01*
X159235169Y-98584520D01*
X159128949Y-98713949D01*
X158999520Y-98820169D01*
X158851855Y-98899097D01*
X158691630Y-98947701D01*
X158566752Y-98960000D01*
X158483248Y-98960000D01*
X158358370Y-98947701D01*
X158198145Y-98899097D01*
X158050480Y-98820169D01*
X157921051Y-98713949D01*
X157814831Y-98584520D01*
X157735903Y-98436855D01*
X157687299Y-98276630D01*
X157670888Y-98110000D01*
X157687299Y-97943370D01*
X157735903Y-97783145D01*
X157814831Y-97635480D01*
X157921051Y-97506051D01*
X158050480Y-97399831D01*
X158198145Y-97320903D01*
X158358370Y-97272299D01*
X158483248Y-97260000D01*
X158566752Y-97260000D01*
X158691630Y-97272299D01*
X158691630Y-97272299D01*
G37*
G36*
X158691630Y-94732299D02*
X158851855Y-94780903D01*
X158999520Y-94859831D01*
X159128949Y-94966051D01*
X159235169Y-95095480D01*
X159314097Y-95243145D01*
X159362701Y-95403370D01*
X159379112Y-95570000D01*
X159362701Y-95736630D01*
X159314097Y-95896855D01*
X159235169Y-96044520D01*
X159128949Y-96173949D01*
X158999520Y-96280169D01*
X158851855Y-96359097D01*
X158691630Y-96407701D01*
X158566752Y-96420000D01*
X158483248Y-96420000D01*
X158358370Y-96407701D01*
X158198145Y-96359097D01*
X158050480Y-96280169D01*
X157921051Y-96173949D01*
X157814831Y-96044520D01*
X157735903Y-95896855D01*
X157687299Y-95736630D01*
X157670888Y-95570000D01*
X157687299Y-95403370D01*
X157735903Y-95243145D01*
X157814831Y-95095480D01*
X157921051Y-94966051D01*
X158050480Y-94859831D01*
X158198145Y-94780903D01*
X158358370Y-94732299D01*
X158483248Y-94720000D01*
X158566752Y-94720000D01*
X158691630Y-94732299D01*
X158691630Y-94732299D01*
G37*
G36*
X158691630Y-92192299D02*
X158851855Y-92240903D01*
X158999520Y-92319831D01*
X159128949Y-92426051D01*
X159235169Y-92555480D01*
X159314097Y-92703145D01*
X159362701Y-92863370D01*
X159379112Y-93030000D01*
X159362701Y-93196630D01*
X159314097Y-93356855D01*
X159235169Y-93504520D01*
X159128949Y-93633949D01*
X158999520Y-93740169D01*
X158851855Y-93819097D01*
X158691630Y-93867701D01*
X158566752Y-93880000D01*
X158483248Y-93880000D01*
X158358370Y-93867701D01*
X158198145Y-93819097D01*
X158050480Y-93740169D01*
X157921051Y-93633949D01*
X157814831Y-93504520D01*
X157735903Y-93356855D01*
X157687299Y-93196630D01*
X157670888Y-93030000D01*
X157687299Y-92863370D01*
X157735903Y-92703145D01*
X157814831Y-92555480D01*
X157921051Y-92426051D01*
X158050480Y-92319831D01*
X158198145Y-92240903D01*
X158358370Y-92192299D01*
X158483248Y-92180000D01*
X158566752Y-92180000D01*
X158691630Y-92192299D01*
X158691630Y-92192299D01*
G37*
G36*
X158691630Y-89652299D02*
X158851855Y-89700903D01*
X158999520Y-89779831D01*
X159128949Y-89886051D01*
X159235169Y-90015480D01*
X159314097Y-90163145D01*
X159362701Y-90323370D01*
X159379112Y-90490000D01*
X159362701Y-90656630D01*
X159314097Y-90816855D01*
X159235169Y-90964520D01*
X159128949Y-91093949D01*
X158999520Y-91200169D01*
X158851855Y-91279097D01*
X158691630Y-91327701D01*
X158566752Y-91340000D01*
X158483248Y-91340000D01*
X158358370Y-91327701D01*
X158198145Y-91279097D01*
X158050480Y-91200169D01*
X157921051Y-91093949D01*
X157814831Y-90964520D01*
X157735903Y-90816855D01*
X157687299Y-90656630D01*
X157670888Y-90490000D01*
X157687299Y-90323370D01*
X157735903Y-90163145D01*
X157814831Y-90015480D01*
X157921051Y-89886051D01*
X158050480Y-89779831D01*
X158198145Y-89700903D01*
X158358370Y-89652299D01*
X158483248Y-89640000D01*
X158566752Y-89640000D01*
X158691630Y-89652299D01*
X158691630Y-89652299D01*
G37*
G36*
X159375000Y-88800000D02*
X157675000Y-88800000D01*
X157675000Y-87100000D01*
X159375000Y-87100000D01*
X159375000Y-88800000D01*
X159375000Y-88800000D01*
G37*
G36*
X155618318Y-78934411D02*
X155690767Y-78948822D01*
X155747303Y-78972240D01*
X155827257Y-79005358D01*
X155950100Y-79087439D01*
X156054561Y-79191900D01*
X156136642Y-79314743D01*
X156193178Y-79451234D01*
X156222000Y-79596130D01*
X156222000Y-79743870D01*
X156193178Y-79888766D01*
X156136642Y-80025257D01*
X156054561Y-80148100D01*
X155950100Y-80252561D01*
X155827257Y-80334642D01*
X155747303Y-80367760D01*
X155690767Y-80391178D01*
X155618318Y-80405589D01*
X155545870Y-80420000D01*
X155398130Y-80420000D01*
X155325682Y-80405589D01*
X155253233Y-80391178D01*
X155196697Y-80367760D01*
X155116743Y-80334642D01*
X154993900Y-80252561D01*
X154889439Y-80148100D01*
X154807358Y-80025257D01*
X154750822Y-79888766D01*
X154722000Y-79743870D01*
X154722000Y-79596130D01*
X154750822Y-79451234D01*
X154807358Y-79314743D01*
X154889439Y-79191900D01*
X154993900Y-79087439D01*
X155116743Y-79005358D01*
X155196697Y-78972240D01*
X155253233Y-78948822D01*
X155325682Y-78934411D01*
X155398130Y-78920000D01*
X155545870Y-78920000D01*
X155618318Y-78934411D01*
X155618318Y-78934411D01*
G37*
G36*
X143680318Y-78934411D02*
X143752767Y-78948822D01*
X143809303Y-78972240D01*
X143889257Y-79005358D01*
X144012100Y-79087439D01*
X144116561Y-79191900D01*
X144198642Y-79314743D01*
X144255178Y-79451234D01*
X144284000Y-79596130D01*
X144284000Y-79743870D01*
X144255178Y-79888766D01*
X144198642Y-80025257D01*
X144116561Y-80148100D01*
X144012100Y-80252561D01*
X143889257Y-80334642D01*
X143809303Y-80367760D01*
X143752767Y-80391178D01*
X143680318Y-80405589D01*
X143607870Y-80420000D01*
X143460130Y-80420000D01*
X143387682Y-80405589D01*
X143315233Y-80391178D01*
X143258697Y-80367760D01*
X143178743Y-80334642D01*
X143055900Y-80252561D01*
X142951439Y-80148100D01*
X142869358Y-80025257D01*
X142812822Y-79888766D01*
X142784000Y-79743870D01*
X142784000Y-79596130D01*
X142812822Y-79451234D01*
X142869358Y-79314743D01*
X142951439Y-79191900D01*
X143055900Y-79087439D01*
X143178743Y-79005358D01*
X143258697Y-78972240D01*
X143315233Y-78948822D01*
X143387682Y-78934411D01*
X143460130Y-78920000D01*
X143607870Y-78920000D01*
X143680318Y-78934411D01*
X143680318Y-78934411D01*
G37*
G36*
X158618318Y-78934411D02*
X158690767Y-78948822D01*
X158747303Y-78972240D01*
X158827257Y-79005358D01*
X158950100Y-79087439D01*
X159054561Y-79191900D01*
X159136642Y-79314743D01*
X159193178Y-79451234D01*
X159222000Y-79596130D01*
X159222000Y-79743870D01*
X159193178Y-79888766D01*
X159136642Y-80025257D01*
X159054561Y-80148100D01*
X158950100Y-80252561D01*
X158827257Y-80334642D01*
X158747303Y-80367760D01*
X158690767Y-80391178D01*
X158618318Y-80405589D01*
X158545870Y-80420000D01*
X158398130Y-80420000D01*
X158325682Y-80405589D01*
X158253233Y-80391178D01*
X158196697Y-80367760D01*
X158116743Y-80334642D01*
X157993900Y-80252561D01*
X157889439Y-80148100D01*
X157807358Y-80025257D01*
X157750822Y-79888766D01*
X157722000Y-79743870D01*
X157722000Y-79596130D01*
X157750822Y-79451234D01*
X157807358Y-79314743D01*
X157889439Y-79191900D01*
X157993900Y-79087439D01*
X158116743Y-79005358D01*
X158196697Y-78972240D01*
X158253233Y-78948822D01*
X158325682Y-78934411D01*
X158398130Y-78920000D01*
X158545870Y-78920000D01*
X158618318Y-78934411D01*
X158618318Y-78934411D01*
G37*
G36*
X146680318Y-78934411D02*
X146752767Y-78948822D01*
X146809303Y-78972240D01*
X146889257Y-79005358D01*
X147012100Y-79087439D01*
X147116561Y-79191900D01*
X147198642Y-79314743D01*
X147255178Y-79451234D01*
X147284000Y-79596130D01*
X147284000Y-79743870D01*
X147255178Y-79888766D01*
X147198642Y-80025257D01*
X147116561Y-80148100D01*
X147012100Y-80252561D01*
X146889257Y-80334642D01*
X146809303Y-80367760D01*
X146752767Y-80391178D01*
X146680318Y-80405589D01*
X146607870Y-80420000D01*
X146460130Y-80420000D01*
X146387682Y-80405589D01*
X146315233Y-80391178D01*
X146258697Y-80367760D01*
X146178743Y-80334642D01*
X146055900Y-80252561D01*
X145951439Y-80148100D01*
X145869358Y-80025257D01*
X145812822Y-79888766D01*
X145784000Y-79743870D01*
X145784000Y-79596130D01*
X145812822Y-79451234D01*
X145869358Y-79314743D01*
X145951439Y-79191900D01*
X146055900Y-79087439D01*
X146178743Y-79005358D01*
X146258697Y-78972240D01*
X146315233Y-78948822D01*
X146387682Y-78934411D01*
X146460130Y-78920000D01*
X146607870Y-78920000D01*
X146680318Y-78934411D01*
X146680318Y-78934411D01*
G37*
G36*
X115771318Y-78934411D02*
X115843767Y-78948822D01*
X115900303Y-78972240D01*
X115980257Y-79005358D01*
X116103100Y-79087439D01*
X116207561Y-79191900D01*
X116289642Y-79314743D01*
X116346178Y-79451234D01*
X116375000Y-79596130D01*
X116375000Y-79743870D01*
X116346178Y-79888766D01*
X116289642Y-80025257D01*
X116207561Y-80148100D01*
X116103100Y-80252561D01*
X115980257Y-80334642D01*
X115900303Y-80367760D01*
X115843767Y-80391178D01*
X115771318Y-80405589D01*
X115698870Y-80420000D01*
X115551130Y-80420000D01*
X115478682Y-80405589D01*
X115406233Y-80391178D01*
X115349697Y-80367760D01*
X115269743Y-80334642D01*
X115146900Y-80252561D01*
X115042439Y-80148100D01*
X114960358Y-80025257D01*
X114903822Y-79888766D01*
X114875000Y-79743870D01*
X114875000Y-79596130D01*
X114903822Y-79451234D01*
X114960358Y-79314743D01*
X115042439Y-79191900D01*
X115146900Y-79087439D01*
X115269743Y-79005358D01*
X115349697Y-78972240D01*
X115406233Y-78948822D01*
X115478682Y-78934411D01*
X115551130Y-78920000D01*
X115698870Y-78920000D01*
X115771318Y-78934411D01*
X115771318Y-78934411D01*
G37*
G36*
X118771318Y-78934411D02*
X118843767Y-78948822D01*
X118900303Y-78972240D01*
X118980257Y-79005358D01*
X119103100Y-79087439D01*
X119207561Y-79191900D01*
X119289642Y-79314743D01*
X119346178Y-79451234D01*
X119375000Y-79596130D01*
X119375000Y-79743870D01*
X119346178Y-79888766D01*
X119289642Y-80025257D01*
X119207561Y-80148100D01*
X119103100Y-80252561D01*
X118980257Y-80334642D01*
X118900303Y-80367760D01*
X118843767Y-80391178D01*
X118771318Y-80405589D01*
X118698870Y-80420000D01*
X118551130Y-80420000D01*
X118478682Y-80405589D01*
X118406233Y-80391178D01*
X118349697Y-80367760D01*
X118269743Y-80334642D01*
X118146900Y-80252561D01*
X118042439Y-80148100D01*
X117960358Y-80025257D01*
X117903822Y-79888766D01*
X117875000Y-79743870D01*
X117875000Y-79596130D01*
X117903822Y-79451234D01*
X117960358Y-79314743D01*
X118042439Y-79191900D01*
X118146900Y-79087439D01*
X118269743Y-79005358D01*
X118349697Y-78972240D01*
X118406233Y-78948822D01*
X118478682Y-78934411D01*
X118551130Y-78920000D01*
X118698870Y-78920000D01*
X118771318Y-78934411D01*
X118771318Y-78934411D01*
G37*
G36*
X121771318Y-78934411D02*
X121843767Y-78948822D01*
X121900303Y-78972240D01*
X121980257Y-79005358D01*
X122103100Y-79087439D01*
X122207561Y-79191900D01*
X122289642Y-79314743D01*
X122346178Y-79451234D01*
X122375000Y-79596130D01*
X122375000Y-79743870D01*
X122346178Y-79888766D01*
X122289642Y-80025257D01*
X122207561Y-80148100D01*
X122103100Y-80252561D01*
X121980257Y-80334642D01*
X121900303Y-80367760D01*
X121843767Y-80391178D01*
X121771318Y-80405589D01*
X121698870Y-80420000D01*
X121551130Y-80420000D01*
X121478682Y-80405589D01*
X121406233Y-80391178D01*
X121349697Y-80367760D01*
X121269743Y-80334642D01*
X121146900Y-80252561D01*
X121042439Y-80148100D01*
X120960358Y-80025257D01*
X120903822Y-79888766D01*
X120875000Y-79743870D01*
X120875000Y-79596130D01*
X120903822Y-79451234D01*
X120960358Y-79314743D01*
X121042439Y-79191900D01*
X121146900Y-79087439D01*
X121269743Y-79005358D01*
X121349697Y-78972240D01*
X121406233Y-78948822D01*
X121478682Y-78934411D01*
X121551130Y-78920000D01*
X121698870Y-78920000D01*
X121771318Y-78934411D01*
X121771318Y-78934411D01*
G37*
G36*
X131521318Y-78934411D02*
X131593767Y-78948822D01*
X131650303Y-78972240D01*
X131730257Y-79005358D01*
X131853100Y-79087439D01*
X131957561Y-79191900D01*
X132039642Y-79314743D01*
X132096178Y-79451234D01*
X132125000Y-79596130D01*
X132125000Y-79743870D01*
X132096178Y-79888766D01*
X132039642Y-80025257D01*
X131957561Y-80148100D01*
X131853100Y-80252561D01*
X131730257Y-80334642D01*
X131650303Y-80367760D01*
X131593767Y-80391178D01*
X131521318Y-80405589D01*
X131448870Y-80420000D01*
X131301130Y-80420000D01*
X131228682Y-80405589D01*
X131156233Y-80391178D01*
X131099697Y-80367760D01*
X131019743Y-80334642D01*
X130896900Y-80252561D01*
X130792439Y-80148100D01*
X130710358Y-80025257D01*
X130653822Y-79888766D01*
X130625000Y-79743870D01*
X130625000Y-79596130D01*
X130653822Y-79451234D01*
X130710358Y-79314743D01*
X130792439Y-79191900D01*
X130896900Y-79087439D01*
X131019743Y-79005358D01*
X131099697Y-78972240D01*
X131156233Y-78948822D01*
X131228682Y-78934411D01*
X131301130Y-78920000D01*
X131448870Y-78920000D01*
X131521318Y-78934411D01*
X131521318Y-78934411D01*
G37*
G36*
X134521318Y-78934411D02*
X134593767Y-78948822D01*
X134650303Y-78972240D01*
X134730257Y-79005358D01*
X134853100Y-79087439D01*
X134957561Y-79191900D01*
X135039642Y-79314743D01*
X135096178Y-79451234D01*
X135125000Y-79596130D01*
X135125000Y-79743870D01*
X135096178Y-79888766D01*
X135039642Y-80025257D01*
X134957561Y-80148100D01*
X134853100Y-80252561D01*
X134730257Y-80334642D01*
X134650303Y-80367760D01*
X134593767Y-80391178D01*
X134521318Y-80405589D01*
X134448870Y-80420000D01*
X134301130Y-80420000D01*
X134228682Y-80405589D01*
X134156233Y-80391178D01*
X134099697Y-80367760D01*
X134019743Y-80334642D01*
X133896900Y-80252561D01*
X133792439Y-80148100D01*
X133710358Y-80025257D01*
X133653822Y-79888766D01*
X133625000Y-79743870D01*
X133625000Y-79596130D01*
X133653822Y-79451234D01*
X133710358Y-79314743D01*
X133792439Y-79191900D01*
X133896900Y-79087439D01*
X134019743Y-79005358D01*
X134099697Y-78972240D01*
X134156233Y-78948822D01*
X134228682Y-78934411D01*
X134301130Y-78920000D01*
X134448870Y-78920000D01*
X134521318Y-78934411D01*
X134521318Y-78934411D01*
G37*
G36*
X115771318Y-75934411D02*
X115843767Y-75948822D01*
X115900303Y-75972240D01*
X115980257Y-76005358D01*
X116103100Y-76087439D01*
X116207561Y-76191900D01*
X116289642Y-76314743D01*
X116346178Y-76451234D01*
X116375000Y-76596130D01*
X116375000Y-76743870D01*
X116346178Y-76888766D01*
X116289642Y-77025257D01*
X116207561Y-77148100D01*
X116103100Y-77252561D01*
X115980257Y-77334642D01*
X115900303Y-77367760D01*
X115843767Y-77391178D01*
X115771318Y-77405589D01*
X115698870Y-77420000D01*
X115551130Y-77420000D01*
X115478682Y-77405589D01*
X115406233Y-77391178D01*
X115349697Y-77367760D01*
X115269743Y-77334642D01*
X115146900Y-77252561D01*
X115042439Y-77148100D01*
X114960358Y-77025257D01*
X114903822Y-76888766D01*
X114875000Y-76743870D01*
X114875000Y-76596130D01*
X114903822Y-76451234D01*
X114960358Y-76314743D01*
X115042439Y-76191900D01*
X115146900Y-76087439D01*
X115269743Y-76005358D01*
X115349697Y-75972240D01*
X115406233Y-75948822D01*
X115478682Y-75934411D01*
X115551130Y-75920000D01*
X115698870Y-75920000D01*
X115771318Y-75934411D01*
X115771318Y-75934411D01*
G37*
G36*
X146680318Y-75934411D02*
X146752767Y-75948822D01*
X146809303Y-75972240D01*
X146889257Y-76005358D01*
X147012100Y-76087439D01*
X147116561Y-76191900D01*
X147198642Y-76314743D01*
X147255178Y-76451234D01*
X147284000Y-76596130D01*
X147284000Y-76743870D01*
X147255178Y-76888766D01*
X147198642Y-77025257D01*
X147116561Y-77148100D01*
X147012100Y-77252561D01*
X146889257Y-77334642D01*
X146809303Y-77367760D01*
X146752767Y-77391178D01*
X146680318Y-77405589D01*
X146607870Y-77420000D01*
X146460130Y-77420000D01*
X146387682Y-77405589D01*
X146315233Y-77391178D01*
X146258697Y-77367760D01*
X146178743Y-77334642D01*
X146055900Y-77252561D01*
X145951439Y-77148100D01*
X145869358Y-77025257D01*
X145812822Y-76888766D01*
X145784000Y-76743870D01*
X145784000Y-76596130D01*
X145812822Y-76451234D01*
X145869358Y-76314743D01*
X145951439Y-76191900D01*
X146055900Y-76087439D01*
X146178743Y-76005358D01*
X146258697Y-75972240D01*
X146315233Y-75948822D01*
X146387682Y-75934411D01*
X146460130Y-75920000D01*
X146607870Y-75920000D01*
X146680318Y-75934411D01*
X146680318Y-75934411D01*
G37*
G36*
X158618318Y-75934411D02*
X158690767Y-75948822D01*
X158747303Y-75972240D01*
X158827257Y-76005358D01*
X158950100Y-76087439D01*
X159054561Y-76191900D01*
X159136642Y-76314743D01*
X159193178Y-76451234D01*
X159222000Y-76596130D01*
X159222000Y-76743870D01*
X159193178Y-76888766D01*
X159136642Y-77025257D01*
X159054561Y-77148100D01*
X158950100Y-77252561D01*
X158827257Y-77334642D01*
X158747303Y-77367760D01*
X158690767Y-77391178D01*
X158618318Y-77405589D01*
X158545870Y-77420000D01*
X158398130Y-77420000D01*
X158325682Y-77405589D01*
X158253233Y-77391178D01*
X158196697Y-77367760D01*
X158116743Y-77334642D01*
X157993900Y-77252561D01*
X157889439Y-77148100D01*
X157807358Y-77025257D01*
X157750822Y-76888766D01*
X157722000Y-76743870D01*
X157722000Y-76596130D01*
X157750822Y-76451234D01*
X157807358Y-76314743D01*
X157889439Y-76191900D01*
X157993900Y-76087439D01*
X158116743Y-76005358D01*
X158196697Y-75972240D01*
X158253233Y-75948822D01*
X158325682Y-75934411D01*
X158398130Y-75920000D01*
X158545870Y-75920000D01*
X158618318Y-75934411D01*
X158618318Y-75934411D01*
G37*
G36*
X143680318Y-75934411D02*
X143752767Y-75948822D01*
X143809303Y-75972240D01*
X143889257Y-76005358D01*
X144012100Y-76087439D01*
X144116561Y-76191900D01*
X144198642Y-76314743D01*
X144255178Y-76451234D01*
X144284000Y-76596130D01*
X144284000Y-76743870D01*
X144255178Y-76888766D01*
X144198642Y-77025257D01*
X144116561Y-77148100D01*
X144012100Y-77252561D01*
X143889257Y-77334642D01*
X143809303Y-77367760D01*
X143752767Y-77391178D01*
X143680318Y-77405589D01*
X143607870Y-77420000D01*
X143460130Y-77420000D01*
X143387682Y-77405589D01*
X143315233Y-77391178D01*
X143258697Y-77367760D01*
X143178743Y-77334642D01*
X143055900Y-77252561D01*
X142951439Y-77148100D01*
X142869358Y-77025257D01*
X142812822Y-76888766D01*
X142784000Y-76743870D01*
X142784000Y-76596130D01*
X142812822Y-76451234D01*
X142869358Y-76314743D01*
X142951439Y-76191900D01*
X143055900Y-76087439D01*
X143178743Y-76005358D01*
X143258697Y-75972240D01*
X143315233Y-75948822D01*
X143387682Y-75934411D01*
X143460130Y-75920000D01*
X143607870Y-75920000D01*
X143680318Y-75934411D01*
X143680318Y-75934411D01*
G37*
G36*
X131521318Y-75934411D02*
X131593767Y-75948822D01*
X131650303Y-75972240D01*
X131730257Y-76005358D01*
X131853100Y-76087439D01*
X131957561Y-76191900D01*
X132039642Y-76314743D01*
X132096178Y-76451234D01*
X132125000Y-76596130D01*
X132125000Y-76743870D01*
X132096178Y-76888766D01*
X132039642Y-77025257D01*
X131957561Y-77148100D01*
X131853100Y-77252561D01*
X131730257Y-77334642D01*
X131650303Y-77367760D01*
X131593767Y-77391178D01*
X131521318Y-77405589D01*
X131448870Y-77420000D01*
X131301130Y-77420000D01*
X131228682Y-77405589D01*
X131156233Y-77391178D01*
X131099697Y-77367760D01*
X131019743Y-77334642D01*
X130896900Y-77252561D01*
X130792439Y-77148100D01*
X130710358Y-77025257D01*
X130653822Y-76888766D01*
X130625000Y-76743870D01*
X130625000Y-76596130D01*
X130653822Y-76451234D01*
X130710358Y-76314743D01*
X130792439Y-76191900D01*
X130896900Y-76087439D01*
X131019743Y-76005358D01*
X131099697Y-75972240D01*
X131156233Y-75948822D01*
X131228682Y-75934411D01*
X131301130Y-75920000D01*
X131448870Y-75920000D01*
X131521318Y-75934411D01*
X131521318Y-75934411D01*
G37*
G36*
X134521318Y-75934411D02*
X134593767Y-75948822D01*
X134650303Y-75972240D01*
X134730257Y-76005358D01*
X134853100Y-76087439D01*
X134957561Y-76191900D01*
X135039642Y-76314743D01*
X135096178Y-76451234D01*
X135125000Y-76596130D01*
X135125000Y-76743870D01*
X135096178Y-76888766D01*
X135039642Y-77025257D01*
X134957561Y-77148100D01*
X134853100Y-77252561D01*
X134730257Y-77334642D01*
X134650303Y-77367760D01*
X134593767Y-77391178D01*
X134521318Y-77405589D01*
X134448870Y-77420000D01*
X134301130Y-77420000D01*
X134228682Y-77405589D01*
X134156233Y-77391178D01*
X134099697Y-77367760D01*
X134019743Y-77334642D01*
X133896900Y-77252561D01*
X133792439Y-77148100D01*
X133710358Y-77025257D01*
X133653822Y-76888766D01*
X133625000Y-76743870D01*
X133625000Y-76596130D01*
X133653822Y-76451234D01*
X133710358Y-76314743D01*
X133792439Y-76191900D01*
X133896900Y-76087439D01*
X134019743Y-76005358D01*
X134099697Y-75972240D01*
X134156233Y-75948822D01*
X134228682Y-75934411D01*
X134301130Y-75920000D01*
X134448870Y-75920000D01*
X134521318Y-75934411D01*
X134521318Y-75934411D01*
G37*
G36*
X118771318Y-75934411D02*
X118843767Y-75948822D01*
X118900303Y-75972240D01*
X118980257Y-76005358D01*
X119103100Y-76087439D01*
X119207561Y-76191900D01*
X119289642Y-76314743D01*
X119346178Y-76451234D01*
X119375000Y-76596130D01*
X119375000Y-76743870D01*
X119346178Y-76888766D01*
X119289642Y-77025257D01*
X119207561Y-77148100D01*
X119103100Y-77252561D01*
X118980257Y-77334642D01*
X118900303Y-77367760D01*
X118843767Y-77391178D01*
X118771318Y-77405589D01*
X118698870Y-77420000D01*
X118551130Y-77420000D01*
X118478682Y-77405589D01*
X118406233Y-77391178D01*
X118349697Y-77367760D01*
X118269743Y-77334642D01*
X118146900Y-77252561D01*
X118042439Y-77148100D01*
X117960358Y-77025257D01*
X117903822Y-76888766D01*
X117875000Y-76743870D01*
X117875000Y-76596130D01*
X117903822Y-76451234D01*
X117960358Y-76314743D01*
X118042439Y-76191900D01*
X118146900Y-76087439D01*
X118269743Y-76005358D01*
X118349697Y-75972240D01*
X118406233Y-75948822D01*
X118478682Y-75934411D01*
X118551130Y-75920000D01*
X118698870Y-75920000D01*
X118771318Y-75934411D01*
X118771318Y-75934411D01*
G37*
G36*
X121771318Y-75934411D02*
X121843767Y-75948822D01*
X121900303Y-75972240D01*
X121980257Y-76005358D01*
X122103100Y-76087439D01*
X122207561Y-76191900D01*
X122289642Y-76314743D01*
X122346178Y-76451234D01*
X122375000Y-76596130D01*
X122375000Y-76743870D01*
X122346178Y-76888766D01*
X122289642Y-77025257D01*
X122207561Y-77148100D01*
X122103100Y-77252561D01*
X121980257Y-77334642D01*
X121900303Y-77367760D01*
X121843767Y-77391178D01*
X121771318Y-77405589D01*
X121698870Y-77420000D01*
X121551130Y-77420000D01*
X121478682Y-77405589D01*
X121406233Y-77391178D01*
X121349697Y-77367760D01*
X121269743Y-77334642D01*
X121146900Y-77252561D01*
X121042439Y-77148100D01*
X120960358Y-77025257D01*
X120903822Y-76888766D01*
X120875000Y-76743870D01*
X120875000Y-76596130D01*
X120903822Y-76451234D01*
X120960358Y-76314743D01*
X121042439Y-76191900D01*
X121146900Y-76087439D01*
X121269743Y-76005358D01*
X121349697Y-75972240D01*
X121406233Y-75948822D01*
X121478682Y-75934411D01*
X121551130Y-75920000D01*
X121698870Y-75920000D01*
X121771318Y-75934411D01*
X121771318Y-75934411D01*
G37*
G36*
X155618318Y-75934411D02*
X155690767Y-75948822D01*
X155747303Y-75972240D01*
X155827257Y-76005358D01*
X155950100Y-76087439D01*
X156054561Y-76191900D01*
X156136642Y-76314743D01*
X156193178Y-76451234D01*
X156222000Y-76596130D01*
X156222000Y-76743870D01*
X156193178Y-76888766D01*
X156136642Y-77025257D01*
X156054561Y-77148100D01*
X155950100Y-77252561D01*
X155827257Y-77334642D01*
X155747303Y-77367760D01*
X155690767Y-77391178D01*
X155618318Y-77405589D01*
X155545870Y-77420000D01*
X155398130Y-77420000D01*
X155325682Y-77405589D01*
X155253233Y-77391178D01*
X155196697Y-77367760D01*
X155116743Y-77334642D01*
X154993900Y-77252561D01*
X154889439Y-77148100D01*
X154807358Y-77025257D01*
X154750822Y-76888766D01*
X154722000Y-76743870D01*
X154722000Y-76596130D01*
X154750822Y-76451234D01*
X154807358Y-76314743D01*
X154889439Y-76191900D01*
X154993900Y-76087439D01*
X155116743Y-76005358D01*
X155196697Y-75972240D01*
X155253233Y-75948822D01*
X155325682Y-75934411D01*
X155398130Y-75920000D01*
X155545870Y-75920000D01*
X155618318Y-75934411D01*
X155618318Y-75934411D01*
G37*
G36*
X105463700Y-73554076D02*
X105507619Y-73562812D01*
X105590362Y-73597085D01*
X105590363Y-73597086D01*
X105664832Y-73646844D01*
X105728156Y-73710168D01*
X105728158Y-73710171D01*
X105777915Y-73784638D01*
X105812188Y-73867381D01*
X105829660Y-73955220D01*
X105829660Y-74044780D01*
X105812188Y-74132619D01*
X105777915Y-74215362D01*
X105777914Y-74215363D01*
X105728156Y-74289832D01*
X105664832Y-74353156D01*
X105664829Y-74353158D01*
X105590362Y-74402915D01*
X105507619Y-74437188D01*
X105463700Y-74445924D01*
X105419782Y-74454660D01*
X105330218Y-74454660D01*
X105286300Y-74445924D01*
X105242381Y-74437188D01*
X105159638Y-74402915D01*
X105085171Y-74353158D01*
X105085168Y-74353156D01*
X105021844Y-74289832D01*
X104972086Y-74215363D01*
X104972085Y-74215362D01*
X104937812Y-74132619D01*
X104920340Y-74044780D01*
X104920340Y-73955220D01*
X104937812Y-73867381D01*
X104972085Y-73784638D01*
X105021842Y-73710171D01*
X105021844Y-73710168D01*
X105085168Y-73646844D01*
X105159637Y-73597086D01*
X105159638Y-73597085D01*
X105242381Y-73562812D01*
X105286300Y-73554076D01*
X105330218Y-73545340D01*
X105419782Y-73545340D01*
X105463700Y-73554076D01*
X105463700Y-73554076D01*
G37*
G36*
X101064420Y-73554076D02*
X101108339Y-73562812D01*
X101191082Y-73597085D01*
X101191083Y-73597086D01*
X101265552Y-73646844D01*
X101328876Y-73710168D01*
X101328878Y-73710171D01*
X101378635Y-73784638D01*
X101412908Y-73867381D01*
X101430380Y-73955220D01*
X101430380Y-74044780D01*
X101412908Y-74132619D01*
X101378635Y-74215362D01*
X101378634Y-74215363D01*
X101328876Y-74289832D01*
X101265552Y-74353156D01*
X101265549Y-74353158D01*
X101191082Y-74402915D01*
X101108339Y-74437188D01*
X101064420Y-74445924D01*
X101020502Y-74454660D01*
X100930938Y-74454660D01*
X100887020Y-74445924D01*
X100843101Y-74437188D01*
X100760358Y-74402915D01*
X100685891Y-74353158D01*
X100685888Y-74353156D01*
X100622564Y-74289832D01*
X100572806Y-74215363D01*
X100572805Y-74215362D01*
X100538532Y-74132619D01*
X100521060Y-74044780D01*
X100521060Y-73955220D01*
X100538532Y-73867381D01*
X100572805Y-73784638D01*
X100622562Y-73710171D01*
X100622564Y-73710168D01*
X100685888Y-73646844D01*
X100760357Y-73597086D01*
X100760358Y-73597085D01*
X100843101Y-73562812D01*
X100887020Y-73554076D01*
X100930938Y-73545340D01*
X101020502Y-73545340D01*
X101064420Y-73554076D01*
X101064420Y-73554076D01*
G37*
G36*
X118965935Y-70888429D02*
X119062534Y-70907644D01*
X119335517Y-71020717D01*
X119577920Y-71182687D01*
X119581197Y-71184876D01*
X119790124Y-71393803D01*
X119954284Y-71639485D01*
X120067356Y-71912467D01*
X120125000Y-72202261D01*
X120125000Y-72497739D01*
X120067356Y-72787533D01*
X119954284Y-73060515D01*
X119790124Y-73306197D01*
X119581197Y-73515124D01*
X119581194Y-73515126D01*
X119335517Y-73679283D01*
X119062534Y-73792356D01*
X118965935Y-73811571D01*
X118772739Y-73850000D01*
X118477261Y-73850000D01*
X118284065Y-73811571D01*
X118187466Y-73792356D01*
X117914483Y-73679283D01*
X117668806Y-73515126D01*
X117668803Y-73515124D01*
X117459876Y-73306197D01*
X117295716Y-73060515D01*
X117182644Y-72787533D01*
X117125000Y-72497739D01*
X117125000Y-72202261D01*
X117182644Y-71912467D01*
X117295716Y-71639485D01*
X117459876Y-71393803D01*
X117668803Y-71184876D01*
X117672080Y-71182687D01*
X117914483Y-71020717D01*
X118187466Y-70907644D01*
X118284065Y-70888429D01*
X118477261Y-70850000D01*
X118772739Y-70850000D01*
X118965935Y-70888429D01*
X118965935Y-70888429D01*
G37*
G36*
X133215935Y-70888429D02*
X133312534Y-70907644D01*
X133585517Y-71020717D01*
X133827920Y-71182687D01*
X133831197Y-71184876D01*
X134040124Y-71393803D01*
X134204284Y-71639485D01*
X134317356Y-71912467D01*
X134375000Y-72202261D01*
X134375000Y-72497739D01*
X134317356Y-72787533D01*
X134204284Y-73060515D01*
X134040124Y-73306197D01*
X133831197Y-73515124D01*
X133831194Y-73515126D01*
X133585517Y-73679283D01*
X133312534Y-73792356D01*
X133215935Y-73811571D01*
X133022739Y-73850000D01*
X132727261Y-73850000D01*
X132534065Y-73811571D01*
X132437466Y-73792356D01*
X132164483Y-73679283D01*
X131918806Y-73515126D01*
X131918803Y-73515124D01*
X131709876Y-73306197D01*
X131545716Y-73060515D01*
X131432644Y-72787533D01*
X131375000Y-72497739D01*
X131375000Y-72202261D01*
X131432644Y-71912467D01*
X131545716Y-71639485D01*
X131709876Y-71393803D01*
X131918803Y-71184876D01*
X131922080Y-71182687D01*
X132164483Y-71020717D01*
X132437466Y-70907644D01*
X132534065Y-70888429D01*
X132727261Y-70850000D01*
X133022739Y-70850000D01*
X133215935Y-70888429D01*
X133215935Y-70888429D01*
G37*
G36*
X145374935Y-70888429D02*
X145471534Y-70907644D01*
X145744517Y-71020717D01*
X145986920Y-71182687D01*
X145990197Y-71184876D01*
X146199124Y-71393803D01*
X146363284Y-71639485D01*
X146476356Y-71912467D01*
X146534000Y-72202261D01*
X146534000Y-72497739D01*
X146476356Y-72787533D01*
X146363284Y-73060515D01*
X146199124Y-73306197D01*
X145990197Y-73515124D01*
X145990194Y-73515126D01*
X145744517Y-73679283D01*
X145471534Y-73792356D01*
X145374935Y-73811571D01*
X145181739Y-73850000D01*
X144886261Y-73850000D01*
X144693065Y-73811571D01*
X144596466Y-73792356D01*
X144323483Y-73679283D01*
X144077806Y-73515126D01*
X144077803Y-73515124D01*
X143868876Y-73306197D01*
X143704716Y-73060515D01*
X143591644Y-72787533D01*
X143534000Y-72497739D01*
X143534000Y-72202261D01*
X143591644Y-71912467D01*
X143704716Y-71639485D01*
X143868876Y-71393803D01*
X144077803Y-71184876D01*
X144081080Y-71182687D01*
X144323483Y-71020717D01*
X144596466Y-70907644D01*
X144693065Y-70888429D01*
X144886261Y-70850000D01*
X145181739Y-70850000D01*
X145374935Y-70888429D01*
X145374935Y-70888429D01*
G37*
G36*
X157312935Y-70888429D02*
X157409534Y-70907644D01*
X157682517Y-71020717D01*
X157924920Y-71182687D01*
X157928197Y-71184876D01*
X158137124Y-71393803D01*
X158301284Y-71639485D01*
X158414356Y-71912467D01*
X158472000Y-72202261D01*
X158472000Y-72497739D01*
X158414356Y-72787533D01*
X158301284Y-73060515D01*
X158137124Y-73306197D01*
X157928197Y-73515124D01*
X157928194Y-73515126D01*
X157682517Y-73679283D01*
X157409534Y-73792356D01*
X157312935Y-73811571D01*
X157119739Y-73850000D01*
X156824261Y-73850000D01*
X156631065Y-73811571D01*
X156534466Y-73792356D01*
X156261483Y-73679283D01*
X156015806Y-73515126D01*
X156015803Y-73515124D01*
X155806876Y-73306197D01*
X155642716Y-73060515D01*
X155529644Y-72787533D01*
X155472000Y-72497739D01*
X155472000Y-72202261D01*
X155529644Y-71912467D01*
X155642716Y-71639485D01*
X155806876Y-71393803D01*
X156015803Y-71184876D01*
X156019080Y-71182687D01*
X156261483Y-71020717D01*
X156534466Y-70907644D01*
X156631065Y-70888429D01*
X156824261Y-70850000D01*
X157119739Y-70850000D01*
X157312935Y-70888429D01*
X157312935Y-70888429D01*
G37*
G36*
X167436225Y-67358049D02*
X167597223Y-67390074D01*
X167785677Y-67468134D01*
X168052193Y-67578528D01*
X168461660Y-67852126D01*
X168809874Y-68200340D01*
X169083472Y-68609807D01*
X169271926Y-69064778D01*
X169368000Y-69547770D01*
X169368000Y-70040230D01*
X169271926Y-70523222D01*
X169083472Y-70978193D01*
X168809874Y-71387660D01*
X168461660Y-71735874D01*
X168052193Y-72009472D01*
X167785677Y-72119866D01*
X167597223Y-72197926D01*
X167436225Y-72229951D01*
X167114230Y-72294000D01*
X166621770Y-72294000D01*
X166299775Y-72229951D01*
X166138777Y-72197926D01*
X165950323Y-72119866D01*
X165683807Y-72009472D01*
X165274340Y-71735874D01*
X164926126Y-71387660D01*
X164652528Y-70978193D01*
X164464074Y-70523222D01*
X164368000Y-70040230D01*
X164368000Y-69547770D01*
X164464074Y-69064778D01*
X164652528Y-68609807D01*
X164926126Y-68200340D01*
X165274340Y-67852126D01*
X165683807Y-67578528D01*
X165950323Y-67468134D01*
X166138777Y-67390074D01*
X166299775Y-67358049D01*
X166621770Y-67294000D01*
X167114230Y-67294000D01*
X167436225Y-67358049D01*
X167436225Y-67358049D01*
G37*
G36*
X87436225Y-67358049D02*
X87597223Y-67390074D01*
X87785677Y-67468134D01*
X88052193Y-67578528D01*
X88461660Y-67852126D01*
X88809874Y-68200340D01*
X89083472Y-68609807D01*
X89271926Y-69064778D01*
X89368000Y-69547770D01*
X89368000Y-70040230D01*
X89271926Y-70523222D01*
X89083472Y-70978193D01*
X88809874Y-71387660D01*
X88461660Y-71735874D01*
X88052193Y-72009472D01*
X87785677Y-72119866D01*
X87597223Y-72197926D01*
X87436225Y-72229951D01*
X87114230Y-72294000D01*
X86621770Y-72294000D01*
X86299775Y-72229951D01*
X86138777Y-72197926D01*
X85950323Y-72119866D01*
X85683807Y-72009472D01*
X85274340Y-71735874D01*
X84926126Y-71387660D01*
X84652528Y-70978193D01*
X84464074Y-70523222D01*
X84368000Y-70040230D01*
X84368000Y-69547770D01*
X84464074Y-69064778D01*
X84652528Y-68609807D01*
X84926126Y-68200340D01*
X85274340Y-67852126D01*
X85683807Y-67578528D01*
X85950323Y-67468134D01*
X86138777Y-67390074D01*
X86299775Y-67358049D01*
X86621770Y-67294000D01*
X87114230Y-67294000D01*
X87436225Y-67358049D01*
X87436225Y-67358049D01*
G37*
M02*
