M48
;DRILL file {KiCad (5.0.2)-1} date 2019-05-11 3:19:40 PM
;FORMAT={3:3/ absolute / metric / suppress leading zeros}
FMAT,2
METRIC,TZ
T1C0.300
T2C0.899
T3C1.000
T4C2.946
T5C3.000
%
G90
G05
T1
X86700Y-79900
X86700Y-89000
X86700Y-96500
X86800Y-108200
X86800Y-117100
X86800Y-123700
X89916Y-126492
X93472Y-106955
X94234Y-78232
X94488Y-105156
X95500Y-68700
X95504Y-106680
X95600Y-131700
X96520Y-118872
X97790Y-108458
X98298Y-82084
X98900Y-109500
X99000Y-112000
X100000Y-108300
X100000Y-109500
X100000Y-112000
X100050Y-102650
X100150Y-101350
X101150Y-83900
X101700Y-92600
X101750Y-104150
X102000Y-94750
X102150Y-86000
X102800Y-131700
X102950Y-108400
X103000Y-89700
X103225Y-78300
X103600Y-68700
X103975Y-78600
X104675Y-98325
X104900Y-89900
X104950Y-84650
X106300Y-90200
X106650Y-86750
X107000Y-94750
X107050Y-98400
X108225Y-102400
X108250Y-100750
X108425Y-80350
X109700Y-103850
X109750Y-102800
X110150Y-87350
X110744Y-79502
X111300Y-106050
X111450Y-103500
X111800Y-68800
X112150Y-108600
X113050Y-102350
X113250Y-105450
X113300Y-103700
X113500Y-131700
X113950Y-100250
X114000Y-97100
X114100Y-106650
X114225Y-111075
X114875Y-111075
X115700Y-93350
X116600Y-82400
X117200Y-97500
X117200Y-107600
X117450Y-106000
X117550Y-100350
X118000Y-68800
X118000Y-111500
X118600Y-93350
X119126Y-112014
X119634Y-114300
X120142Y-108966
X120250Y-106950
X120904Y-108204
X121050Y-101350
X121158Y-112776
X121300Y-92300
X121412Y-104902
X121500Y-106950
X121900Y-100450
X121920Y-103632
X123675Y-83625
X123698Y-109220
X124600Y-98150
X124700Y-95650
X125222Y-103632
X125250Y-96550
X126238Y-100771
X126500Y-68800
X127508Y-97282
X127900Y-131700
X128500Y-104000
X128500Y-106000
X129032Y-109728
X129550Y-83675
X131950Y-93400
X132425Y-109575
X132600Y-96700
X133325Y-99700
X134350Y-85450
X134400Y-100225
X134550Y-90100
X135050Y-92200
X135800Y-68800
X136125Y-79250
X136125Y-80175
X136125Y-102050
X136500Y-110500
X136600Y-99050
X136906Y-112776
X137625Y-95650
X137668Y-105156
X137700Y-90050
X138325Y-102100
X138625Y-109175
X139250Y-88550
X139375Y-111475
X139500Y-75500
X139500Y-79250
X140200Y-103900
X140425Y-88550
X140675Y-97225
X140716Y-116840
X140716Y-117856
X140750Y-81250
X140750Y-83750
X141400Y-103800
X141400Y-131700
X141425Y-88525
X142494Y-105156
X142494Y-118618
X142750Y-90000
X143764Y-109474
X143764Y-116840
X143825Y-93750
X143825Y-94750
X144100Y-90050
X144272Y-106172
X144500Y-68800
X144611Y-104902
X144925Y-93750
X144925Y-94750
X145542Y-101854
X145542Y-106680
X145542Y-116840
X145796Y-110490
X146250Y-88750
X147320Y-107188
X148675Y-98075
X148750Y-88750
X149606Y-110811
X149900Y-68800
X150275Y-88800
X151900Y-87575
X152575Y-87100
X153050Y-93700
X153925Y-89850
X154450Y-89025
X155702Y-106680
X155900Y-68800
X156050Y-93000
X156400Y-131700
X157226Y-104140
X157734Y-105664
X157734Y-110490
X159766Y-108204
X160782Y-106934
X161290Y-102870
X161700Y-89950
X161900Y-97350
X162100Y-68800
X162814Y-131572
X164084Y-74168
X164846Y-126492
X166370Y-100584
X166370Y-101600
X168148Y-79756
X168148Y-85344
X168148Y-92202
X168148Y-98298
X168148Y-104140
X168148Y-115062
X168148Y-122174
T2
X100976Y-74000
X105375Y-74000
T3
X155472Y-76670
X155472Y-79670
X158472Y-76670
X158472Y-79670
X115625Y-76670
X115625Y-79670
X118625Y-76670
X118625Y-79670
X121625Y-76670
X121625Y-79670
X143534Y-76670
X143534Y-79670
X146534Y-76670
X146534Y-79670
X158525Y-87950
X158525Y-90490
X158525Y-93030
X158525Y-95570
X158525Y-98110
X158525Y-100650
X123746Y-120922
X123746Y-123922
X126746Y-120922
X126746Y-123922
X129746Y-120922
X129746Y-123922
X131375Y-76670
X131375Y-79670
X134375Y-76670
X134375Y-79670
X138708Y-120922
X138708Y-123922
X141708Y-120922
X141708Y-123922
X111530Y-120668
X111530Y-123668
X114530Y-120668
X114530Y-123668
X99338Y-120668
X99338Y-123668
X102338Y-120668
X102338Y-123668
T4
X166868Y-129794
X86868Y-69794
X166868Y-69794
X86868Y-129794
T5
X118625Y-72350
X126746Y-128242
X132875Y-72350
X140208Y-128242
X113030Y-127988
X100838Y-127988
X156972Y-72350
X145034Y-72350
T0
M30
